{
.appVersion = "983";
copyright = "Copyright © 1990, 2001 Adobe Systems Incorporated.  All Rights Reserved.";
customParameters = (
{
name = licenseURL;
value = "http://www.adobe.com/type/legal.html";
},
{
name = vendorID;
value = ADBE;
},
{
name = panose;
value = (
0,
0,
8,
0,
0,
0,
0,
0,
0,
0
);
},
{
name = unicodeRanges;
value = (
0,
1,
2,
3,
5,
7,
31,
33,
35,
38,
45,
62
);
},
{
name = codePageRanges;
value = (
1252
);
},
{
name = "Family Alignment Zones";
value = (
"{688, 12}",
"{470, 12}",
"{404, 0}",
"{273, -7}",
"{0, -12}",
"{-182, -20}"
);
},
{
name = glyphOrder;
value = (
.notdef,
space,
exclam,
quotedbl,
numbersign,
dollar,
percent,
ampersand,
quoteright,
parenleft,
parenright,
asterisk,
plus,
comma,
hyphen,
period,
slash,
zero,
one,
two,
three,
four,
five,
six,
seven,
eight,
nine,
colon,
semicolon,
less,
equal,
greater,
question,
at,
A,
B,
C,
D,
E,
F,
G,
H,
I,
J,
K,
L,
M,
N,
O,
P,
Q,
R,
S,
T,
U,
V,
W,
X,
Y,
Z,
bracketleft,
backslash,
bracketright,
asciicircum,
underscore,
quoteleft,
a,
b,
c,
d,
e,
f,
g,
h,
i,
j,
k,
l,
m,
n,
o,
p,
q,
r,
s,
t,
u,
v,
w,
x,
y,
z,
braceleft,
bar,
braceright,
asciitilde,
exclamdown,
cent,
sterling,
fraction,
yen,
florin,
section,
currency,
quotesingle,
quotedblleft,
guillemotleft,
guilsinglleft,
guilsinglright,
fi,
fl,
endash,
dagger,
daggerdbl,
periodcentered,
paragraph,
bullet,
quotesinglbase,
quotedblbase,
quotedblright,
guillemotright,
ellipsis,
perthousand,
questiondown,
grave,
acute,
circumflex,
tilde,
macron,
breve,
dotaccent,
dieresis,
ring,
cedilla,
hungarumlaut,
ogonek,
caron,
emdash,
AE,
ordfeminine,
Lslash,
Oslash,
OE,
ordmasculine,
ae,
dotlessi,
lslash,
oslash,
oe,
germandbls,
onesuperior,
logicalnot,
mu,
trademark,
Eth,
onehalf,
plusminus,
Thorn,
onequarter,
divide,
brokenbar,
degree,
thorn,
threequarters,
twosuperior,
registered,
minus,
eth,
multiply,
threesuperior,
copyright,
Aacute,
Acircumflex,
Adieresis,
Agrave,
Aring,
Atilde,
Ccedilla,
Eacute,
Ecircumflex,
Edieresis,
Egrave,
Iacute,
Icircumflex,
Idieresis,

glyphs = (
{
glyphname = .notdef;
lastChange = "2017-06-09 11:40:29 +0000";
layers = (
{
layerId = "0E02FD82-E348-46EC-A7E4-43EEF3FEB87C";
paths = (
{
closed = 1;
nodes = (
"96 0 LINE",
"596 0 LINE",
"596 700 LINE",
"96 700 LINE"
);
},
{
closed = 1;
nodes = (
"346 395 LINE",
"176 650 LINE",
"516 650 LINE"
);
},
{
closed = 1;
nodes = (
"376 350 LINE",
"546 605 LINE",
"546 95 LINE"
);
},
{
closed = 1;
nodes = (
"176 50 LINE",
"346 305 LINE",
"516 50 LINE"
);
},
{
closed = 1;
nodes = (
"146 605 LINE",
"316 350 LINE",
"146 95 LINE"
);
}
);
width = 596;
}
);
note = .notdef;
},
{
glyphname = exclam;
lastChange = "2017-06-09 11:40:29 +0000";
layers = (
{
layerId = "0E02FD82-E348-46EC-A7E4-43EEF3FEB87C";
paths = (
{
closed = 1;
nodes = (
"211 381 OFFCURVE",
"334 519 OFFCURVE",
"334 620 CURVE SMOOTH",
"334 678 OFFCURVE",
"310 700 OFFCURVE",
"260 700 CURVE SMOOTH",
"202 700 OFFCURVE",
"148 621 OFFCURVE",
"148 525 CURVE SMOOTH",
"148 360 OFFCURVE",
"137 283 OFFCURVE",
"118 206 CURVE",
"166 206 LINE"
);
},
{
closed = 1;
nodes = (
"30 20 OFFCURVE",
"63 -12 OFFCURVE",
"104 -12 CURVE SMOOTH",
"145 -12 OFFCURVE",
"178 20 OFFCURVE",
"178 62 CURVE SMOOTH",
"178 104 OFFCURVE",
"145 136 OFFCURVE",
"104 136 CURVE SMOOTH",
"63 136 OFFCURVE",
"30 104 OFFCURVE",
"30 62 CURVE SMOOTH"
);
}
);
width = 370;
}
);
note = exclam;
unicode = 0021;
},
{
glyphname = quotedbl;
lastChange = "2017-06-09 11:40:29 +0000";
layers = (
{
layerId = "0E02FD82-E348-46EC-A7E4-43EEF3FEB87C";
paths = (
{
closed = 1;
nodes = (
"150 616 OFFCURVE",
"152 630 OFFCURVE",
"152 642 CURVE SMOOTH",
"152 680 OFFCURVE",
"133 700 OFFCURVE",
"102 700 CURVE SMOOTH",
"71 700 OFFCURVE",
"52 680 OFFCURVE",
"52 642 CURVE SMOOTH",
"52 630 OFFCURVE",
"54 616 OFFCURVE",
"56 596 CURVE SMOOTH",
"72 428 LINE SMOOTH",
"74 402 OFFCURVE",
"87 388 OFFCURVE",
"102 388 CURVE SMOOTH",
"117 388 OFFCURVE",
"130 402 OFFCURVE",
"132 428 CURVE SMOOTH",
"148 596 LINE SMOOTH"
);
},
{
closed = 1;
nodes = (
"330 616 OFFCURVE",
"332 630 OFFCURVE",
"332 642 CURVE SMOOTH",
"332 680 OFFCURVE",
"313 700 OFFCURVE",
"282 700 CURVE SMOOTH",
"251 700 OFFCURVE",
"232 680 OFFCURVE",
"232 642 CURVE SMOOTH",
"232 630 OFFCURVE",
"234 616 OFFCURVE",
"236 596 CURVE SMOOTH",
"252 428 LINE SMOOTH",
"254 402 OFFCURVE",
"267 388 OFFCURVE",
"282 388 CURVE SMOOTH",
"297 388 OFFCURVE",
"310 402 OFFCURVE",
"312 428 CURVE SMOOTH",
"328 596 LINE SMOOTH"
);
}
);
width = 333;
}
);
note = quotedbl;
unicode = 0022;
},
{
glyphname = numbersign;
lastChange = "2017-06-09 11:40:29 +0000";
layers = (
{
layerId = "0E02FD82-E348-46EC-A7E4-43EEF3FEB87C";
paths = (
{
closed = 1;
nodes = (
"423 285 LINE",
"439 403 LINE",
"530 403 LINE",
"530 491 LINE",
"452 491 LINE",
"479 688 LINE",
"387 688 LINE",
"360 491 LINE",
"264 491 LINE",
"291 688 LINE",
"199 688 LINE",
"172 491 LINE",
"74 491 LINE",
"74 403 LINE",
"159 403 LINE",
"143 285 LINE",
"44 285 LINE",
"44 197 LINE",
"130 197 LINE",
"103 0 LINE",
"195 0 LINE",
"222 197 LINE",
"318 197 LINE",
"291 0 LINE",
"383 0 LINE",
"410 197 LINE",
"500 197 LINE",
"500 285 LINE"
);
},
{
closed = 1;
nodes = (
"331 285 LINE",
"235 285 LINE",
"251 403 LINE",
"347 403 LINE"
);
}
);
width = 574;
}
);
note = numbersign;
unicode = 0023;
},
{
glyphname = dollar;
lastChange = "2017-06-09 11:40:29 +0000";
layers = (
{
layerId = "0E02FD82-E348-46EC-A7E4-43EEF3FEB87C";
paths = (
{
closed = 1;
nodes = (
"196 -68 LINE",
"218 6 LINE",
"349 16 OFFCURVE",
"476 100 OFFCURVE",
"476 243 CURVE SMOOTH",
"476 341 OFFCURVE",
"407 395 OFFCURVE",
"332 444 CURVE",
"384 640 LINE",
"411 640 OFFCURVE",
"453 633 OFFCURVE",
"466 605 CURVE",
"442 595 OFFCURVE",
"408 586 OFFCURVE",
"408 535 CURVE SMOOTH",
"408 493 OFFCURVE",
"433 466 OFFCURVE",
"476 466 CURVE SMOOTH",
"521 466 OFFCURVE",
"546 505 OFFCURVE",
"546 548 CURVE SMOOTH",
"546 630 OFFCURVE",
"464 672 OFFCURVE",
"396 682 CURVE",
"418 766 LINE",
"372 766 LINE",
"350 684 LINE",
"243 676 OFFCURVE",
"120 601 OFFCURVE",
"120 480 CURVE SMOOTH",
"120 392 OFFCURVE",
"181 348 OFFCURVE",
"248 299 CURVE",
"184 52 LINE",
"133 52 OFFCURVE",
"68 98 OFFCURVE",
"68 125 CURVE SMOOTH",
"68 132 OFFCURVE",
"71 133 OFFCURVE",
"75 133 CURVE SMOOTH",
"80 133 OFFCURVE",
"87 130 OFFCURVE",
"92 130 CURVE SMOOTH",
"122 130 OFFCURVE",
"166 144 OFFCURVE",
"166 198 CURVE SMOOTH",
"166 236 OFFCURVE",
"138 264 OFFCURVE",
"100 264 CURVE SMOOTH",
"47 264 OFFCURVE",
"16 218 OFFCURVE",
"16 166 CURVE SMOOTH",
"16 83 OFFCURVE",
"91 15 OFFCURVE",
"173 9 CURVE",
"150 -68 LINE"
);
},
{
closed = 1;
nodes = (
"319 243 OFFCURVE",
"348 221 OFFCURVE",
"348 175 CURVE SMOOTH",
"348 112 OFFCURVE",
"291 58 OFFCURVE",
"230 54 CURVE",
"286 270 LINE"
);
},
{
closed = 1;
nodes = (
"261 488 OFFCURVE",
"248 508 OFFCURVE",
"248 545 CURVE SMOOTH",
"248 596 OFFCURVE",
"289 632 OFFCURVE",
"338 638 CURVE",
"292 469 LINE"
);
}
);
width = 574;
}
);
note = dollar;
unicode = 0024;
},
{
glyphname = percent;
lastChange = "2017-06-09 11:40:29 +0000";
layers = (
{
layerId = "0E02FD82-E348-46EC-A7E4-43EEF3FEB87C";
paths = (
{
closed = 1;
nodes = (
"118 406 OFFCURVE",
"174 678 OFFCURVE",
"262 678 CURVE SMOOTH",
"282 678 OFFCURVE",
"294 666 OFFCURVE",
"294 638 CURVE SMOOTH",
"294 594 OFFCURVE",
"238 322 OFFCURVE",
"150 322 CURVE SMOOTH",
"130 322 OFFCURVE",
"118 334 OFFCURVE",
"118 362 CURVE SMOOTH"
);
},
{
closed = 1;
nodes = (
"612 700 LINE",
"124 -12 LINE",
"184 -12 LINE",
"672 700 LINE"
);
},
{
closed = 1;
nodes = (
"504 94 OFFCURVE",
"560 366 OFFCURVE",
"648 366 CURVE SMOOTH",
"668 366 OFFCURVE",
"680 354 OFFCURVE",
"680 326 CURVE SMOOTH",
"680 282 OFFCURVE",
"624 10 OFFCURVE",
"536 10 CURVE SMOOTH",
"516 10 OFFCURVE",
"504 22 OFFCURVE",
"504 50 CURVE SMOOTH"
);
},
{
closed = 1;
nodes = (
"38 348 OFFCURVE",
"88 300 OFFCURVE",
"150 300 CURVE SMOOTH",
"270 300 OFFCURVE",
"374 438 OFFCURVE",
"374 558 CURVE SMOOTH",
"374 652 OFFCURVE",
"324 700 OFFCURVE",
"262 700 CURVE SMOOTH",
"142 700 OFFCURVE",
"38 562 OFFCURVE",
"38 442 CURVE SMOOTH"
);
},
{
closed = 1;
nodes = (
"424 36 OFFCURVE",
"474 -12 OFFCURVE",
"536 -12 CURVE SMOOTH",
"656 -12 OFFCURVE",
"760 126 OFFCURVE",
"760 246 CURVE SMOOTH",
"760 340 OFFCURVE",
"710 388 OFFCURVE",
"648 388 CURVE SMOOTH",
"528 388 OFFCURVE",
"424 250 OFFCURVE",
"424 130 CURVE SMOOTH"
);
}
);
width = 889;
}
);
note = percent;
unicode = 0025;
},
{
glyphname = ampersand;
lastChange = "2017-06-09 11:40:29 +0000";
layers = (
{
layerId = "0E02FD82-E348-46EC-A7E4-43EEF3FEB87C";
paths = (
{
closed = 1;
nodes = (
"188 248 OFFCURVE",
"218 297 OFFCURVE",
"266 330 CURVE",
"298 236 OFFCURVE",
"350 151 OFFCURVE",
"410 74 CURVE",
"383 54 OFFCURVE",
"356 40 OFFCURVE",
"322 40 CURVE SMOOTH",
"258 40 OFFCURVE",
"188 94 OFFCURVE",
"188 189 CURVE SMOOTH"
);
},
{
closed = 1;
nodes = (
"374 612 OFFCURVE",
"412 658 OFFCURVE",
"484 658 CURVE SMOOTH",
"533 658 OFFCURVE",
"556 631 OFFCURVE",
"556 584 CURVE SMOOTH",
"556 493 OFFCURVE",
"464 441 OFFCURVE",
"388 418 CURVE",
"379 448 OFFCURVE",
"374 477 OFFCURVE",
"374 507 CURVE SMOOTH"
);
},
{
closed = 1;
nodes = (
"566 334 OFFCURVE",
"583 324 OFFCURVE",
"583 290 CURVE SMOOTH",
"583 251 OFFCURVE",
"542 191 OFFCURVE",
"518 162 CURVE",
"468 226 OFFCURVE",
"431 302 OFFCURVE",
"400 380 CURVE",
"493 416 OFFCURVE",
"644 451 OFFCURVE",
"644 578 CURVE SMOOTH",
"644 658 OFFCURVE",
"562 700 OFFCURVE",
"485 700 CURVE SMOOTH",
"344 700 OFFCURVE",
"236 617 OFFCURVE",
"236 457 CURVE SMOOTH",
"236 432 OFFCURVE",
"247 396 OFFCURVE",
"252 372 CURVE",
"154 342 OFFCURVE",
"40 297 OFFCURVE",
"40 176 CURVE SMOOTH",
"40 70 OFFCURVE",
"157 -12 OFFCURVE",
"273 -12 CURVE SMOOTH",
"336 -12 OFFCURVE",
"387 2 OFFCURVE",
"441 41 CURVE",
"467 13 OFFCURVE",
"516 -6 OFFCURVE",
"554 -6 CURVE SMOOTH",
"646 -6 OFFCURVE",
"700 68 OFFCURVE",
"738 150 CURVE",
"706 172 LINE",
"670 112 OFFCURVE",
"650 82 OFFCURVE",
"613 82 CURVE SMOOTH",
"585 82 OFFCURVE",
"564 105 OFFCURVE",
"546 124 CURVE",
"578 160 OFFCURVE",
"591 193 OFFCURVE",
"627 251 CURVE SMOOTH",
"661 306 OFFCURVE",
"686 334 OFFCURVE",
"766 336 CURVE",
"776 378 LINE",
"522 378 LINE",
"512 336 LINE"
);
}
);
width = 833;
}
);
note = ampersand;
unicode = 0026;
},
{
glyphname = quoteright;
lastChange = "2017-06-09 11:40:29 +0000";
layers = (
{
layerId = "0E02FD82-E348-46EC-A7E4-43EEF3FEB87C";
paths = (
{
closed = 1;
nodes = (
"184 412 OFFCURVE",
"270 502 OFFCURVE",
"270 599 CURVE SMOOTH",
"270 666 OFFCURVE",
"234 700 OFFCURVE",
"180 700 CURVE SMOOTH",
"146 700 OFFCURVE",
"112 670 OFFCURVE",
"112 626 CURVE SMOOTH",
"112 580 OFFCURVE",
"140 556 OFFCURVE",
"200 554 CURVE",
"198 490 OFFCURVE",
"132 440 OFFCURVE",
"74 400 CURVE",
"100 366 LINE"
);
}
);
width = 278;
}
);
leftKerningGroup = quoteright;
note = quoteright;
rightKerningGroup = quoteright;
unicode = 2019;
},
{
glyphname = parenleft;
lastChange = "2017-06-09 11:40:29 +0000";
layers = (
{
layerId = "0E02FD82-E348-46EC-A7E4-43EEF3FEB87C";
paths = (
{
closed = 1;
nodes = (
"234 680 OFFCURVE",
"20 440 OFFCURVE",
"20 161 CURVE SMOOTH",
"20 -33 OFFCURVE",
"132 -168 OFFCURVE",
"278 -182 CURVE",
"284 -144 LINE",
"194 -134 OFFCURVE",
"132 -63 OFFCURVE",
"132 96 CURVE SMOOTH",
"132 345 OFFCURVE",
"276 631 OFFCURVE",
"488 658 CURVE",
"494 700 LINE"
);
}
);
width = 463;
}
);
note = parenleft;
unicode = 0028;
},
{
glyphname = parenright;
lastChange = "2017-06-09 11:40:29 +0000";
layers = (
{
layerId = "0E02FD82-E348-46EC-A7E4-43EEF3FEB87C";
paths = (
{
closed = 1;
nodes = (
"156 -162 OFFCURVE",
"370 78 OFFCURVE",
"370 357 CURVE SMOOTH",
"370 551 OFFCURVE",
"258 686 OFFCURVE",
"112 700 CURVE",
"106 662 LINE",
"196 652 OFFCURVE",
"258 581 OFFCURVE",
"258 422 CURVE SMOOTH",
"258 173 OFFCURVE",
"114 -113 OFFCURVE",
"-98 -140 CURVE",
"-104 -182 LINE"
);
}
);
width = 463;
}
);
note = parenright;
unicode = 0029;
},
{
glyphname = asterisk;
lastChange = "2017-06-09 11:40:29 +0000";
layers = (
{
layerId = "0E02FD82-E348-46EC-A7E4-43EEF3FEB87C";
paths = (
{
closed = 1;
nodes = (
"305 700 OFFCURVE",
"282 677 OFFCURVE",
"282 642 CURVE SMOOTH",
"282 602 OFFCURVE",
"306 574 OFFCURVE",
"292 516 CURVE",
"282 512 LINE",
"218 553 OFFCURVE",
"245 654 OFFCURVE",
"168 654 CURVE SMOOTH",
"136 654 OFFCURVE",
"122 628 OFFCURVE",
"122 602 CURVE SMOOTH",
"122 550 OFFCURVE",
"205 558 OFFCURVE",
"270 500 CURVE",
"268 494 LINE",
"225 469 OFFCURVE",
"182 496 OFFCURVE",
"142 496 CURVE SMOOTH",
"111 496 OFFCURVE",
"82 480 OFFCURVE",
"82 445 CURVE SMOOTH",
"82 417 OFFCURVE",
"105 394 OFFCURVE",
"133 394 CURVE SMOOTH",
"182 394 OFFCURVE",
"197 455 OFFCURVE",
"270 474 CURVE",
"276 466 LINE",
"267 391 OFFCURVE",
"202 376 OFFCURVE",
"202 320 CURVE SMOOTH",
"202 296 OFFCURVE",
"224 276 OFFCURVE",
"248 276 CURVE SMOOTH",
"281 276 OFFCURVE",
"304 299 OFFCURVE",
"304 334 CURVE SMOOTH",
"304 374 OFFCURVE",
"280 402 OFFCURVE",
"294 460 CURVE",
"304 464 LINE",
"371 420 OFFCURVE",
"337 322 OFFCURVE",
"422 322 CURVE SMOOTH",
"444 322 OFFCURVE",
"464 351 OFFCURVE",
"464 372 CURVE SMOOTH",
"464 435 OFFCURVE",
"381 418 OFFCURVE",
"316 476 CURVE",
"318 482 LINE",
"361 507 OFFCURVE",
"404 480 OFFCURVE",
"444 480 CURVE SMOOTH",
"475 480 OFFCURVE",
"504 496 OFFCURVE",
"504 531 CURVE SMOOTH",
"504 559 OFFCURVE",
"481 582 OFFCURVE",
"453 582 CURVE SMOOTH",
"404 582 OFFCURVE",
"389 521 OFFCURVE",
"316 502 CURVE",
"310 510 LINE",
"319 585 OFFCURVE",
"384 600 OFFCURVE",
"384 656 CURVE SMOOTH",
"384 680 OFFCURVE",
"362 700 OFFCURVE",
"338 700 CURVE SMOOTH"
);
}
);
width = 519;
}
);
note = asterisk;
unicode = 002A;
},
{
glyphname = plus;
lastChange = "2017-06-09 11:40:29 +0000";
layers = (
{
layerId = "0E02FD82-E348-46EC-A7E4-43EEF3FEB87C";
paths = (
{
closed = 1;
nodes = (
"65 286 LINE",
"65 184 LINE",
"249 184 LINE",
"249 0 LINE",
"351 0 LINE",
"351 184 LINE",
"535 184 LINE",
"535 286 LINE",
"351 286 LINE",
"351 470 LINE",
"249 470 LINE",
"249 286 LINE"
);
}
);
width = 600;
}
);
note = plus;
unicode = 002B;
},
{
glyphname = comma;
lastChange = "2017-06-09 11:40:29 +0000";
layers = (
{
layerId = "0E02FD82-E348-46EC-A7E4-43EEF3FEB87C";
paths = (
{
closed = 1;
nodes = (
"84 -166 OFFCURVE",
"172 -50 OFFCURVE",
"172 41 CURVE SMOOTH",
"172 108 OFFCURVE",
"130 146 OFFCURVE",
"89 146 CURVE SMOOTH",
"47 146 OFFCURVE",
"14 109 OFFCURVE",
"14 68 CURVE SMOOTH",
"14 18 OFFCURVE",
"43 -6 OFFCURVE",
"98 -6 CURVE",
"96 -96 OFFCURVE",
"5 -163 OFFCURVE",
"-30 -184 CURVE",
"0 -222 LINE"
);
}
);
width = 287;
}
);
leftKerningGroup = comma;
note = comma;
unicode = 002C;
},
{
glyphname = hyphen;
lastChange = "2017-06-09 11:40:29 +0000";
layers = (
{
layerId = "0E02FD82-E348-46EC-A7E4-43EEF3FEB87C";
paths = (
{
closed = 1;
nodes = (
"18 280 LINE",
"-2 190 LINE",
"248 190 LINE",
"268 280 LINE"
);
}
);
width = 333;
}
);
leftKerningGroup = hyphen;
note = hyphen;
unicode = 002D;
},
{
glyphname = period;
lastChange = "2017-06-09 11:40:29 +0000";
layers = (
{
layerId = "0E02FD82-E348-46EC-A7E4-43EEF3FEB87C";
paths = (
{
closed = 1;
nodes = (
"14 23 OFFCURVE",
"45 -12 OFFCURVE",
"93 -12 CURVE SMOOTH",
"141 -12 OFFCURVE",
"172 23 OFFCURVE",
"172 67 CURVE SMOOTH",
"172 111 OFFCURVE",
"141 146 OFFCURVE",
"93 146 CURVE SMOOTH",
"45 146 OFFCURVE",
"14 111 OFFCURVE",
"14 67 CURVE SMOOTH"
);
}
);
width = 287;
}
);
leftKerningGroup = period;
note = period;
unicode = 002E;
},
{
glyphname = slash;
lastChange = "2017-06-09 11:40:29 +0000";
layers = (
{
layerId = "0E02FD82-E348-46EC-A7E4-43EEF3FEB87C";
paths = (
{
closed = 1;
nodes = (
"416 700 LINE",
"296 700 LINE",
"-138 -12 LINE",
"-18 -12 LINE"
);
}
);
width = 278;
}
);
note = slash;
unicode = 002F;
},
{
glyphname = zero;
lastChange = "2017-06-09 11:40:29 +0000";
layers = (
{
layerId = "0E02FD82-E348-46EC-A7E4-43EEF3FEB87C";
paths = (
{
closed = 1;
nodes = (
"22 76 OFFCURVE",
"96 -12 OFFCURVE",
"198 -12 CURVE SMOOTH",
"392 -12 OFFCURVE",
"540 256 OFFCURVE",
"540 448 CURVE SMOOTH",
"540 612 OFFCURVE",
"466 700 OFFCURVE",
"364 700 CURVE SMOOTH",
"170 700 OFFCURVE",
"22 432 OFFCURVE",
"22 240 CURVE SMOOTH"
);
},
{
closed = 1;
nodes = (
"418 467 OFFCURVE",
"319 30 OFFCURVE",
"196 30 CURVE SMOOTH",
"165 30 OFFCURVE",
"144 52 OFFCURVE",
"144 106 CURVE SMOOTH",
"144 221 OFFCURVE",
"243 658 OFFCURVE",
"366 658 CURVE SMOOTH",
"397 658 OFFCURVE",
"418 636 OFFCURVE",
"418 582 CURVE SMOOTH"
);
}
);
width = 574;
}
);
note = zero;
unicode = 0030;
},
{
glyphname = one;
lastChange = "2017-06-09 11:40:29 +0000";
layers = (
{
layerId = "0E02FD82-E348-46EC-A7E4-43EEF3FEB87C";
paths = (
{
closed = 1;
nodes = (
"402 42 LINE",
"317 44 OFFCURVE",
"300 58 OFFCURVE",
"300 87 CURVE SMOOTH",
"300 114 OFFCURVE",
"440 613 OFFCURVE",
"460 688 CURVE",
"408 688 LINE",
"338 654 OFFCURVE",
"256 632 OFFCURVE",
"166 626 CURVE",
"156 586 LINE",
"278 582 LINE",
"152 117 LINE SMOOTH",
"141 77 OFFCURVE",
"106 44 OFFCURVE",
"-4 42 CURVE",
"-14 0 LINE",
"392 0 LINE"
);
}
);
width = 574;
}
);
note = one;
unicode = 0031;
},
{
glyphname = two;
lastChange = "2017-06-09 11:40:29 +0000";
layers = (
{
layerId = "0E02FD82-E348-46EC-A7E4-43EEF3FEB87C";
paths = (
{
closed = 1;
nodes = (
"264 535 OFFCURVE",
"225 458 OFFCURVE",
"174 458 CURVE SMOOTH",
"151 458 OFFCURVE",
"132 478 OFFCURVE",
"132 501 CURVE SMOOTH",
"132 560 OFFCURVE",
"204 648 OFFCURVE",
"298 648 CURVE SMOOTH",
"356 648 OFFCURVE",
"388 622 OFFCURVE",
"388 546 CURVE SMOOTH",
"388 334 OFFCURVE",
"-32 232 OFFCURVE",
"-32 41 CURVE SMOOTH",
"-32 10 OFFCURVE",
"-16 -6 OFFCURVE",
"5 -6 CURVE SMOOTH",
"32 -6 OFFCURVE",
"46 14 OFFCURVE",
"46 51 CURVE SMOOTH",
"46 65 OFFCURVE",
"44 78 OFFCURVE",
"44 92 CURVE SMOOTH",
"44 99 OFFCURVE",
"46 102 OFFCURVE",
"58 102 CURVE SMOOTH",
"122 102 OFFCURVE",
"140 -12 OFFCURVE",
"270 -12 CURVE SMOOTH",
"366 -12 OFFCURVE",
"422 58 OFFCURVE",
"480 250 CURVE",
"446 268 LINE",
"417 195 OFFCURVE",
"386 142 OFFCURVE",
"297 142 CURVE SMOOTH",
"254 142 OFFCURVE",
"215 166 OFFCURVE",
"156 166 CURVE SMOOTH",
"130 166 OFFCURVE",
"107 159 OFFCURVE",
"82 154 CURVE",
"80 156 LINE",
"276 338 OFFCURVE",
"542 326 OFFCURVE",
"542 531 CURVE SMOOTH",
"542 634 OFFCURVE",
"450 700 OFFCURVE",
"332 700 CURVE SMOOTH",
"200 700 OFFCURVE",
"90 604 OFFCURVE",
"90 497 CURVE SMOOTH",
"90 444 OFFCURVE",
"136 410 OFFCURVE",
"171 410 CURVE SMOOTH",
"246 410 OFFCURVE",
"290 493 OFFCURVE",
"319 550 CURVE",
"284 571 LINE"
);
}
);
width = 574;
}
);
note = two;
unicode = 0032;
},
{
glyphname = three;
lastChange = "2017-06-09 11:40:29 +0000";
layers = (
{
layerId = "0E02FD82-E348-46EC-A7E4-43EEF3FEB87C";
paths = (
{
closed = 1;
nodes = (
"243 501 OFFCURVE",
"218 462 OFFCURVE",
"166 462 CURVE SMOOTH",
"146 462 OFFCURVE",
"132 477 OFFCURVE",
"132 502 CURVE SMOOTH",
"132 574 OFFCURVE",
"227 652 OFFCURVE",
"301 652 CURVE SMOOTH",
"360 652 OFFCURVE",
"398 625 OFFCURVE",
"398 559 CURVE SMOOTH",
"398 466 OFFCURVE",
"316 374 OFFCURVE",
"258 374 CURVE SMOOTH",
"240 374 OFFCURVE",
"222 380 OFFCURVE",
"204 380 CURVE SMOOTH",
"180 380 OFFCURVE",
"148 375 OFFCURVE",
"148 345 CURVE SMOOTH",
"148 331 OFFCURVE",
"169 318 OFFCURVE",
"194 318 CURVE SMOOTH",
"220 318 OFFCURVE",
"240 328 OFFCURVE",
"268 328 CURVE SMOOTH",
"305 328 OFFCURVE",
"326 299 OFFCURVE",
"326 241 CURVE SMOOTH",
"326 152 OFFCURVE",
"252 36 OFFCURVE",
"143 36 CURVE SMOOTH",
"92 36 OFFCURVE",
"36 64 OFFCURVE",
"34 124 CURVE",
"47 111 OFFCURVE",
"65 102 OFFCURVE",
"83 102 CURVE SMOOTH",
"125 102 OFFCURVE",
"154 134 OFFCURVE",
"154 176 CURVE SMOOTH",
"154 219 OFFCURVE",
"122 250 OFFCURVE",
"80 250 CURVE SMOOTH",
"30 250 OFFCURVE",
"-18 210 OFFCURVE",
"-18 130 CURVE SMOOTH",
"-18 46 OFFCURVE",
"58 -12 OFFCURVE",
"176 -12 CURVE SMOOTH",
"340 -12 OFFCURVE",
"480 106 OFFCURVE",
"480 219 CURVE SMOOTH",
"480 304 OFFCURVE",
"424 335 OFFCURVE",
"351 356 CURVE",
"351 358 LINE",
"440 379 OFFCURVE",
"546 441 OFFCURVE",
"546 544 CURVE SMOOTH",
"546 618 OFFCURVE",
"476 700 OFFCURVE",
"330 700 CURVE SMOOTH",
"170 700 OFFCURVE",
"84 580 OFFCURVE",
"84 499 CURVE SMOOTH",
"84 444 OFFCURVE",
"118 414 OFFCURVE",
"162 414 CURVE SMOOTH",
"222 414 OFFCURVE",
"276 458 OFFCURVE",
"316 553 CURVE",
"285 575 LINE"
);
}
);
width = 574;
}
);
note = three;
unicode = 0033;
},
{
glyphname = four;
lastChange = "2017-06-09 11:40:29 +0000";
layers = (
{
layerId = "0E02FD82-E348-46EC-A7E4-43EEF3FEB87C";
paths = (
{
closed = 1;
nodes = (
"207 532 OFFCURVE",
"171 374 OFFCURVE",
"80 244 CURVE",
"67 245 OFFCURVE",
"54 248 OFFCURVE",
"37 248 CURVE SMOOTH",
"14 248 OFFCURVE",
"-8 236 OFFCURVE",
"-8 214 CURVE SMOOTH",
"-8 194 OFFCURVE",
"6 184 OFFCURVE",
"26 184 CURVE SMOOTH",
"46 184 OFFCURVE",
"69 200 OFFCURVE",
"96 200 CURVE SMOOTH",
"127 200 OFFCURVE",
"199 132 OFFCURVE",
"262 112 CURVE",
"210 -90 LINE",
"344 -90 LINE",
"398 112 LINE",
"446 129 OFFCURVE",
"487 163 OFFCURVE",
"522 202 CURVE",
"500 226 LINE",
"473 203 OFFCURVE",
"445 182 OFFCURVE",
"412 170 CURVE",
"500 510 LINE",
"366 510 LINE",
"280 182 LINE",
"240 196 OFFCURVE",
"192 222 OFFCURVE",
"132 230 CURVE",
"232 328 OFFCURVE",
"341 511 OFFCURVE",
"374 688 CURVE",
"220 688 LINE"
);
}
);
width = 574;
}
);
note = four;
unicode = 0034;
},
{
glyphname = five;
lastChange = "2017-06-09 11:40:29 +0000";
layers = (
{
layerId = "0E02FD82-E348-46EC-A7E4-43EEF3FEB87C";
paths = (
{
closed = 1;
nodes = (
"144 364 OFFCURVE",
"188 394 OFFCURVE",
"235 394 CURVE SMOOTH",
"303 394 OFFCURVE",
"328 346 OFFCURVE",
"328 277 CURVE SMOOTH",
"328 164 OFFCURVE",
"259 30 OFFCURVE",
"149 30 CURVE SMOOTH",
"82 30 OFFCURVE",
"48 71 OFFCURVE",
"48 96 CURVE SMOOTH",
"48 109 OFFCURVE",
"51 114 OFFCURVE",
"56 114 CURVE SMOOTH",
"60 114 OFFCURVE",
"66 100 OFFCURVE",
"95 100 CURVE SMOOTH",
"136 100 OFFCURVE",
"164 127 OFFCURVE",
"164 162 CURVE SMOOTH",
"164 205 OFFCURVE",
"136 234 OFFCURVE",
"94 234 CURVE SMOOTH",
"42 234 OFFCURVE",
"0 192 OFFCURVE",
"0 132 CURVE SMOOTH",
"0 40 OFFCURVE",
"68 -12 OFFCURVE",
"164 -12 CURVE SMOOTH",
"328 -12 OFFCURVE",
"482 106 OFFCURVE",
"482 266 CURVE SMOOTH",
"482 356 OFFCURVE",
"394 446 OFFCURVE",
"281 446 CURVE SMOOTH",
"206 446 OFFCURVE",
"172 422 OFFCURVE",
"152 402 CURVE",
"150 404 LINE",
"194 544 LINE",
"230 539 OFFCURVE",
"266 534 OFFCURVE",
"302 534 CURVE SMOOTH",
"414 534 OFFCURVE",
"500 582 OFFCURVE",
"578 676 CURVE",
"554 700 LINE",
"502 668 OFFCURVE",
"442 660 OFFCURVE",
"364 660 CURVE SMOOTH",
"294 660 OFFCURVE",
"265 672 OFFCURVE",
"192 688 CURVE",
"82 336 LINE",
"118 324 LINE"
);
}
);
width = 574;
}
);
note = five;
unicode = 0035;
},
{
glyphname = six;
lastChange = "2017-06-09 11:40:29 +0000";
layers = (
{
layerId = "0E02FD82-E348-46EC-A7E4-43EEF3FEB87C";
paths = (
{
closed = 1;
nodes = (
"36 72 OFFCURVE",
"132 -12 OFFCURVE",
"226 -12 CURVE SMOOTH",
"374 -12 OFFCURVE",
"496 116 OFFCURVE",
"496 250 CURVE SMOOTH",
"496 370 OFFCURVE",
"412 438 OFFCURVE",
"338 438 CURVE SMOOTH",
"278 438 OFFCURVE",
"253 420 OFFCURVE",
"223 390 CURVE",
"221 392 LINE",
"250 508 OFFCURVE",
"294 658 OFFCURVE",
"410 658 CURVE SMOOTH",
"442 658 OFFCURVE",
"464 650 OFFCURVE",
"464 644 CURVE SMOOTH",
"464 641 OFFCURVE",
"400 638 OFFCURVE",
"400 568 CURVE SMOOTH",
"400 526 OFFCURVE",
"430 500 OFFCURVE",
"474 500 CURVE SMOOTH",
"508 500 OFFCURVE",
"548 534 OFFCURVE",
"548 592 CURVE SMOOTH",
"548 648 OFFCURVE",
"504 700 OFFCURVE",
"416 700 CURVE SMOOTH",
"217 700 OFFCURVE",
"36 480 OFFCURVE",
"36 225 CURVE SMOOTH"
);
},
{
closed = 1;
nodes = (
"346 390 OFFCURVE",
"358 364 OFFCURVE",
"358 327 CURVE SMOOTH",
"358 255 OFFCURVE",
"308 26 OFFCURVE",
"222 26 CURVE SMOOTH",
"190 26 OFFCURVE",
"164 42 OFFCURVE",
"164 107 CURVE SMOOTH",
"164 218 OFFCURVE",
"223 390 OFFCURVE",
"305 390 CURVE SMOOTH"
);
}
);
width = 574;
}
);
note = six;
unicode = 0036;
},
{
glyphname = seven;
lastChange = "2017-06-09 11:40:29 +0000";
layers = (
{
layerId = "0E02FD82-E348-46EC-A7E4-43EEF3FEB87C";
paths = (
{
closed = 1;
nodes = (
"158 546 OFFCURVE",
"198 566 OFFCURVE",
"257 566 CURVE SMOOTH",
"292 566 OFFCURVE",
"308 552 OFFCURVE",
"377 552 CURVE SMOOTH",
"428 552 OFFCURVE",
"471 565 OFFCURVE",
"512 596 CURVE",
"514 594 LINE",
"444 504 OFFCURVE",
"122 284 OFFCURVE",
"122 82 CURVE SMOOTH",
"122 18 OFFCURVE",
"146 -12 OFFCURVE",
"198 -12 CURVE SMOOTH",
"252 -12 OFFCURVE",
"276 20 OFFCURVE",
"276 148 CURVE SMOOTH",
"276 338 OFFCURVE",
"594 594 OFFCURVE",
"594 666 CURVE SMOOTH",
"594 688 OFFCURVE",
"584 700 OFFCURVE",
"560 700 CURVE SMOOTH",
"534 700 OFFCURVE",
"530 680 OFFCURVE",
"530 667 CURVE SMOOTH",
"530 644 OFFCURVE",
"526 634 OFFCURVE",
"515 634 CURVE SMOOTH",
"482 634 OFFCURVE",
"424 700 OFFCURVE",
"342 700 CURVE SMOOTH",
"266 700 OFFCURVE",
"219 651 OFFCURVE",
"166 588 CURVE",
"164 590 LINE",
"194 688 LINE",
"154 688 LINE",
"74 420 LINE",
"112 410 LINE"
);
}
);
width = 574;
}
);
note = seven;
unicode = 0037;
},
{
glyphname = eight;
lastChange = "2017-06-09 11:40:29 +0000";
layers = (
{
layerId = "0E02FD82-E348-46EC-A7E4-43EEF3FEB87C";
paths = (
{
closed = 1;
nodes = (
"10 40 OFFCURVE",
"115 -12 OFFCURVE",
"225 -12 CURVE SMOOTH",
"352 -12 OFFCURVE",
"492 62 OFFCURVE",
"492 211 CURVE SMOOTH",
"492 298 OFFCURVE",
"426 348 OFFCURVE",
"388 380 CURVE",
"388 382 LINE",
"462 405 OFFCURVE",
"544 444 OFFCURVE",
"544 535 CURVE SMOOTH",
"544 624 OFFCURVE",
"480 700 OFFCURVE",
"342 700 CURVE SMOOTH",
"206 700 OFFCURVE",
"100 616 OFFCURVE",
"100 490 CURVE SMOOTH",
"100 428 OFFCURVE",
"140 370 OFFCURVE",
"190 340 CURVE",
"106 314 OFFCURVE",
"10 266 OFFCURVE",
"10 161 CURVE SMOOTH"
);
},
{
closed = 1;
nodes = (
"108 232 OFFCURVE",
"159 280 OFFCURVE",
"230 312 CURVE",
"271 277 OFFCURVE",
"358 222 OFFCURVE",
"358 159 CURVE SMOOTH",
"358 78 OFFCURVE",
"302 30 OFFCURVE",
"223 30 CURVE SMOOTH",
"150 30 OFFCURVE",
"108 81 OFFCURVE",
"108 151 CURVE SMOOTH"
);
},
{
closed = 1;
nodes = (
"228 620 OFFCURVE",
"278 658 OFFCURVE",
"342 658 CURVE SMOOTH",
"424 658 OFFCURVE",
"458 614 OFFCURVE",
"458 546 CURVE SMOOTH",
"458 473 OFFCURVE",
"410 436 OFFCURVE",
"348 408 CURVE",
"298 446 OFFCURVE",
"228 472 OFFCURVE",
"228 555 CURVE SMOOTH"
);
}
);
width = 574;
}
);
note = eight;
unicode = 0038;
},
{
glyphname = nine;
lastChange = "2017-06-09 11:40:29 +0000";
layers = (
{
layerId = "0E02FD82-E348-46EC-A7E4-43EEF3FEB87C";
paths = (
{
closed = 1;
nodes = (
"214 448 OFFCURVE",
"258 662 OFFCURVE",
"351 662 CURVE SMOOTH",
"381 662 OFFCURVE",
"398 643 OFFCURVE",
"398 606 CURVE SMOOTH",
"398 472 OFFCURVE",
"356 308 OFFCURVE",
"264 308 CURVE SMOOTH",
"234 308 OFFCURVE",
"214 328 OFFCURVE",
"214 380 CURVE SMOOTH"
);
},
{
closed = 1;
nodes = (
"34 210 OFFCURVE",
"0 174 OFFCURVE",
"0 119 CURVE SMOOTH",
"0 40 OFFCURVE",
"72 -12 OFFCURVE",
"158 -12 CURVE SMOOTH",
"354 -12 OFFCURVE",
"532 203 OFFCURVE",
"532 476 CURVE SMOOTH",
"532 612 OFFCURVE",
"458 700 OFFCURVE",
"336 700 CURVE SMOOTH",
"206 700 OFFCURVE",
"70 583 OFFCURVE",
"70 437 CURVE SMOOTH",
"70 342 OFFCURVE",
"123 256 OFFCURVE",
"226 256 CURVE SMOOTH",
"271 256 OFFCURVE",
"308 276 OFFCURVE",
"342 298 CURVE",
"344 296 LINE",
"290 95 OFFCURVE",
"238 30 OFFCURVE",
"144 30 CURVE SMOOTH",
"112 30 OFFCURVE",
"68 51 OFFCURVE",
"67 71 CURVE",
"72 69 OFFCURVE",
"76 69 OFFCURVE",
"81 69 CURVE SMOOTH",
"110 69 OFFCURVE",
"154 89 OFFCURVE",
"154 139 CURVE SMOOTH",
"154 178 OFFCURVE",
"130 210 OFFCURVE",
"83 210 CURVE SMOOTH"
);
}
);
width = 574;
}
);
note = nine;
unicode = 0039;
},
{
glyphname = colon;
lastChange = "2017-06-09 11:40:29 +0000";
layers = (
{
layerId = "0E02FD82-E348-46EC-A7E4-43EEF3FEB87C";
paths = (
{
closed = 1;
nodes = (
"14 23 OFFCURVE",
"45 -12 OFFCURVE",
"93 -12 CURVE SMOOTH",
"141 -12 OFFCURVE",
"172 23 OFFCURVE",
"172 67 CURVE SMOOTH",
"172 111 OFFCURVE",
"141 146 OFFCURVE",
"93 146 CURVE SMOOTH",
"45 146 OFFCURVE",
"14 111 OFFCURVE",
"14 67 CURVE SMOOTH"
);
},
{
closed = 1;
nodes = (
"90 327 OFFCURVE",
"121 292 OFFCURVE",
"169 292 CURVE SMOOTH",
"217 292 OFFCURVE",
"248 327 OFFCURVE",
"248 371 CURVE SMOOTH",
"248 415 OFFCURVE",
"217 450 OFFCURVE",
"169 450 CURVE SMOOTH",
"121 450 OFFCURVE",
"90 415 OFFCURVE",
"90 371 CURVE SMOOTH"
);
}
);
width = 287;
}
);
leftKerningGroup = colon;
note = colon;
unicode = 003A;
},
{
glyphname = semicolon;
lastChange = "2017-06-09 11:40:29 +0000";
layers = (
{
layerId = "0E02FD82-E348-46EC-A7E4-43EEF3FEB87C";
paths = (
{
closed = 1;
nodes = (
"84 -166 OFFCURVE",
"172 -50 OFFCURVE",
"172 41 CURVE SMOOTH",
"172 108 OFFCURVE",
"130 146 OFFCURVE",
"89 146 CURVE SMOOTH",
"47 146 OFFCURVE",
"14 109 OFFCURVE",
"14 68 CURVE SMOOTH",
"14 18 OFFCURVE",
"43 -6 OFFCURVE",
"98 -6 CURVE",
"96 -96 OFFCURVE",
"5 -163 OFFCURVE",
"-30 -184 CURVE",
"0 -222 LINE"
);
},
{
closed = 1;
nodes = (
"90 327 OFFCURVE",
"121 292 OFFCURVE",
"169 292 CURVE SMOOTH",
"217 292 OFFCURVE",
"248 327 OFFCURVE",
"248 371 CURVE SMOOTH",
"248 415 OFFCURVE",
"217 450 OFFCURVE",
"169 450 CURVE SMOOTH",
"121 450 OFFCURVE",
"90 415 OFFCURVE",
"90 371 CURVE SMOOTH"
);
}
);
width = 287;
}
);
leftKerningGroup = semicolon;
note = semicolon;
unicode = 003B;
},
{
glyphname = less;
lastChange = "2017-06-09 11:40:29 +0000";
layers = (
{
layerId = "0E02FD82-E348-46EC-A7E4-43EEF3FEB87C";
paths = (
{
closed = 1;
nodes = (
"199 235 LINE",
"535 376 LINE",
"535 478 LINE",
"65 278 LINE",
"65 192 LINE",
"535 -8 LINE",
"535 94 LINE"
);
}
);
width = 600;
}
);
note = less;
unicode = 003C;
},
{
glyphname = equal;
lastChange = "2017-06-09 11:40:29 +0000";
layers = (
{
layerId = "0E02FD82-E348-46EC-A7E4-43EEF3FEB87C";
paths = (
{
closed = 1;
nodes = (
"65 386 LINE",
"65 284 LINE",
"535 284 LINE",
"535 386 LINE"
);
},
{
closed = 1;
nodes = (
"65 186 LINE",
"65 84 LINE",
"535 84 LINE",
"535 186 LINE"
);
}
);
width = 600;
}
);
note = equal;
unicode = 003D;
},
{
glyphname = greater;
lastChange = "2017-06-09 11:40:29 +0000";
layers = (
{
layerId = "0E02FD82-E348-46EC-A7E4-43EEF3FEB87C";
paths = (
{
closed = 1;
nodes = (
"401 235 LINE",
"65 94 LINE",
"65 -8 LINE",
"535 192 LINE",
"535 278 LINE",
"65 478 LINE",
"65 376 LINE"
);
}
);
width = 600;
}
);
note = greater;
unicode = 003E;
},
{
glyphname = question;
lastChange = "2017-06-09 11:40:29 +0000";
layers = (
{
layerId = "0E02FD82-E348-46EC-A7E4-43EEF3FEB87C";
paths = (
{
closed = 1;
nodes = (
"258 260 OFFCURVE",
"233 222 OFFCURVE",
"204 222 CURVE SMOOTH",
"176 222 OFFCURVE",
"164 243 OFFCURVE",
"164 264 CURVE SMOOTH",
"164 404 OFFCURVE",
"502 316 OFFCURVE",
"502 532 CURVE SMOOTH",
"502 632 OFFCURVE",
"399 700 OFFCURVE",
"288 700 CURVE SMOOTH",
"181 700 OFFCURVE",
"94 630 OFFCURVE",
"94 537 CURVE SMOOTH",
"94 504 OFFCURVE",
"100 471 OFFCURVE",
"122 445 CURVE",
"162 468 LINE",
"149 489 OFFCURVE",
"142 506 OFFCURVE",
"142 528 CURVE SMOOTH",
"142 596 OFFCURVE",
"194 648 OFFCURVE",
"258 648 CURVE SMOOTH",
"310 648 OFFCURVE",
"354 611 OFFCURVE",
"354 555 CURVE SMOOTH",
"354 352 OFFCURVE",
"116 424 OFFCURVE",
"116 264 CURVE SMOOTH",
"116 206 OFFCURVE",
"156 174 OFFCURVE",
"194 174 CURVE SMOOTH",
"242 174 OFFCURVE",
"290 212 OFFCURVE",
"306 257 CURVE",
"271 281 LINE"
);
},
{
closed = 1;
nodes = (
"74 23 OFFCURVE",
"105 -12 OFFCURVE",
"153 -12 CURVE SMOOTH",
"201 -12 OFFCURVE",
"232 23 OFFCURVE",
"232 67 CURVE SMOOTH",
"232 111 OFFCURVE",
"201 146 OFFCURVE",
"153 146 CURVE SMOOTH",
"105 146 OFFCURVE",
"74 111 OFFCURVE",
"74 67 CURVE SMOOTH"
);
}
);
width = 519;
}
);
note = question;
unicode = 003F;
},
{
glyphname = at;
lastChange = "2017-06-09 11:40:29 +0000";
layers = (
{
layerId = "0E02FD82-E348-46EC-A7E4-43EEF3FEB87C";
paths = (
{
closed = 1;
nodes = (
"504 324 OFFCURVE",
"456 212 OFFCURVE",
"397 212 CURVE SMOOTH",
"368 212 OFFCURVE",
"348 233 OFFCURVE",
"348 285 CURVE SMOOTH",
"348 390 OFFCURVE",
"410 470 OFFCURVE",
"460 470 CURVE SMOOTH",
"486 470 OFFCURVE",
"504 456 OFFCURVE",
"504 410 CURVE SMOOTH"
);
},
{
closed = 1;
nodes = (
"511 516 OFFCURVE",
"488 532 OFFCURVE",
"450 532 CURVE SMOOTH",
"319 532 OFFCURVE",
"254 366 OFFCURVE",
"254 277 CURVE SMOOTH",
"254 188 OFFCURVE",
"300 150 OFFCURVE",
"353 150 CURVE SMOOTH",
"415 150 OFFCURVE",
"464 208 OFFCURVE",
"471 225 CURVE",
"473 225 LINE",
"474 202 OFFCURVE",
"503 150 OFFCURVE",
"566 150 CURVE SMOOTH",
"689 150 OFFCURVE",
"758 291 OFFCURVE",
"758 396 CURVE SMOOTH",
"758 570 OFFCURVE",
"610 700 OFFCURVE",
"419 700 CURVE SMOOTH",
"215 700 OFFCURVE",
"42 551 OFFCURVE",
"42 328 CURVE SMOOTH",
"42 190 OFFCURVE",
"160 -12 OFFCURVE",
"430 -12 CURVE SMOOTH",
"510 -12 OFFCURVE",
"580 17 OFFCURVE",
"643 52 CURVE",
"633 112 LINE",
"574 82 OFFCURVE",
"520 62 OFFCURVE",
"429 62 CURVE SMOOTH",
"294 62 OFFCURVE",
"164 170 OFFCURVE",
"164 318 CURVE SMOOTH",
"164 546 OFFCURVE",
"307 626 OFFCURVE",
"419 626 CURVE SMOOTH",
"582 626 OFFCURVE",
"682 507 OFFCURVE",
"682 395 CURVE SMOOTH",
"682 311 OFFCURVE",
"630 198 OFFCURVE",
"582 198 CURVE SMOOTH",
"559 198 OFFCURVE",
"553 217 OFFCURVE",
"553 238 CURVE SMOOTH",
"553 251 OFFCURVE",
"555 264 OFFCURVE",
"559 280 CURVE SMOOTH",
"617 516 LINE",
"538 516 LINE",
"528 482 LINE"
);
}
);
width = 800;
}
);
note = at;
unicode = 0040;
},
{
glyphname = A;
lastChange = "2017-06-09 11:40:29 +0000";
layers = (
{
layerId = "0E02FD82-E348-46EC-A7E4-43EEF3FEB87C";
paths = (
{
closed = 1;
nodes = (
"166 42 LINE",
"88 42 OFFCURVE",
"76 49 OFFCURVE",
"76 71 CURVE SMOOTH",
"76 89 OFFCURVE",
"94 115 OFFCURVE",
"103 128 CURVE SMOOTH",
"168 224 LINE",
"382 224 LINE",
"385 188 LINE SMOOTH",
"388 155 OFFCURVE",
"396 121 OFFCURVE",
"396 87 CURVE SMOOTH",
"396 62 OFFCURVE",
"372 40 OFFCURVE",
"302 42 CURVE",
"292 0 LINE",
"626 0 LINE",
"636 42 LINE",
"574 44 OFFCURVE",
"561 56 OFFCURVE",
"556 94 CURVE SMOOTH",
"474 694 LINE",
"422 694 LINE",
"60 154 LINE SMOOTH",
"13 83 OFFCURVE",
"-4 52 OFFCURVE",
"-90 42 CURVE",
"-100 0 LINE",
"156 0 LINE"
);
},
{
closed = 1;
nodes = (
"374 276 LINE",
"202 276 LINE",
"346 486 LINE"
);
}
);
width = 704;
}
);
leftKerningGroup = A;
note = A;
rightKerningGroup = A;
unicode = 0041;
},
{
glyphname = B;
lastChange = "2017-06-09 11:40:29 +0000";
layers = (
{
layerId = "0E02FD82-E348-46EC-A7E4-43EEF3FEB87C";
paths = (
{
closed = 1;
nodes = (
"184 645 OFFCURVE",
"195 631 OFFCURVE",
"195 607 CURVE SMOOTH",
"195 595 OFFCURVE",
"186 571 OFFCURVE",
"181 551 CURVE SMOOTH",
"57 94 LINE SMOOTH",
"48 59 OFFCURVE",
"22 44 OFFCURVE",
"-54 42 CURVE",
"-64 0 LINE",
"370 0 LINE SMOOTH",
"544 0 OFFCURVE",
"650 86 OFFCURVE",
"650 203 CURVE SMOOTH",
"650 278 OFFCURVE",
"596 348 OFFCURVE",
"470 364 CURVE",
"470 366 LINE",
"608 374 OFFCURVE",
"698 436 OFFCURVE",
"698 537 CURVE SMOOTH",
"698 632 OFFCURVE",
"612 688 OFFCURVE",
"468 688 CURVE SMOOTH",
"124 688 LINE",
"114 646 LINE"
);
},
{
closed = 1;
nodes = (
"438 340 OFFCURVE",
"474 304 OFFCURVE",
"474 229 CURVE SMOOTH",
"474 102 OFFCURVE",
"388 38 OFFCURVE",
"287 38 CURVE SMOOTH",
"240 38 OFFCURVE",
"224 58 OFFCURVE",
"224 89 CURVE SMOOTH",
"224 117 OFFCURVE",
"231 137 OFFCURVE",
"237 158 CURVE SMOOTH",
"288 340 LINE",
"356 340 LINE SMOOTH"
);
},
{
closed = 1;
nodes = (
"350 574 LINE SMOOTH",
"363 622 OFFCURVE",
"390 646 OFFCURVE",
"441 646 CURVE SMOOTH",
"498 646 OFFCURVE",
"530 618 OFFCURVE",
"530 558 CURVE SMOOTH",
"530 460 OFFCURVE",
"460 382 OFFCURVE",
"366 382 CURVE SMOOTH",
"299 382 LINE"
);
}
);
width = 741;
}
);
note = B;
unicode = 0042;
},
{
glyphname = C;
lastChange = "2017-06-09 11:40:29 +0000";
layers = (
{
layerId = "0E02FD82-E348-46EC-A7E4-43EEF3FEB87C";
paths = (
{
closed = 1;
nodes = (
"680 670 OFFCURVE",
"675 654 OFFCURVE",
"652 654 CURVE SMOOTH",
"629 654 OFFCURVE",
"586 700 OFFCURVE",
"488 700 CURVE SMOOTH",
"266 700 OFFCURVE",
"36 504 OFFCURVE",
"36 270 CURVE SMOOTH",
"36 126 OFFCURVE",
"144 -12 OFFCURVE",
"334 -12 CURVE SMOOTH",
"500 -12 OFFCURVE",
"598 101 OFFCURVE",
"650 272 CURVE",
"602 272 LINE",
"570 156 OFFCURVE",
"476 30 OFFCURVE",
"338 30 CURVE SMOOTH",
"262 30 OFFCURVE",
"200 82 OFFCURVE",
"200 188 CURVE SMOOTH",
"200 368 OFFCURVE",
"306 658 OFFCURVE",
"490 658 CURVE SMOOTH",
"600 658 OFFCURVE",
"634 590 OFFCURVE",
"634 492 CURVE SMOOTH",
"634 475 OFFCURVE",
"630 456 OFFCURVE",
"628 438 CURVE",
"674 438 LINE",
"734 682 LINE",
"688 682 LINE"
);
}
);
width = 741;
}
);
note = C;
unicode = 0043;
},
{
glyphname = D;
lastChange = "2017-06-09 11:40:29 +0000";
layers = (
{
layerId = "0E02FD82-E348-46EC-A7E4-43EEF3FEB87C";
paths = (
{
closed = 1;
nodes = (
"182 644 OFFCURVE",
"196 632 OFFCURVE",
"196 608 CURVE SMOOTH",
"196 586 OFFCURVE",
"172 539 OFFCURVE",
"68 123 CURVE SMOOTH",
"59 87 LINE SMOOTH",
"51 56 OFFCURVE",
"26 44 OFFCURVE",
"-48 42 CURVE",
"-58 0 LINE",
"332 0 LINE SMOOTH",
"552 0 OFFCURVE",
"754 176 OFFCURVE",
"754 406 CURVE SMOOTH",
"754 552 OFFCURVE",
"646 688 OFFCURVE",
"446 688 CURVE SMOOTH",
"124 688 LINE",
"114 646 LINE"
);
},
{
closed = 1;
nodes = (
"366 623 OFFCURVE",
"381 646 OFFCURVE",
"451 646 CURVE SMOOTH",
"524 646 OFFCURVE",
"584 602 OFFCURVE",
"584 473 CURVE SMOOTH",
"584 310 OFFCURVE",
"496 42 OFFCURVE",
"304 42 CURVE SMOOTH",
"240 42 OFFCURVE",
"228 64 OFFCURVE",
"228 90 CURVE SMOOTH",
"228 107 OFFCURVE",
"233 122 OFFCURVE",
"242 157 CURVE SMOOTH",
"355 583 LINE SMOOTH"
);
}
);
width = 796;
}
);
note = D;
unicode = 0044;
},
{
glyphname = E;
lastChange = "2017-06-09 11:40:29 +0000";
layers = (
{
layerId = "0E02FD82-E348-46EC-A7E4-43EEF3FEB87C";
paths = (
{
closed = 1;
nodes = (
"590 264 LINE",
"553 128 OFFCURVE",
"454 42 OFFCURVE",
"310 42 CURVE SMOOTH",
"236 42 OFFCURVE",
"224 58 OFFCURVE",
"224 89 CURVE SMOOTH",
"224 119 OFFCURVE",
"235 151 OFFCURVE",
"244 183 CURVE SMOOTH",
"288 342 LINE",
"385 340 OFFCURVE",
"400 315 OFFCURVE",
"402 222 CURVE",
"440 222 LINE",
"516 504 LINE",
"468 504 LINE",
"438 412 OFFCURVE",
"398 386 OFFCURVE",
"298 384 CURVE",
"348 578 LINE SMOOTH",
"362 632 OFFCURVE",
"384 646 OFFCURVE",
"472 646 CURVE SMOOTH",
"576 646 OFFCURVE",
"626 604 OFFCURVE",
"626 499 CURVE SMOOTH",
"626 478 OFFCURVE",
"625 457 OFFCURVE",
"622 436 CURVE",
"664 436 LINE",
"728 688 LINE",
"124 688 LINE",
"114 646 LINE",
"182 644 OFFCURVE",
"192 630 OFFCURVE",
"192 605 CURVE SMOOTH",
"192 587 OFFCURVE",
"181 541 OFFCURVE",
"171 506 CURVE SMOOTH",
"62 104 LINE SMOOTH",
"49 56 OFFCURVE",
"30 44 OFFCURVE",
"-48 42 CURVE",
"-58 0 LINE",
"564 0 LINE",
"638 264 LINE"
);
}
);
width = 759;
}
);
note = E;
unicode = 0045;
},
{
glyphname = F;
lastChange = "2017-06-09 11:40:29 +0000";
layers = (
{
layerId = "0E02FD82-E348-46EC-A7E4-43EEF3FEB87C";
paths = (
{
closed = 1;
nodes = (
"316 42 LINE",
"232 42 OFFCURVE",
"220 58 OFFCURVE",
"220 89 CURVE SMOOTH",
"220 119 OFFCURVE",
"231 151 OFFCURVE",
"240 183 CURVE SMOOTH",
"284 342 LINE",
"381 340 OFFCURVE",
"396 315 OFFCURVE",
"398 222 CURVE",
"436 222 LINE",
"512 504 LINE",
"464 504 LINE",
"434 412 OFFCURVE",
"394 386 OFFCURVE",
"294 384 CURVE",
"344 578 LINE SMOOTH",
"358 632 OFFCURVE",
"380 646 OFFCURVE",
"468 646 CURVE SMOOTH",
"572 646 OFFCURVE",
"622 604 OFFCURVE",
"622 499 CURVE SMOOTH",
"622 478 OFFCURVE",
"621 457 OFFCURVE",
"618 436 CURVE",
"660 436 LINE",
"724 688 LINE",
"124 688 LINE",
"114 646 LINE",
"180 644 OFFCURVE",
"193 636 OFFCURVE",
"194 610 CURVE SMOOTH",
"195 593 OFFCURVE",
"187 559 OFFCURVE",
"178 527 CURVE SMOOTH",
"64 109 LINE SMOOTH",
"50 58 OFFCURVE",
"28 44 OFFCURVE",
"-48 42 CURVE",
"-58 0 LINE",
"306 0 LINE"
);
}
);
width = 685;
}
);
note = F;
rightKerningGroup = F;
unicode = 0046;
},
{
glyphname = G;
lastChange = "2017-06-09 11:40:29 +0000";
layers = (
{
layerId = "0E02FD82-E348-46EC-A7E4-43EEF3FEB87C";
paths = (
{
closed = 1;
nodes = (
"708 676 LINE",
"696 664 OFFCURVE",
"689 650 OFFCURVE",
"676 650 CURVE SMOOTH",
"657 650 OFFCURVE",
"598 700 OFFCURVE",
"497 700 CURVE SMOOTH",
"256 700 OFFCURVE",
"36 490 OFFCURVE",
"36 274 CURVE SMOOTH",
"36 120 OFFCURVE",
"148 -12 OFFCURVE",
"316 -12 CURVE SMOOTH",
"381 -12 OFFCURVE",
"459 4 OFFCURVE",
"510 46 CURVE",
"532 6 LINE",
"572 6 LINE",
"624 202 LINE SMOOTH",
"644 279 OFFCURVE",
"684 284 OFFCURVE",
"736 286 CURVE",
"746 328 LINE",
"386 328 LINE",
"376 286 LINE",
"450 284 OFFCURVE",
"470 264 OFFCURVE",
"470 238 CURVE SMOOTH",
"470 224 OFFCURVE",
"464 196 OFFCURVE",
"457 171 CURVE SMOOTH",
"434 91 LINE SMOOTH",
"422 50 OFFCURVE",
"388 30 OFFCURVE",
"340 30 CURVE SMOOTH",
"271 30 OFFCURVE",
"200 70 OFFCURVE",
"200 196 CURVE SMOOTH",
"200 336 OFFCURVE",
"298 658 OFFCURVE",
"501 658 CURVE SMOOTH",
"595 658 OFFCURVE",
"642 606 OFFCURVE",
"642 507 CURVE SMOOTH",
"642 482 OFFCURVE",
"640 456 OFFCURVE",
"638 432 CURVE",
"684 432 LINE",
"750 676 LINE"
);
}
);
width = 778;
}
);
note = G;
unicode = 0047;
},
{
glyphname = H;
lastChange = "2017-06-09 11:40:29 +0000";
layers = (
{
layerId = "0E02FD82-E348-46EC-A7E4-43EEF3FEB87C";
paths = (
{
closed = 1;
nodes = (
"294 42 LINE",
"226 44 OFFCURVE",
"216 56 OFFCURVE",
"216 80 CURVE SMOOTH",
"216 93 OFFCURVE",
"227 132 OFFCURVE",
"235 161 CURVE SMOOTH",
"284 336 LINE",
"516 336 LINE",
"458 114 LINE SMOOTH",
"443 58 OFFCURVE",
"426 44 OFFCURVE",
"348 42 CURVE",
"338 0 LINE",
"688 0 LINE",
"698 42 LINE",
"636 44 OFFCURVE",
"612 52 OFFCURVE",
"612 80 CURVE SMOOTH",
"612 114 OFFCURVE",
"625 144 OFFCURVE",
"635 183 CURVE SMOOTH",
"733 552 LINE SMOOTH",
"753 629 OFFCURVE",
"778 644 OFFCURVE",
"856 646 CURVE",
"866 688 LINE",
"522 688 LINE",
"512 646 LINE",
"572 644 OFFCURVE",
"586 632 OFFCURVE",
"586 612 CURVE SMOOTH",
"586 590 OFFCURVE",
"577 560 OFFCURVE",
"565 515 CURVE SMOOTH",
"530 388 LINE",
"296 388 LINE",
"346 568 LINE SMOOTH",
"359 616 OFFCURVE",
"373 644 OFFCURVE",
"456 646 CURVE",
"466 688 LINE",
"118 688 LINE",
"108 646 LINE",
"174 644 OFFCURVE",
"192 636 OFFCURVE",
"192 610 CURVE SMOOTH",
"192 575 OFFCURVE",
"183 552 OFFCURVE",
"171 508 CURVE SMOOTH",
"68 132 LINE SMOOTH",
"46 53 OFFCURVE",
"23 44 OFFCURVE",
"-56 42 CURVE",
"-66 0 LINE",
"284 0 LINE"
);
}
);
width = 815;
}
);
note = H;
unicode = 0048;
},
{
glyphname = I;
lastChange = "2017-06-09 11:40:29 +0000";
layers = (
{
layerId = "0E02FD82-E348-46EC-A7E4-43EEF3FEB87C";
paths = (
{
closed = 1;
nodes = (
"196 644 OFFCURVE",
"206 638 OFFCURVE",
"206 610 CURVE SMOOTH",
"206 594 OFFCURVE",
"191 547 OFFCURVE",
"182 515 CURVE SMOOTH",
"66 95 LINE SMOOTH",
"56 58 OFFCURVE",
"38 48 OFFCURVE",
"-48 42 CURVE",
"-58 0 LINE",
"308 0 LINE",
"318 42 LINE",
"240 44 OFFCURVE",
"230 56 OFFCURVE",
"230 74 CURVE SMOOTH",
"230 90 OFFCURVE",
"239 118 OFFCURVE",
"249 153 CURVE SMOOTH",
"365 574 LINE SMOOTH",
"380 630 OFFCURVE",
"398 640 OFFCURVE",
"484 646 CURVE",
"494 688 LINE",
"128 688 LINE",
"118 646 LINE"
);
}
);
width = 444;
}
);
note = I;
unicode = 0049;
},
{
glyphname = J;
lastChange = "2017-06-09 11:40:29 +0000";
layers = (
{
layerId = "0E02FD82-E348-46EC-A7E4-43EEF3FEB87C";
paths = (
{
closed = 1;
nodes = (
"330 646 LINE",
"386 644 OFFCURVE",
"408 638 OFFCURVE",
"408 606 CURVE SMOOTH",
"408 576 OFFCURVE",
"365 446 OFFCURVE",
"299 182 CURVE SMOOTH",
"270 63 OFFCURVE",
"214 30 OFFCURVE",
"146 30 CURVE SMOOTH",
"80 30 OFFCURVE",
"38 76 OFFCURVE",
"38 117 CURVE SMOOTH",
"38 134 OFFCURVE",
"44 138 OFFCURVE",
"48 138 CURVE SMOOTH",
"54 138 OFFCURVE",
"59 110 OFFCURVE",
"108 110 CURVE SMOOTH",
"150 110 OFFCURVE",
"178 142 OFFCURVE",
"178 189 CURVE SMOOTH",
"178 228 OFFCURVE",
"150 266 OFFCURVE",
"102 266 CURVE SMOOTH",
"39 266 OFFCURVE",
"-8 218 OFFCURVE",
"-8 144 CURVE SMOOTH",
"-8 60 OFFCURVE",
"54 -12 OFFCURVE",
"184 -12 CURVE SMOOTH",
"329 -12 OFFCURVE",
"428 63 OFFCURVE",
"456 174 CURVE SMOOTH",
"558 573 LINE SMOOTH",
"571 622 OFFCURVE",
"583 639 OFFCURVE",
"668 646 CURVE",
"678 688 LINE",
"340 688 LINE"
);
}
);
width = 630;
}
);
note = J;
unicode = 004A;
},
{
glyphname = K;
lastChange = "2017-06-09 11:40:29 +0000";
layers = (
{
layerId = "0E02FD82-E348-46EC-A7E4-43EEF3FEB87C";
paths = (
{
closed = 1;
nodes = (
"300 42 LINE",
"240 44 OFFCURVE",
"228 56 OFFCURVE",
"228 85 CURVE SMOOTH",
"228 96 OFFCURVE",
"236 128 OFFCURVE",
"244 157 CURVE SMOOTH",
"288 310 LINE",
"352 354 LINE",
"430 141 LINE SMOOTH",
"439 115 OFFCURVE",
"448 95 OFFCURVE",
"448 78 CURVE SMOOTH",
"448 56 OFFCURVE",
"420 44 OFFCURVE",
"366 42 CURVE",
"356 0 LINE",
"690 0 LINE",
"700 42 LINE",
"642 44 OFFCURVE",
"633 49 OFFCURVE",
"614 100 CURVE SMOOTH",
"482 454 LINE",
"668 598 LINE SMOOTH",
"714 634 OFFCURVE",
"745 643 OFFCURVE",
"804 646 CURVE",
"814 688 LINE",
"532 688 LINE",
"522 646 LINE",
"584 644 OFFCURVE",
"600 636 OFFCURVE",
"600 623 CURVE SMOOTH",
"600 606 OFFCURVE",
"567 582 OFFCURVE",
"530 554 CURVE SMOOTH",
"306 382 LINE",
"304 384 LINE",
"362 586 LINE SMOOTH",
"373 623 OFFCURVE",
"396 640 OFFCURVE",
"466 646 CURVE",
"476 688 LINE",
"130 688 LINE",
"120 646 LINE",
"190 644 OFFCURVE",
"204 634 OFFCURVE",
"204 614 CURVE SMOOTH",
"204 600 OFFCURVE",
"201 585 OFFCURVE",
"194 560 CURVE SMOOTH",
"70 104 LINE SMOOTH",
"58 61 OFFCURVE",
"32 44 OFFCURVE",
"-42 42 CURVE",
"-52 0 LINE",
"290 0 LINE"
);
}
);
width = 778;
}
);
note = K;
unicode = 004B;
},
{
glyphname = L;
lastChange = "2017-06-09 11:40:29 +0000";
layers = (
{
layerId = "0E02FD82-E348-46EC-A7E4-43EEF3FEB87C";
paths = (
{
closed = 1;
nodes = (
"640 260 LINE",
"598 268 LINE",
"552 130 OFFCURVE",
"466 42 OFFCURVE",
"314 42 CURVE SMOOTH",
"250 42 OFFCURVE",
"232 58 OFFCURVE",
"232 90 CURVE SMOOTH",
"232 108 OFFCURVE",
"247 148 OFFCURVE",
"254 175 CURVE SMOOTH",
"358 570 LINE SMOOTH",
"372 625 OFFCURVE",
"402 644 OFFCURVE",
"474 646 CURVE",
"484 688 LINE",
"126 688 LINE",
"116 646 LINE",
"188 644 OFFCURVE",
"202 634 OFFCURVE",
"202 608 CURVE SMOOTH",
"202 593 OFFCURVE",
"195 565 OFFCURVE",
"188 541 CURVE SMOOTH",
"66 96 LINE SMOOTH",
"55 57 OFFCURVE",
"34 44 OFFCURVE",
"-48 42 CURVE",
"-58 0 LINE",
"566 0 LINE"
);
}
);
width = 685;
}
);
note = L;
rightKerningGroup = L;
unicode = 004C;
},
{
glyphname = M;
lastChange = "2017-06-09 11:40:29 +0000";
layers = (
{
layerId = "0E02FD82-E348-46EC-A7E4-43EEF3FEB87C";
paths = (
{
closed = 1;
nodes = (
"178 644 OFFCURVE",
"196 634 OFFCURVE",
"196 604 CURVE SMOOTH",
"196 585 OFFCURVE",
"189 566 OFFCURVE",
"180 533 CURVE SMOOTH",
"77 163 LINE SMOOTH",
"52 74 OFFCURVE",
"28 50 OFFCURVE",
"-40 42 CURVE",
"-50 0 LINE",
"178 0 LINE",
"188 42 LINE",
"118 46 OFFCURVE",
"108 60 OFFCURVE",
"108 91 CURVE SMOOTH",
"108 106 OFFCURVE",
"116 133 OFFCURVE",
"128 176 CURVE SMOOTH",
"250 620 LINE",
"252 620 LINE",
"256 0 LINE",
"326 0 LINE",
"676 624 LINE",
"678 622 LINE",
"542 113 LINE SMOOTH",
"528 60 OFFCURVE",
"512 46 OFFCURVE",
"438 42 CURVE",
"428 0 LINE",
"746 0 LINE",
"756 42 LINE",
"698 44 OFFCURVE",
"684 52 OFFCURVE",
"684 77 CURVE SMOOTH",
"684 93 OFFCURVE",
"692 124 OFFCURVE",
"698 146 CURVE SMOOTH",
"814 571 LINE SMOOTH",
"827 619 OFFCURVE",
"854 642 OFFCURVE",
"920 646 CURVE",
"930 688 LINE",
"662 688 LINE",
"400 224 LINE",
"398 224 LINE",
"398 688 LINE",
"130 688 LINE",
"120 646 LINE"
);
}
);
width = 889;
}
);
note = M;
unicode = 004D;
},
{
glyphname = N;
lastChange = "2017-06-09 11:40:29 +0000";
layers = (
{
layerId = "0E02FD82-E348-46EC-A7E4-43EEF3FEB87C";
paths = (
{
closed = 1;
nodes = (
"205 42 LINE",
"122 48 OFFCURVE",
"110 60 OFFCURVE",
"110 92 CURVE SMOOTH",
"110 116 OFFCURVE",
"116 134 OFFCURVE",
"125 168 CURVE SMOOTH",
"228 544 LINE",
"230 544 LINE",
"482 -12 LINE",
"556 -12 LINE",
"710 562 LINE SMOOTH",
"724 616 OFFCURVE",
"748 636 OFFCURVE",
"824 646 CURVE",
"834 688 LINE",
"586 688 LINE",
"574 646 LINE",
"650 644 OFFCURVE",
"664 624 OFFCURVE",
"664 601 CURVE SMOOTH",
"664 575 OFFCURVE",
"655 543 OFFCURVE",
"651 527 CURVE SMOOTH",
"562 186 LINE",
"560 186 LINE",
"330 688 LINE",
"120 688 LINE",
"110 646 LINE",
"180 644 OFFCURVE",
"194 626 OFFCURVE",
"194 604 CURVE SMOOTH",
"194 586 OFFCURVE",
"182 552 OFFCURVE",
"178 537 CURVE SMOOTH",
"58 106 LINE SMOOTH",
"43 53 OFFCURVE",
"10 48 OFFCURVE",
"-55 42 CURVE",
"-66 0 LINE",
"196 0 LINE"
);
}
);
width = 778;
}
);
note = N;
unicode = 004E;
},
{
glyphname = O;
lastChange = "2017-06-09 11:40:29 +0000";
layers = (
{
layerId = "0E02FD82-E348-46EC-A7E4-43EEF3FEB87C";
paths = (
{
closed = 1;
nodes = (
"36 112 OFFCURVE",
"164 -12 OFFCURVE",
"312 -12 CURVE SMOOTH",
"530 -12 OFFCURVE",
"742 208 OFFCURVE",
"742 414 CURVE SMOOTH",
"742 576 OFFCURVE",
"614 700 OFFCURVE",
"466 700 CURVE SMOOTH",
"248 700 OFFCURVE",
"36 480 OFFCURVE",
"36 274 CURVE SMOOTH"
);
},
{
closed = 1;
nodes = (
"196 246 OFFCURVE",
"254 662 OFFCURVE",
"468 662 CURVE SMOOTH",
"546 662 OFFCURVE",
"582 616 OFFCURVE",
"582 522 CURVE SMOOTH",
"582 442 OFFCURVE",
"524 26 OFFCURVE",
"310 26 CURVE SMOOTH",
"232 26 OFFCURVE",
"196 72 OFFCURVE",
"196 166 CURVE SMOOTH"
);
}
);
width = 778;
}
);
note = O;
unicode = 004F;
},
{
glyphname = P;
lastChange = "2017-06-09 11:40:29 +0000";
layers = (
{
layerId = "0E02FD82-E348-46EC-A7E4-43EEF3FEB87C";
paths = (
{
closed = 1;
nodes = (
"322 42 LINE",
"234 44 OFFCURVE",
"220 50 OFFCURVE",
"220 90 CURVE SMOOTH",
"220 108 OFFCURVE",
"224 133 OFFCURVE",
"232 160 CURVE SMOOTH",
"280 332 LINE",
"366 332 LINE SMOOTH",
"574 332 OFFCURVE",
"676 412 OFFCURVE",
"676 522 CURVE SMOOTH",
"676 631 OFFCURVE",
"590 688 OFFCURVE",
"430 688 CURVE SMOOTH",
"126 688 LINE",
"116 646 LINE",
"180 644 OFFCURVE",
"194 635 OFFCURVE",
"194 612 CURVE SMOOTH",
"194 596 OFFCURVE",
"187 570 OFFCURVE",
"179 539 CURVE SMOOTH",
"56 92 LINE SMOOTH",
"46 56 OFFCURVE",
"24 44 OFFCURVE",
"-48 42 CURVE",
"-58 0 LINE",
"312 0 LINE"
);
},
{
closed = 1;
nodes = (
"482 646 OFFCURVE",
"512 612 OFFCURVE",
"512 554 CURVE SMOOTH",
"512 510 OFFCURVE",
"498 469 OFFCURVE",
"473 432 CURVE SMOOTH",
"441 385 OFFCURVE",
"391 374 OFFCURVE",
"331 374 CURVE SMOOTH",
"294 374 LINE",
"347 574 LINE SMOOTH",
"360 624 OFFCURVE",
"386 646 OFFCURVE",
"431 646 CURVE SMOOTH"
);
}
);
width = 685;
}
);
note = P;
rightKerningGroup = P;
unicode = 0050;
},
{
glyphname = Q;
lastChange = "2017-06-09 11:40:29 +0000";
layers = (
{
layerId = "0E02FD82-E348-46EC-A7E4-43EEF3FEB87C";
paths = (
{
closed = 1;
nodes = (
"345 186 OFFCURVE",
"358 167 OFFCURVE",
"358 145 CURVE SMOOTH",
"358 120 OFFCURVE",
"340 82 OFFCURVE",
"330 30 CURVE",
"283 32 OFFCURVE",
"268 72 OFFCURVE",
"268 107 CURVE SMOOTH",
"268 157 OFFCURVE",
"295 186 OFFCURVE",
"322 186 CURVE SMOOTH"
);
},
{
closed = 1;
nodes = (
"603 10 OFFCURVE",
"573 -54 OFFCURVE",
"524 -54 CURVE SMOOTH",
"489 -54 OFFCURVE",
"464 -36 OFFCURVE",
"456 20 CURVE",
"616 88 OFFCURVE",
"742 256 OFFCURVE",
"742 414 CURVE SMOOTH",
"742 576 OFFCURVE",
"614 700 OFFCURVE",
"466 700 CURVE SMOOTH",
"248 700 OFFCURVE",
"36 480 OFFCURVE",
"36 274 CURVE SMOOTH",
"36 112 OFFCURVE",
"164 -12 OFFCURVE",
"312 -12 CURVE SMOOTH",
"317 -12 OFFCURVE",
"322 -12 OFFCURVE",
"326 -11 CURVE",
"326 -19 LINE SMOOTH",
"326 -90 OFFCURVE",
"380 -150 OFFCURVE",
"453 -150 CURVE SMOOTH",
"564 -150 OFFCURVE",
"628 -65 OFFCURVE",
"652 36 CURVE",
"614 50 LINE"
);
},
{
closed = 1;
nodes = (
"546 662 OFFCURVE",
"582 616 OFFCURVE",
"582 522 CURVE SMOOTH",
"582 463 OFFCURVE",
"550 216 OFFCURVE",
"444 95 CURVE",
"427 177 OFFCURVE",
"398 228 OFFCURVE",
"327 228 CURVE SMOOTH",
"256 228 OFFCURVE",
"220 176 OFFCURVE",
"220 121 CURVE SMOOTH",
"220 95 OFFCURVE",
"229 70 OFFCURVE",
"241 47 CURVE",
"239 45 LINE",
"209 70 OFFCURVE",
"196 109 OFFCURVE",
"196 166 CURVE SMOOTH",
"196 246 OFFCURVE",
"254 662 OFFCURVE",
"468 662 CURVE SMOOTH"
);
}
);
width = 778;
}
);
note = Q;
unicode = 0051;
},
{
glyphname = R;
lastChange = "2017-06-09 11:40:29 +0000";
layers = (
{
layerId = "0E02FD82-E348-46EC-A7E4-43EEF3FEB87C";
paths = (
{
closed = 1;
nodes = (
"310 42 LINE",
"232 44 OFFCURVE",
"224 54 OFFCURVE",
"224 81 CURVE SMOOTH",
"224 99 OFFCURVE",
"232 122 OFFCURVE",
"239 147 CURVE SMOOTH",
"290 326 LINE",
"364 324 OFFCURVE",
"380 300 OFFCURVE",
"380 228 CURVE SMOOTH",
"380 197 OFFCURVE",
"376 167 OFFCURVE",
"376 124 CURVE SMOOTH",
"376 40 OFFCURVE",
"424 -12 OFFCURVE",
"500 -12 CURVE SMOOTH",
"584 -12 OFFCURVE",
"643 75 OFFCURVE",
"668 146 CURVE",
"628 162 LINE",
"619 145 OFFCURVE",
"591 84 OFFCURVE",
"566 84 CURVE SMOOTH",
"552 84 OFFCURVE",
"541 98 OFFCURVE",
"540 175 CURVE SMOOTH",
"539 270 OFFCURVE",
"479 305 OFFCURVE",
"390 336 CURVE",
"390 338 LINE",
"624 338 OFFCURVE",
"696 426 OFFCURVE",
"696 534 CURVE SMOOTH",
"696 616 OFFCURVE",
"612 688 OFFCURVE",
"478 688 CURVE SMOOTH",
"122 688 LINE",
"112 646 LINE",
"184 644 OFFCURVE",
"196 632 OFFCURVE",
"196 604 CURVE SMOOTH",
"196 586 OFFCURVE",
"186 562 OFFCURVE",
"180 541 CURVE SMOOTH",
"63 114 LINE SMOOTH",
"47 57 OFFCURVE",
"34 44 OFFCURVE",
"-56 42 CURVE",
"-66 0 LINE",
"300 0 LINE"
);
},
{
closed = 1;
nodes = (
"357 578 LINE SMOOTH",
"370 624 OFFCURVE",
"398 646 OFFCURVE",
"445 646 CURVE SMOOTH",
"491 646 OFFCURVE",
"526 619 OFFCURVE",
"526 571 CURVE SMOOTH",
"526 446 OFFCURVE",
"466 368 OFFCURVE",
"348 368 CURVE SMOOTH",
"300 368 LINE"
);
}
);
width = 741;
}
);
note = R;
rightKerningGroup = R;
unicode = 0052;
},
{
glyphname = S;
lastChange = "2017-06-09 11:40:29 +0000";
layers = (
{
layerId = "0E02FD82-E348-46EC-A7E4-43EEF3FEB87C";
paths = (
{
closed = 1;
nodes = (
"22 6 LINE",
"36 23 OFFCURVE",
"46 38 OFFCURVE",
"71 38 CURVE SMOOTH",
"94 38 OFFCURVE",
"148 -12 OFFCURVE",
"245 -12 CURVE SMOOTH",
"408 -12 OFFCURVE",
"564 84 OFFCURVE",
"564 238 CURVE SMOOTH",
"564 435 OFFCURVE",
"258 396 OFFCURVE",
"258 544 CURVE SMOOTH",
"258 604 OFFCURVE",
"308 658 OFFCURVE",
"398 658 CURVE SMOOTH",
"508 658 OFFCURVE",
"558 593 OFFCURVE",
"558 492 CURVE SMOOTH",
"558 452 LINE",
"600 452 LINE",
"658 682 LINE",
"610 682 LINE",
"603 666 OFFCURVE",
"593 646 OFFCURVE",
"574 646 CURVE SMOOTH",
"547 646 OFFCURVE",
"508 700 OFFCURVE",
"402 700 CURVE SMOOTH",
"240 700 OFFCURVE",
"114 588 OFFCURVE",
"114 477 CURVE SMOOTH",
"114 270 OFFCURVE",
"420 296 OFFCURVE",
"420 160 CURVE SMOOTH",
"420 104 OFFCURVE",
"348 30 OFFCURVE",
"250 30 CURVE SMOOTH",
"120 30 OFFCURVE",
"88 98 OFFCURVE",
"88 204 CURVE SMOOTH",
"88 260 LINE",
"46 260 LINE",
"-20 6 LINE"
);
}
);
width = 667;
}
);
note = S;
unicode = 0053;
},
{
glyphname = T;
lastChange = "2017-06-09 11:40:29 +0000";
layers = (
{
layerId = "0E02FD82-E348-46EC-A7E4-43EEF3FEB87C";
paths = (
{
closed = 1;
nodes = (
"444 42 LINE",
"378 44 OFFCURVE",
"360 48 OFFCURVE",
"360 77 CURVE SMOOTH",
"360 96 OFFCURVE",
"370 133 OFFCURVE",
"378 162 CURVE SMOOTH",
"505 645 LINE",
"512 646 OFFCURVE",
"521 646 OFFCURVE",
"531 646 CURVE SMOOTH",
"618 646 OFFCURVE",
"644 567 OFFCURVE",
"644 490 CURVE SMOOTH",
"644 475 OFFCURVE",
"643 460 OFFCURVE",
"641 446 CURVE",
"684 446 LINE",
"740 688 LINE",
"132 688 LINE",
"66 446 LINE",
"108 446 LINE",
"147 563 OFFCURVE",
"216 646 OFFCURVE",
"327 646 CURVE SMOOTH",
"334 646 OFFCURVE",
"341 645 OFFCURVE",
"348 645 CURVE",
"209 113 LINE SMOOTH",
"193 53 OFFCURVE",
"176 44 OFFCURVE",
"94 42 CURVE",
"84 0 LINE",
"434 0 LINE"
);
}
);
width = 704;
}
);
leftKerningGroup = T;
note = T;
rightKerningGroup = T;
unicode = 0054;
},
{
glyphname = U;
lastChange = "2017-06-09 11:40:29 +0000";
layers = (
{
layerId = "0E02FD82-E348-46EC-A7E4-43EEF3FEB87C";
paths = (
{
closed = 1;
nodes = (
"110 646 LINE",
"171 646 OFFCURVE",
"190 640 OFFCURVE",
"190 606 CURVE SMOOTH",
"190 580 OFFCURVE",
"78 244 OFFCURVE",
"78 166 CURVE SMOOTH",
"78 68 OFFCURVE",
"172 -12 OFFCURVE",
"334 -12 CURVE SMOOTH",
"496 -12 OFFCURVE",
"574 60 OFFCURVE",
"608 188 CURVE SMOOTH",
"708 568 LINE SMOOTH",
"724 628 OFFCURVE",
"750 644 OFFCURVE",
"826 646 CURVE",
"836 688 LINE",
"590 688 LINE",
"580 646 LINE",
"648 644 OFFCURVE",
"662 632 OFFCURVE",
"662 610 CURVE SMOOTH",
"662 592 OFFCURVE",
"650 545 OFFCURVE",
"642 514 CURVE SMOOTH",
"551 175 LINE SMOOTH",
"526 82 OFFCURVE",
"454 30 OFFCURVE",
"360 30 CURVE SMOOTH",
"296 30 OFFCURVE",
"228 58 OFFCURVE",
"228 132 CURVE SMOOTH",
"228 160 OFFCURVE",
"240 204 OFFCURVE",
"254 255 CURVE SMOOTH",
"336 558 LINE SMOOTH",
"357 636 OFFCURVE",
"378 644 OFFCURVE",
"454 646 CURVE",
"464 688 LINE",
"120 688 LINE"
);
}
);
width = 778;
}
);
note = U;
unicode = 0055;
},
{
glyphname = V;
lastChange = "2017-06-09 11:40:29 +0000";
layers = (
{
layerId = "0E02FD82-E348-46EC-A7E4-43EEF3FEB87C";
paths = (
{
closed = 1;
nodes = (
"82 688 LINE",
"72 646 LINE",
"138 644 OFFCURVE",
"156 634 OFFCURVE",
"160 564 CURVE SMOOTH",
"194 0 LINE",
"266 0 LINE",
"668 598 LINE SMOOTH",
"690 630 OFFCURVE",
"712 644 OFFCURVE",
"762 646 CURVE",
"772 688 LINE",
"532 688 LINE",
"522 646 LINE",
"596 644 OFFCURVE",
"606 640 OFFCURVE",
"606 620 CURVE SMOOTH",
"606 602 OFFCURVE",
"595 578 OFFCURVE",
"572 543 CURVE SMOOTH",
"336 186 LINE",
"334 186 LINE",
"311 500 LINE SMOOTH",
"309 534 OFFCURVE",
"308 533 OFFCURVE",
"308 588 CURVE SMOOTH",
"308 634 OFFCURVE",
"322 644 OFFCURVE",
"408 646 CURVE",
"418 688 LINE"
);
}
);
width = 685;
}
);
leftKerningGroup = V;
note = V;
rightKerningGroup = V;
unicode = 0056;
},
{
glyphname = W;
lastChange = "2017-06-09 11:40:29 +0000";
layers = (
{
layerId = "0E02FD82-E348-46EC-A7E4-43EEF3FEB87C";
paths = (
{
closed = 1;
nodes = (
"464 422 LINE",
"494 0 LINE",
"566 0 LINE",
"872 595 LINE SMOOTH",
"893 635 OFFCURVE",
"904 646 OFFCURVE",
"966 646 CURVE",
"976 688 LINE",
"756 688 LINE",
"746 646 LINE",
"818 646 OFFCURVE",
"826 638 OFFCURVE",
"826 619 CURVE SMOOTH",
"826 603 OFFCURVE",
"814 579 OFFCURVE",
"789 530 CURVE SMOOTH",
"628 210 LINE",
"626 210 LINE",
"607 523 LINE SMOOTH",
"606 542 OFFCURVE",
"602 572 OFFCURVE",
"602 597 CURVE SMOOTH",
"602 640 OFFCURVE",
"620 646 OFFCURVE",
"686 646 CURVE",
"696 688 LINE",
"400 688 LINE",
"390 646 LINE",
"440 646 OFFCURVE",
"446 637 OFFCURVE",
"448 616 CURVE SMOOTH",
"456 506 LINE",
"312 220 LINE",
"310 220 LINE",
"289 498 LINE SMOOTH",
"286 543 OFFCURVE",
"284 579 OFFCURVE",
"284 607 CURVE SMOOTH",
"284 638 OFFCURVE",
"304 646 OFFCURVE",
"358 646 CURVE",
"368 688 LINE",
"72 688 LINE",
"62 646 LINE",
"118 646 OFFCURVE",
"132 641 OFFCURVE",
"136 588 CURVE SMOOTH",
"178 0 LINE",
"248 0 LINE",
"462 422 LINE"
);
}
);
width = 907;
}
);
leftKerningGroup = W;
note = W;
rightKerningGroup = W;
unicode = 0057;
},
{
glyphname = X;
lastChange = "2017-06-09 11:40:29 +0000";
layers = (
{
layerId = "0E02FD82-E348-46EC-A7E4-43EEF3FEB87C";
paths = (
{
closed = 1;
nodes = (
"216 42 LINE",
"144 44 OFFCURVE",
"128 54 OFFCURVE",
"128 74 CURVE SMOOTH",
"128 86 OFFCURVE",
"147 108 OFFCURVE",
"167 128 CURVE SMOOTH",
"319 274 LINE",
"366 147 LINE SMOOTH",
"379 112 OFFCURVE",
"386 94 OFFCURVE",
"386 79 CURVE SMOOTH",
"386 57 OFFCURVE",
"372 44 OFFCURVE",
"294 42 CURVE",
"284 0 LINE",
"624 0 LINE",
"634 42 LINE",
"572 44 OFFCURVE",
"563 48 OFFCURVE",
"547 90 CURVE SMOOTH",
"434 390 LINE",
"615 568 LINE SMOOTH",
"673 625 OFFCURVE",
"696 640 OFFCURVE",
"776 646 CURVE",
"786 688 LINE",
"514 688 LINE",
"504 646 LINE",
"556 646 OFFCURVE",
"570 634 OFFCURVE",
"570 612 CURVE SMOOTH",
"570 590 OFFCURVE",
"540 562 OFFCURVE",
"418 436 CURVE",
"376 538 LINE SMOOTH",
"367 560 OFFCURVE",
"356 590 OFFCURVE",
"356 606 CURVE SMOOTH",
"356 636 OFFCURVE",
"378 646 OFFCURVE",
"446 646 CURVE",
"456 688 LINE",
"128 688 LINE",
"118 646 LINE",
"170 644 OFFCURVE",
"180 632 OFFCURVE",
"188 612 CURVE SMOOTH",
"300 324 LINE",
"73 103 LINE SMOOTH",
"38 68 OFFCURVE",
"4 52 OFFCURVE",
"-62 42 CURVE",
"-72 0 LINE",
"206 0 LINE"
);
}
);
width = 741;
}
);
note = X;
unicode = 0058;
},
{
glyphname = Y;
lastChange = "2017-06-09 11:40:29 +0000";
layers = (
{
layerId = "0E02FD82-E348-46EC-A7E4-43EEF3FEB87C";
paths = (
{
closed = 1;
nodes = (
"430 42 LINE",
"350 44 OFFCURVE",
"340 56 OFFCURVE",
"340 83 CURVE SMOOTH",
"340 95 OFFCURVE",
"350 129 OFFCURVE",
"359 162 CURVE SMOOTH",
"396 296 LINE",
"622 583 LINE SMOOTH",
"659 629 OFFCURVE",
"690 644 OFFCURVE",
"746 646 CURVE",
"756 688 LINE",
"506 688 LINE",
"496 646 LINE",
"564 644 OFFCURVE",
"574 636 OFFCURVE",
"574 620 CURVE SMOOTH",
"574 604 OFFCURVE",
"551 572 OFFCURVE",
"526 540 CURVE SMOOTH",
"384 358 LINE",
"336 518 LINE SMOOTH",
"326 552 OFFCURVE",
"316 579 OFFCURVE",
"316 608 CURVE SMOOTH",
"316 638 OFFCURVE",
"340 644 OFFCURVE",
"404 646 CURVE",
"414 688 LINE",
"86 688 LINE",
"76 646 LINE",
"132 644 OFFCURVE",
"141 632 OFFCURVE",
"147 610 CURVE SMOOTH",
"232 308 LINE",
"178 112 LINE SMOOTH",
"166 68 OFFCURVE",
"154 44 OFFCURVE",
"52 42 CURVE",
"42 0 LINE",
"420 0 LINE"
);
}
);
width = 667;
}
);
leftKerningGroup = Y;
note = Y;
rightKerningGroup = Y;
unicode = 0059;
},
{
glyphname = Z;
lastChange = "2017-06-09 11:40:29 +0000";
layers = (
{
layerId = "0E02FD82-E348-46EC-A7E4-43EEF3FEB87C";
paths = (
{
closed = 1;
nodes = (
"546 268 LINE",
"500 130 OFFCURVE",
"414 48 OFFCURVE",
"220 48 CURVE SMOOTH",
"166 48 LINE",
"680 632 LINE",
"686 688 LINE",
"182 688 LINE",
"116 458 LINE",
"162 450 LINE",
"194 580 OFFCURVE",
"288 640 OFFCURVE",
"424 640 CURVE SMOOTH",
"504 640 LINE",
"-2 68 LINE",
"-20 0 LINE",
"514 0 LINE",
"588 260 LINE"
);
}
);
width = 685;
}
);
note = Z;
unicode = 005A;
},
{
glyphname = bracketleft;
lastChange = "2017-06-09 11:40:29 +0000";
layers = (
{
layerId = "0E02FD82-E348-46EC-A7E4-43EEF3FEB87C";
paths = (
{
closed = 1;
nodes = (
"226 -170 LINE",
"236 -128 LINE",
"167 -126 OFFCURVE",
"146 -108 OFFCURVE",
"146 -85 CURVE SMOOTH",
"146 -40 OFFCURVE",
"252 303 OFFCURVE",
"304 520 CURVE SMOOTH",
"329 625 OFFCURVE",
"349 644 OFFCURVE",
"442 646 CURVE",
"452 688 LINE",
"242 688 LINE",
"8 -170 LINE"
);
}
);
width = 426;
}
);
note = bracketleft;
unicode = 005B;
},
{
glyphname = backslash;
lastChange = "2017-06-09 11:40:29 +0000";
layers = (
{
layerId = "0E02FD82-E348-46EC-A7E4-43EEF3FEB87C";
paths = (
{
closed = 1;
nodes = (
"86 700 LINE",
"-26 700 LINE",
"192 -12 LINE",
"304 -12 LINE"
);
}
);
width = 278;
}
);
note = backslash;
unicode = 005C;
},
{
glyphname = bracketright;
lastChange = "2017-06-09 11:40:29 +0000";
layers = (
{
layerId = "0E02FD82-E348-46EC-A7E4-43EEF3FEB87C";
paths = (
{
closed = 1;
nodes = (
"144 688 LINE",
"134 646 LINE",
"203 644 OFFCURVE",
"224 626 OFFCURVE",
"224 603 CURVE SMOOTH",
"224 558 OFFCURVE",
"118 215 OFFCURVE",
"66 -2 CURVE SMOOTH",
"41 -107 OFFCURVE",
"21 -126 OFFCURVE",
"-72 -128 CURVE",
"-82 -170 LINE",
"128 -170 LINE",
"362 688 LINE"
);
}
);
width = 426;
}
);
note = bracketright;
unicode = 005D;
},
{
glyphname = asciicircum;
lastChange = "2017-06-09 11:40:29 +0000";
layers = (
{
layerId = "0E02FD82-E348-46EC-A7E4-43EEF3FEB87C";
paths = (
{
closed = 1;
nodes = (
"300 580 LINE",
"413 329 LINE",
"521 329 LINE",
"349 688 LINE",
"251 688 LINE",
"79 329 LINE",
"187 329 LINE"
);
}
);
width = 600;
}
);
note = asciicircum;
unicode = 005E;
},
{
glyphname = underscore;
lastChange = "2017-06-09 11:40:29 +0000";
layers = (
{
layerId = "0E02FD82-E348-46EC-A7E4-43EEF3FEB87C";
paths = (
{
closed = 1;
nodes = (
"500 -75 LINE",
"0 -75 LINE",
"0 -125 LINE",
"500 -125 LINE"
);
}
);
width = 500;
}
);
note = underscore;
unicode = 005F;
},
{
glyphname = quoteleft;
lastChange = "2017-06-09 11:40:29 +0000";
layers = (
{
layerId = "0E02FD82-E348-46EC-A7E4-43EEF3FEB87C";
paths = (
{
closed = 1;
nodes = (
"202 654 OFFCURVE",
"116 564 OFFCURVE",
"116 467 CURVE SMOOTH",
"116 400 OFFCURVE",
"152 366 OFFCURVE",
"206 366 CURVE SMOOTH",
"240 366 OFFCURVE",
"274 396 OFFCURVE",
"274 440 CURVE SMOOTH",
"274 486 OFFCURVE",
"246 510 OFFCURVE",
"186 512 CURVE",
"188 576 OFFCURVE",
"254 626 OFFCURVE",
"312 666 CURVE",
"286 700 LINE"
);
}
);
width = 278;
}
);
note = quoteleft;
unicode = 2018;
},
{
glyphname = a;
lastChange = "2017-06-09 11:40:29 +0000";
layers = (
{
layerId = "0E02FD82-E348-46EC-A7E4-43EEF3FEB87C";
paths = (
{
closed = 1;
nodes = (
"392 402 LINE",
"390 402 LINE",
"374 449 OFFCURVE",
"344 482 OFFCURVE",
"282 482 CURVE SMOOTH",
"142 482 OFFCURVE",
"0 334 OFFCURVE",
"0 181 CURVE SMOOTH",
"0 42 OFFCURVE",
"92 -12 OFFCURVE",
"178 -12 CURVE SMOOTH",
"251 -12 OFFCURVE",
"290 32 OFFCURVE",
"330 94 CURVE",
"332 94 LINE",
"342 26 OFFCURVE",
"376 -12 OFFCURVE",
"432 -12 CURVE SMOOTH",
"523 -12 OFFCURVE",
"570 71 OFFCURVE",
"602 145 CURVE",
"569 163 LINE",
"559 132 OFFCURVE",
"510 40 OFFCURVE",
"472 40 CURVE SMOOTH",
"460 40 OFFCURVE",
"458 50 OFFCURVE",
"458 58 CURVE SMOOTH",
"458 67 OFFCURVE",
"463 94 OFFCURVE",
"468 116 CURVE SMOOTH",
"556 472 LINE",
"408 472 LINE"
);
},
{
closed = 1;
nodes = (
"366 238 OFFCURVE",
"293 40 OFFCURVE",
"204 40 CURVE SMOOTH",
"170 40 OFFCURVE",
"154 62 OFFCURVE",
"154 112 CURVE SMOOTH",
"154 208 OFFCURVE",
"212 430 OFFCURVE",
"304 430 CURVE SMOOTH",
"344 430 OFFCURVE",
"366 402 OFFCURVE",
"366 343 CURVE SMOOTH"
);
}
);
width = 648;
}
);
leftKerningGroup = a;
note = a;
unicode = 0061;
},
{
glyphname = b;
lastChange = "2017-06-09 11:40:29 +0000";
layers = (
{
layerId = "0E02FD82-E348-46EC-A7E4-43EEF3FEB87C";
paths = (
{
closed = 1;
nodes = (
"79 674 LINE",
"69 638 LINE",
"124 636 OFFCURVE",
"139 628 OFFCURVE",
"139 605 CURVE SMOOTH",
"139 588 OFFCURVE",
"124 549 OFFCURVE",
"112 506 CURVE SMOOTH",
"38 242 LINE SMOOTH",
"24 192 OFFCURVE",
"21 171 OFFCURVE",
"21 130 CURVE SMOOTH",
"21 48 OFFCURVE",
"86 -12 OFFCURVE",
"196 -12 CURVE SMOOTH",
"378 -12 OFFCURVE",
"545 120 OFFCURVE",
"545 304 CURVE SMOOTH",
"545 398 OFFCURVE",
"484 482 OFFCURVE",
"384 482 CURVE SMOOTH",
"324 482 OFFCURVE",
"281 447 OFFCURVE",
"241 406 CURVE",
"239 408 LINE",
"313 678 LINE"
);
},
{
closed = 1;
nodes = (
"397 248 OFFCURVE",
"314 26 OFFCURVE",
"214 26 CURVE SMOOTH",
"176 26 OFFCURVE",
"165 48 OFFCURVE",
"165 86 CURVE SMOOTH",
"165 260 OFFCURVE",
"268 430 OFFCURVE",
"346 430 CURVE SMOOTH",
"384 430 OFFCURVE",
"397 400 OFFCURVE",
"397 356 CURVE SMOOTH"
);
}
);
width = 611;
}
);
note = b;
unicode = 0062;
},
{
glyphname = c;
lastChange = "2017-06-09 11:40:29 +0000";
layers = (
{
layerId = "0E02FD82-E348-46EC-A7E4-43EEF3FEB87C";
paths = (
{
closed = 1;
nodes = (
"356 118 OFFCURVE",
"294 30 OFFCURVE",
"228 30 CURVE SMOOTH",
"189 30 OFFCURVE",
"144 60 OFFCURVE",
"144 145 CURVE SMOOTH",
"144 247 OFFCURVE",
"204 440 OFFCURVE",
"323 440 CURVE SMOOTH",
"338 440 OFFCURVE",
"346 437 OFFCURVE",
"346 431 CURVE SMOOTH",
"346 426 OFFCURVE",
"292 423 OFFCURVE",
"292 368 CURVE SMOOTH",
"292 321 OFFCURVE",
"328 302 OFFCURVE",
"360 302 CURVE SMOOTH",
"410 302 OFFCURVE",
"440 339 OFFCURVE",
"440 385 CURVE SMOOTH",
"440 433 OFFCURVE",
"395 482 OFFCURVE",
"307 482 CURVE SMOOTH",
"158 482 OFFCURVE",
"-4 360 OFFCURVE",
"-4 189 CURVE SMOOTH",
"-4 63 OFFCURVE",
"96 -12 OFFCURVE",
"203 -12 CURVE SMOOTH",
"307 -12 OFFCURVE",
"375 58 OFFCURVE",
"411 150 CURVE",
"378 172 LINE"
);
}
);
width = 500;
}
);
leftKerningGroup = c;
note = c;
unicode = 0063;
},
{
glyphname = d;
lastChange = "2017-06-09 11:40:29 +0000";
layers = (
{
layerId = "0E02FD82-E348-46EC-A7E4-43EEF3FEB87C";
paths = (
{
closed = 1;
nodes = (
"161 36 OFFCURVE",
"140 58 OFFCURVE",
"140 100 CURVE SMOOTH",
"140 236 OFFCURVE",
"222 434 OFFCURVE",
"291 434 CURVE SMOOTH",
"323 434 OFFCURVE",
"348 415 OFFCURVE",
"348 352 CURVE SMOOTH",
"348 190 OFFCURVE",
"254 36 OFFCURVE",
"190 36 CURVE SMOOTH"
);
},
{
closed = 1;
nodes = (
"411 636 OFFCURVE",
"426 622 OFFCURVE",
"426 597 CURVE SMOOTH",
"426 582 OFFCURVE",
"396 486 OFFCURVE",
"378 410 CURVE",
"376 410 LINE",
"359 455 OFFCURVE",
"325 482 OFFCURVE",
"268 482 CURVE SMOOTH",
"146 482 OFFCURVE",
"-4 358 OFFCURVE",
"-4 184 CURVE SMOOTH",
"-4 60 OFFCURVE",
"72 -12 OFFCURVE",
"171 -12 CURVE SMOOTH",
"240 -12 OFFCURVE",
"291 37 OFFCURVE",
"314 94 CURVE",
"316 94 LINE",
"326 23 OFFCURVE",
"365 -12 OFFCURVE",
"419 -12 CURVE SMOOTH",
"507 -12 OFFCURVE",
"556 67 OFFCURVE",
"586 139 CURVE",
"553 160 LINE",
"542 136 OFFCURVE",
"493 36 OFFCURVE",
"458 36 CURVE SMOOTH",
"446 36 OFFCURVE",
"443 47 OFFCURVE",
"443 56 CURVE SMOOTH",
"443 70 OFFCURVE",
"446 83 OFFCURVE",
"456 124 CURVE SMOOTH",
"598 678 LINE",
"370 674 LINE",
"360 638 LINE"
);
}
);
width = 630;
}
);
leftKerningGroup = d;
note = d;
unicode = 0064;
},
{
glyphname = e;
lastChange = "2017-06-09 11:40:29 +0000";
layers = (
{
layerId = "0E02FD82-E348-46EC-A7E4-43EEF3FEB87C";
paths = (
{
closed = 1;
nodes = (
"362 99 OFFCURVE",
"299 30 OFFCURVE",
"226 30 CURVE SMOOTH",
"170 30 OFFCURVE",
"144 57 OFFCURVE",
"144 126 CURVE SMOOTH",
"144 149 OFFCURVE",
"152 190 OFFCURVE",
"157 212 CURVE",
"265 214 OFFCURVE",
"458 232 OFFCURVE",
"458 379 CURVE SMOOTH",
"458 437 OFFCURVE",
"405 482 OFFCURVE",
"312 482 CURVE SMOOTH",
"187 482 OFFCURVE",
"-4 373 OFFCURVE",
"-4 192 CURVE SMOOTH",
"-4 54 OFFCURVE",
"100 -12 OFFCURVE",
"208 -12 CURVE SMOOTH",
"317 -12 OFFCURVE",
"374 47 OFFCURVE",
"430 134 CURVE",
"399 156 LINE"
);
},
{
closed = 1;
nodes = (
"336 306 OFFCURVE",
"249 254 OFFCURVE",
"168 254 CURVE",
"176 308 OFFCURVE",
"232 440 OFFCURVE",
"302 440 CURVE SMOOTH",
"327 440 OFFCURVE",
"336 420 OFFCURVE",
"336 395 CURVE SMOOTH"
);
}
);
width = 519;
}
);
leftKerningGroup = e;
note = e;
unicode = 0065;
},
{
glyphname = f;
lastChange = "2017-06-09 11:40:29 +0000";
layers = (
{
layerId = "0E02FD82-E348-46EC-A7E4-43EEF3FEB87C";
paths = (
{
closed = 1;
nodes = (
"6 -11 LINE SMOOTH",
"-20 -118 OFFCURVE",
"-68 -144 OFFCURVE",
"-92 -144 CURVE SMOOTH",
"-100 -144 OFFCURVE",
"-108 -144 OFFCURVE",
"-108 -139 CURVE SMOOTH",
"-108 -135 OFFCURVE",
"-82 -121 OFFCURVE",
"-82 -94 CURVE SMOOTH",
"-82 -60 OFFCURVE",
"-106 -34 OFFCURVE",
"-147 -34 CURVE SMOOTH",
"-196 -34 OFFCURVE",
"-226 -66 OFFCURVE",
"-226 -103 CURVE SMOOTH",
"-226 -156 OFFCURVE",
"-179 -182 OFFCURVE",
"-118 -182 CURVE SMOOTH",
"-15 -182 OFFCURVE",
"144 -85 OFFCURVE",
"191 138 CURVE SMOOTH",
"252 428 LINE",
"364 428 LINE",
"374 470 LINE",
"260 470 LINE",
"280 581 OFFCURVE",
"326 650 OFFCURVE",
"387 650 CURVE SMOOTH",
"393 650 OFFCURVE",
"401 648 OFFCURVE",
"401 642 CURVE SMOOTH",
"401 637 OFFCURVE",
"362 624 OFFCURVE",
"362 588 CURVE SMOOTH",
"362 548 OFFCURVE",
"389 523 OFFCURVE",
"426 523 CURVE SMOOTH",
"477 523 OFFCURVE",
"506 558 OFFCURVE",
"506 600 CURVE SMOOTH",
"506 648 OFFCURVE",
"459 688 OFFCURVE",
"385 688 CURVE SMOOTH",
"253 688 OFFCURVE",
"159 591 OFFCURVE",
"124 470 CURVE",
"36 470 LINE",
"26 428 LINE",
"112 428 LINE"
);
}
);
width = 370;
}
);
note = f;
unicode = 0066;
},
{
glyphname = g;
lastChange = "2017-06-09 11:40:29 +0000";
layers = (
{
layerId = "0E02FD82-E348-46EC-A7E4-43EEF3FEB87C";
paths = (
{
closed = 1;
nodes = (
"388 400 LINE",
"386 400 LINE",
"370 452 OFFCURVE",
"340 482 OFFCURVE",
"280 482 CURVE SMOOTH",
"148 482 OFFCURVE",
"-4 342 OFFCURVE",
"-4 178 CURVE SMOOTH",
"-4 62 OFFCURVE",
"82 -12 OFFCURVE",
"160 -12 CURVE SMOOTH",
"210 -12 OFFCURVE",
"260 12 OFFCURVE",
"290 52 CURVE",
"292 50 LINE",
"256 -104 OFFCURVE",
"206 -144 OFFCURVE",
"123 -144 CURVE SMOOTH",
"87 -144 OFFCURVE",
"63 -135 OFFCURVE",
"56 -121 CURVE",
"74 -114 OFFCURVE",
"92 -96 OFFCURVE",
"92 -72 CURVE SMOOTH",
"92 -40 OFFCURVE",
"64 -8 OFFCURVE",
"20 -8 CURVE SMOOTH",
"-26 -8 OFFCURVE",
"-62 -32 OFFCURVE",
"-62 -81 CURVE SMOOTH",
"-62 -133 OFFCURVE",
"10 -182 OFFCURVE",
"136 -182 CURVE SMOOTH",
"259 -182 OFFCURVE",
"389 -133 OFFCURVE",
"432 26 CURVE SMOOTH",
"552 470 LINE",
"404 470 LINE"
);
},
{
closed = 1;
nodes = (
"334 430 OFFCURVE",
"356 409 OFFCURVE",
"356 335 CURVE SMOOTH",
"356 244 OFFCURVE",
"287 40 OFFCURVE",
"191 40 CURVE SMOOTH",
"168 40 OFFCURVE",
"150 62 OFFCURVE",
"150 116 CURVE SMOOTH",
"150 199 OFFCURVE",
"210 430 OFFCURVE",
"306 430 CURVE SMOOTH"
);
}
);
width = 611;
}
);
note = g;
unicode = 0067;
},
{
glyphname = h;
lastChange = "2017-06-09 11:40:29 +0000";
layers = (
{
layerId = "0E02FD82-E348-46EC-A7E4-43EEF3FEB87C";
paths = (
{
closed = 1;
nodes = (
"134 638 OFFCURVE",
"150 628 OFFCURVE",
"150 610 CURVE SMOOTH",
"150 592 OFFCURVE",
"145 574 OFFCURVE",
"139 551 CURVE SMOOTH",
"-12 0 LINE",
"130 0 LINE",
"208 310 OFFCURVE",
"292 424 OFFCURVE",
"353 424 CURVE SMOOTH",
"372 424 OFFCURVE",
"384 412 OFFCURVE",
"384 382 CURVE SMOOTH",
"384 315 OFFCURVE",
"298 178 OFFCURVE",
"298 97 CURVE SMOOTH",
"298 28 OFFCURVE",
"334 -12 OFFCURVE",
"398 -12 CURVE SMOOTH",
"483 -12 OFFCURVE",
"538 62 OFFCURVE",
"573 130 CURVE",
"541 149 LINE",
"529 129 OFFCURVE",
"481 52 OFFCURVE",
"452 52 CURVE SMOOTH",
"442 52 OFFCURVE",
"434 56 OFFCURVE",
"434 63 CURVE SMOOTH",
"434 117 OFFCURVE",
"520 251 OFFCURVE",
"520 338 CURVE SMOOTH",
"520 419 OFFCURVE",
"470 482 OFFCURVE",
"394 482 CURVE SMOOTH",
"316 482 OFFCURVE",
"275 431 OFFCURVE",
"236 377 CURVE",
"234 379 LINE",
"314 678 LINE",
"90 674 LINE",
"80 638 LINE"
);
}
);
width = 630;
}
);
note = h;
unicode = 0068;
},
{
glyphname = i;
lastChange = "2017-06-09 11:40:29 +0000";
layers = (
{
layerId = "0E02FD82-E348-46EC-A7E4-43EEF3FEB87C";
paths = (
{
closed = 1;
nodes = (
"80 430 OFFCURVE",
"92 422 OFFCURVE",
"92 398 CURVE SMOOTH",
"92 348 OFFCURVE",
"16 181 OFFCURVE",
"16 90 CURVE SMOOTH",
"16 23 OFFCURVE",
"60 -12 OFFCURVE",
"120 -12 CURVE SMOOTH",
"206 -12 OFFCURVE",
"266 67 OFFCURVE",
"297 138 CURVE",
"265 156 LINE",
"252 135 OFFCURVE",
"210 52 OFFCURVE",
"177 52 CURVE SMOOTH",
"166 52 OFFCURVE",
"160 60 OFFCURVE",
"160 81 CURVE SMOOTH",
"160 116 OFFCURVE",
"257 442 OFFCURVE",
"266 472 CURVE",
"40 468 LINE",
"30 432 LINE"
);
},
{
closed = 1;
nodes = (
"144 567 OFFCURVE",
"184 534 OFFCURVE",
"224 534 CURVE SMOOTH",
"264 534 OFFCURVE",
"304 567 OFFCURVE",
"304 611 CURVE SMOOTH",
"304 655 OFFCURVE",
"264 688 OFFCURVE",
"224 688 CURVE SMOOTH",
"184 688 OFFCURVE",
"144 655 OFFCURVE",
"144 611 CURVE SMOOTH"
);
}
);
width = 352;
}
);
leftKerningGroup = i;
note = i;
unicode = 0069;
},
{
glyphname = j;
lastChange = "2017-06-09 11:40:29 +0000";
layers = (
{
layerId = "0E02FD82-E348-46EC-A7E4-43EEF3FEB87C";
paths = (
{
closed = 1;
nodes = (
"44 432 LINE",
"72 434 OFFCURVE",
"102 429 OFFCURVE",
"102 408 CURVE SMOOTH",
"102 392 OFFCURVE",
"93 360 OFFCURVE",
"85 327 CURVE SMOOTH",
"13 15 LINE SMOOTH",
"-8 -74 OFFCURVE",
"-12 -144 OFFCURVE",
"-78 -144 CURVE SMOOTH",
"-98 -144 OFFCURVE",
"-108 -137 OFFCURVE",
"-118 -124 CURVE",
"-84 -119 OFFCURVE",
"-56 -96 OFFCURVE",
"-56 -64 CURVE SMOOTH",
"-56 -32 OFFCURVE",
"-80 -8 OFFCURVE",
"-124 -8 CURVE SMOOTH",
"-164 -8 OFFCURVE",
"-192 -33 OFFCURVE",
"-192 -79 CURVE SMOOTH",
"-192 -130 OFFCURVE",
"-152 -182 OFFCURVE",
"-58 -182 CURVE SMOOTH",
"46 -182 OFFCURVE",
"128 -109 OFFCURVE",
"156 10 CURVE SMOOTH",
"266 472 LINE",
"54 468 LINE"
);
},
{
closed = 1;
nodes = (
"146 567 OFFCURVE",
"186 534 OFFCURVE",
"226 534 CURVE SMOOTH",
"266 534 OFFCURVE",
"306 567 OFFCURVE",
"306 611 CURVE SMOOTH",
"306 655 OFFCURVE",
"266 688 OFFCURVE",
"226 688 CURVE SMOOTH",
"186 688 OFFCURVE",
"146 655 OFFCURVE",
"146 611 CURVE SMOOTH"
);
}
);
width = 333;
}
);
note = j;
unicode = 006A;
},
{
glyphname = k;
lastChange = "2017-06-09 11:40:29 +0000";
layers = (
{
layerId = "0E02FD82-E348-46EC-A7E4-43EEF3FEB87C";
paths = (
{
closed = 1;
nodes = (
"138 636 OFFCURVE",
"156 630 OFFCURVE",
"156 606 CURVE SMOOTH",
"156 578 OFFCURVE",
"139 537 OFFCURVE",
"132 512 CURVE SMOOTH",
"-16 0 LINE",
"138 0 LINE",
"200 226 LINE",
"266 224 OFFCURVE",
"278 204 OFFCURVE",
"278 80 CURVE SMOOTH",
"278 16 OFFCURVE",
"310 -12 OFFCURVE",
"372 -12 CURVE SMOOTH",
"442 -12 OFFCURVE",
"492 38 OFFCURVE",
"544 132 CURVE",
"510 150 LINE",
"480 104 OFFCURVE",
"456 62 OFFCURVE",
"436 62 CURVE SMOOTH",
"416 62 OFFCURVE",
"436 115 OFFCURVE",
"411 166 CURVE SMOOTH",
"394 201 OFFCURVE",
"367 244 OFFCURVE",
"296 252 CURVE",
"296 254 LINE",
"373 286 OFFCURVE",
"411 400 OFFCURVE",
"424 400 CURVE SMOOTH",
"429 400 OFFCURVE",
"432 397 OFFCURVE",
"432 385 CURVE SMOOTH",
"432 363 OFFCURVE",
"453 340 OFFCURVE",
"485 340 CURVE SMOOTH",
"525 340 OFFCURVE",
"558 373 OFFCURVE",
"558 416 CURVE SMOOTH",
"558 446 OFFCURVE",
"532 482 OFFCURVE",
"485 482 CURVE SMOOTH",
"354 482 OFFCURVE",
"350 268 OFFCURVE",
"232 268 CURVE SMOOTH",
"212 268 LINE",
"330 678 LINE",
"102 674 LINE",
"92 638 LINE"
);
}
);
width = 611;
}
);
note = k;
unicode = 006B;
},
{
glyphname = l;
lastChange = "2017-06-09 11:40:29 +0000";
layers = (
{
layerId = "0E02FD82-E348-46EC-A7E4-43EEF3FEB87C";
paths = (
{
closed = 1;
nodes = (
"79 674 LINE",
"69 638 LINE",
"124 636 OFFCURVE",
"139 628 OFFCURVE",
"139 605 CURVE SMOOTH",
"139 594 OFFCURVE",
"133 577 OFFCURVE",
"130 565 CURVE SMOOTH",
"56 294 LINE SMOOTH",
"31 203 OFFCURVE",
"14 156 OFFCURVE",
"14 89 CURVE SMOOTH",
"14 32 OFFCURVE",
"47 -12 OFFCURVE",
"114 -12 CURVE SMOOTH",
"193 -12 OFFCURVE",
"247 60 OFFCURVE",
"279 124 CURVE",
"251 143 LINE",
"216 88 OFFCURVE",
"183 40 OFFCURVE",
"160 40 CURVE SMOOTH",
"150 40 OFFCURVE",
"144 45 OFFCURVE",
"144 54 CURVE SMOOTH",
"144 67 OFFCURVE",
"155 110 OFFCURVE",
"174 177 CURVE SMOOTH",
"313 678 LINE"
);
}
);
width = 333;
}
);
note = l;
unicode = 006C;
},
{
glyphname = m;
lastChange = "2017-06-09 11:40:29 +0000";
layers = (
{
layerId = "0E02FD82-E348-46EC-A7E4-43EEF3FEB87C";
paths = (
{
closed = 1;
nodes = (
"198 284 OFFCURVE",
"284 424 OFFCURVE",
"342 424 CURVE SMOOTH",
"360 424 OFFCURVE",
"370 414 OFFCURVE",
"370 397 CURVE SMOOTH",
"370 387 OFFCURVE",
"361 350 OFFCURVE",
"349 306 CURVE SMOOTH",
"267 0 LINE",
"405 0 LINE",
"423 68 LINE SMOOTH",
"478 277 OFFCURVE",
"558 424 OFFCURVE",
"615 424 CURVE SMOOTH",
"637 424 OFFCURVE",
"648 408 OFFCURVE",
"648 388 CURVE SMOOTH",
"648 327 OFFCURVE",
"564 183 OFFCURVE",
"564 94 CURVE SMOOTH",
"564 18 OFFCURVE",
"612 -12 OFFCURVE",
"656 -12 CURVE SMOOTH",
"741 -12 OFFCURVE",
"794 66 OFFCURVE",
"830 132 CURVE",
"798 152 LINE",
"790 132 OFFCURVE",
"740 52 OFFCURVE",
"713 52 CURVE SMOOTH",
"703 52 OFFCURVE",
"698 58 OFFCURVE",
"698 71 CURVE SMOOTH",
"698 128 OFFCURVE",
"778 268 OFFCURVE",
"778 347 CURVE SMOOTH",
"778 426 OFFCURVE",
"724 482 OFFCURVE",
"664 482 CURVE SMOOTH",
"594 482 OFFCURVE",
"544 436 OFFCURVE",
"497 362 CURVE",
"495 362 LINE",
"494 434 OFFCURVE",
"464 482 OFFCURVE",
"390 482 CURVE SMOOTH",
"318 482 OFFCURVE",
"274 440 OFFCURVE",
"226 364 CURVE",
"224 366 LINE",
"236 410 OFFCURVE",
"242 450 OFFCURVE",
"248 472 CURVE",
"52 468 LINE",
"42 432 LINE",
"90 430 OFFCURVE",
"98 422 OFFCURVE",
"98 404 CURVE SMOOTH",
"98 393 OFFCURVE",
"95 374 OFFCURVE",
"78 311 CURVE SMOOTH",
"-4 0 LINE",
"130 0 LINE"
);
}
);
width = 889;
}
);
note = m;
unicode = 006D;
},
{
glyphname = n;
lastChange = "2017-06-09 11:40:29 +0000";
layers = (
{
layerId = "0E02FD82-E348-46EC-A7E4-43EEF3FEB87C";
paths = (
{
closed = 1;
nodes = (
"95 430 OFFCURVE",
"102 422 OFFCURVE",
"102 404 CURVE SMOOTH",
"102 390 OFFCURVE",
"86 343 OFFCURVE",
"75 302 CURVE SMOOTH",
"-8 0 LINE",
"134 0 LINE",
"160 101 LINE SMOOTH",
"210 294 OFFCURVE",
"292 424 OFFCURVE",
"352 424 CURVE SMOOTH",
"378 424 OFFCURVE",
"390 409 OFFCURVE",
"390 386 CURVE SMOOTH",
"390 318 OFFCURVE",
"302 171 OFFCURVE",
"302 91 CURVE SMOOTH",
"302 16 OFFCURVE",
"354 -12 OFFCURVE",
"399 -12 CURVE SMOOTH",
"484 -12 OFFCURVE",
"539 65 OFFCURVE",
"576 132 CURVE",
"546 154 LINE",
"536 139 OFFCURVE",
"485 52 OFFCURVE",
"458 52 CURVE SMOOTH",
"444 52 OFFCURVE",
"440 62 OFFCURVE",
"440 72 CURVE SMOOTH",
"440 120 OFFCURVE",
"524 268 OFFCURVE",
"524 348 CURVE SMOOTH",
"524 420 OFFCURVE",
"478 482 OFFCURVE",
"400 482 CURVE SMOOTH",
"323 482 OFFCURVE",
"279 429 OFFCURVE",
"236 372 CURVE",
"234 374 LINE",
"242 410 OFFCURVE",
"250 448 OFFCURVE",
"256 472 CURVE",
"54 468 LINE",
"44 432 LINE"
);
}
);
width = 630;
}
);
note = n;
unicode = 006E;
},
{
glyphname = o;
lastChange = "2017-06-09 11:40:29 +0000";
layers = (
{
layerId = "0E02FD82-E348-46EC-A7E4-43EEF3FEB87C";
paths = (
{
closed = 1;
nodes = (
"-4 80 OFFCURVE",
"91 -12 OFFCURVE",
"206 -12 CURVE SMOOTH",
"368 -12 OFFCURVE",
"508 119 OFFCURVE",
"508 276 CURVE SMOOTH",
"508 390 OFFCURVE",
"413 482 OFFCURVE",
"298 482 CURVE SMOOTH",
"152 482 OFFCURVE",
"-4 351 OFFCURVE",
"-4 194 CURVE SMOOTH"
);
},
{
closed = 1;
nodes = (
"160 26 OFFCURVE",
"140 48 OFFCURVE",
"140 104 CURVE SMOOTH",
"140 204 OFFCURVE",
"204 444 OFFCURVE",
"300 444 CURVE SMOOTH",
"344 444 OFFCURVE",
"364 422 OFFCURVE",
"364 366 CURVE SMOOTH",
"364 242 OFFCURVE",
"296 26 OFFCURVE",
"204 26 CURVE SMOOTH"
);
}
);
width = 574;
}
);
leftKerningGroup = o;
note = o;
unicode = 006F;
},
{
glyphname = p;
lastChange = "2017-06-09 11:40:29 +0000";
layers = (
{
layerId = "0E02FD82-E348-46EC-A7E4-43EEF3FEB87C";
paths = (
{
closed = 1;
nodes = (
"219 -132 LINE",
"129 -130 OFFCURVE",
"113 -120 OFFCURVE",
"113 -99 CURVE SMOOTH",
"113 -77 OFFCURVE",
"124 -45 OFFCURVE",
"132 -14 CURVE SMOOTH",
"146 42 LINE",
"148 42 LINE",
"160 0 OFFCURVE",
"202 -12 OFFCURVE",
"234 -12 CURVE SMOOTH",
"386 -12 OFFCURVE",
"545 134 OFFCURVE",
"545 293 CURVE SMOOTH",
"545 396 OFFCURVE",
"488 482 OFFCURVE",
"384 482 CURVE SMOOTH",
"322 482 OFFCURVE",
"287 443 OFFCURVE",
"249 402 CURVE",
"247 404 LINE",
"263 472 LINE",
"37 468 LINE",
"27 432 LINE",
"82 430 OFFCURVE",
"97 422 OFFCURVE",
"97 399 CURVE SMOOTH",
"97 382 OFFCURVE",
"88 352 OFFCURVE",
"79 318 CURVE SMOOTH",
"-32 -91 LINE SMOOTH",
"-42 -126 OFFCURVE",
"-63 -130 OFFCURVE",
"-129 -132 CURVE",
"-139 -170 LINE",
"209 -170 LINE"
);
},
{
closed = 1;
nodes = (
"178 234 OFFCURVE",
"272 430 OFFCURVE",
"356 430 CURVE SMOOTH",
"385 430 OFFCURVE",
"397 405 OFFCURVE",
"397 343 CURVE SMOOTH",
"397 227 OFFCURVE",
"310 30 OFFCURVE",
"228 30 CURVE SMOOTH",
"210 30 OFFCURVE",
"178 40 OFFCURVE",
"178 90 CURVE SMOOTH"
);
}
);
width = 611;
}
);
leftKerningGroup = p;
note = p;
unicode = 0070;
},
{
glyphname = q;
lastChange = "2017-06-09 11:40:29 +0000";
layers = (
{
layerId = "0E02FD82-E348-46EC-A7E4-43EEF3FEB87C";
paths = (
{
closed = 1;
nodes = (
"144 228 OFFCURVE",
"214 440 OFFCURVE",
"308 440 CURVE SMOOTH",
"336 440 OFFCURVE",
"356 416 OFFCURVE",
"356 368 CURVE SMOOTH",
"356 254 OFFCURVE",
"276 30 OFFCURVE",
"184 30 CURVE SMOOTH",
"160 30 OFFCURVE",
"144 50 OFFCURVE",
"144 105 CURVE SMOOTH"
);
},
{
closed = 1;
nodes = (
"420 406 LINE",
"402 442 OFFCURVE",
"352 482 OFFCURVE",
"284 482 CURVE SMOOTH",
"114 482 OFFCURVE",
"-4 328 OFFCURVE",
"-4 185 CURVE SMOOTH",
"-4 58 OFFCURVE",
"78 -12 OFFCURVE",
"160 -12 CURVE SMOOTH",
"222 -12 OFFCURVE",
"260 16 OFFCURVE",
"296 64 CURVE",
"298 62 LINE",
"285 23 OFFCURVE",
"276 -18 OFFCURVE",
"248 -92 CURVE SMOOTH",
"238 -118 OFFCURVE",
"218 -130 OFFCURVE",
"132 -132 CURVE",
"122 -170 LINE",
"467 -170 LINE",
"477 -132 LINE",
"409 -130 OFFCURVE",
"399 -124 OFFCURVE",
"399 -105 CURVE SMOOTH",
"399 -72 OFFCURVE",
"524 397 OFFCURVE",
"545 470 CURVE",
"498 470 LINE"
);
}
);
width = 611;
}
);
leftKerningGroup = q;
note = q;
unicode = 0071;
},
{
glyphname = r;
lastChange = "2017-06-09 11:40:29 +0000";
layers = (
{
layerId = "0E02FD82-E348-46EC-A7E4-43EEF3FEB87C";
paths = (
{
closed = 1;
nodes = (
"173 129 LINE SMOOTH",
"217 280 OFFCURVE",
"288 404 OFFCURVE",
"342 424 CURVE",
"344 422 LINE",
"342 417 OFFCURVE",
"334 407 OFFCURVE",
"334 382 CURVE SMOOTH",
"334 348 OFFCURVE",
"352 326 OFFCURVE",
"392 326 CURVE SMOOTH",
"438 326 OFFCURVE",
"470 360 OFFCURVE",
"470 404 CURVE SMOOTH",
"470 449 OFFCURVE",
"433 482 OFFCURVE",
"389 482 CURVE SMOOTH",
"328 482 OFFCURVE",
"262 430 OFFCURVE",
"224 346 CURVE",
"222 348 LINE",
"246 472 LINE",
"48 468 LINE",
"38 432 LINE",
"79 430 OFFCURVE",
"94 422 OFFCURVE",
"94 399 CURVE SMOOTH",
"94 381 OFFCURVE",
"90 364 OFFCURVE",
"85 345 CURVE SMOOTH",
"0 0 LINE",
"135 0 LINE"
);
}
);
width = 481;
}
);
leftKerningGroup = r;
note = r;
rightKerningGroup = r;
unicode = 0072;
},
{
glyphname = s;
lastChange = "2017-06-09 11:40:29 +0000";
layers = (
{
layerId = "0E02FD82-E348-46EC-A7E4-43EEF3FEB87C";
paths = (
{
closed = 1;
nodes = (
"46 172 OFFCURVE",
"286 198 OFFCURVE",
"286 94 CURVE SMOOTH",
"286 64 OFFCURVE",
"244 26 OFFCURVE",
"162 26 CURVE SMOOTH",
"100 26 OFFCURVE",
"66 42 OFFCURVE",
"66 57 CURVE SMOOTH",
"66 61 OFFCURVE",
"116 68 OFFCURVE",
"116 122 CURVE SMOOTH",
"116 152 OFFCURVE",
"88 182 OFFCURVE",
"50 182 CURVE SMOOTH",
"2 182 OFFCURVE",
"-28 155 OFFCURVE",
"-28 113 CURVE SMOOTH",
"-28 30 OFFCURVE",
"64 -12 OFFCURVE",
"156 -12 CURVE SMOOTH",
"324 -12 OFFCURVE",
"422 62 OFFCURVE",
"422 152 CURVE SMOOTH",
"422 302 OFFCURVE",
"178 287 OFFCURVE",
"178 373 CURVE SMOOTH",
"178 414 OFFCURVE",
"225 444 OFFCURVE",
"276 444 CURVE SMOOTH",
"326 444 OFFCURVE",
"354 431 OFFCURVE",
"354 426 CURVE SMOOTH",
"354 423 OFFCURVE",
"312 420 OFFCURVE",
"312 374 CURVE SMOOTH",
"312 341 OFFCURVE",
"339 318 OFFCURVE",
"378 318 CURVE SMOOTH",
"426 318 OFFCURVE",
"448 340 OFFCURVE",
"448 384 CURVE SMOOTH",
"448 422 OFFCURVE",
"408 482 OFFCURVE",
"268 482 CURVE SMOOTH",
"147 482 OFFCURVE",
"46 418 OFFCURVE",
"46 326 CURVE SMOOTH"
);
}
);
width = 519;
}
);
leftKerningGroup = s;
note = s;
unicode = 0073;
},
{
glyphname = t;
lastChange = "2017-06-09 11:40:29 +0000";
layers = (
{
layerId = "0E02FD82-E348-46EC-A7E4-43EEF3FEB87C";
paths = (
{
closed = 1;
nodes = (
"150 608 LINE",
"112 470 LINE",
"28 470 LINE",
"18 428 LINE",
"100 428 LINE",
"42 217 LINE SMOOTH",
"33 184 OFFCURVE",
"26 151 OFFCURVE",
"26 117 CURVE SMOOTH",
"26 48 OFFCURVE",
"71 -12 OFFCURVE",
"144 -12 CURVE SMOOTH",
"229 -12 OFFCURVE",
"281 66 OFFCURVE",
"310 137 CURVE",
"277 155 LINE",
"259 120 OFFCURVE",
"220 36 OFFCURVE",
"170 36 CURVE SMOOTH",
"154 36 OFFCURVE",
"148 49 OFFCURVE",
"148 63 CURVE SMOOTH",
"148 88 OFFCURVE",
"158 123 OFFCURVE",
"165 147 CURVE SMOOTH",
"242 428 LINE",
"352 428 LINE",
"362 470 LINE",
"254 470 LINE",
"293 612 LINE"
);
}
);
width = 389;
}
);
leftKerningGroup = t;
note = t;
unicode = 0074;
},
{
glyphname = u;
lastChange = "2017-06-09 11:40:29 +0000";
layers = (
{
layerId = "0E02FD82-E348-46EC-A7E4-43EEF3FEB87C";
paths = (
{
closed = 1;
nodes = (
"82 432 OFFCURVE",
"102 424 OFFCURVE",
"102 396 CURVE SMOOTH",
"102 364 OFFCURVE",
"34 228 OFFCURVE",
"34 120 CURVE SMOOTH",
"34 30 OFFCURVE",
"90 -12 OFFCURVE",
"147 -12 CURVE SMOOTH",
"228 -12 OFFCURVE",
"274 44 OFFCURVE",
"322 116 CURVE",
"324 114 LINE",
"323 105 OFFCURVE",
"322 97 OFFCURVE",
"322 89 CURVE SMOOTH",
"322 35 OFFCURVE",
"349 -12 OFFCURVE",
"413 -12 CURVE SMOOTH",
"496 -12 OFFCURVE",
"547 71 OFFCURVE",
"580 136 CURVE",
"548 152 LINE",
"538 133 OFFCURVE",
"493 52 OFFCURVE",
"465 52 CURVE SMOOTH",
"456 52 OFFCURVE",
"448 58 OFFCURVE",
"448 78 CURVE SMOOTH",
"448 96 OFFCURVE",
"455 126 OFFCURVE",
"464 159 CURVE SMOOTH",
"546 472 LINE",
"402 468 LINE",
"385 394 LINE SMOOTH",
"329 150 OFFCURVE",
"240 46 OFFCURVE",
"192 46 CURVE SMOOTH",
"171 46 OFFCURVE",
"160 65 OFFCURVE",
"160 85 CURVE SMOOTH",
"160 120 OFFCURVE",
"230 338 OFFCURVE",
"270 472 CURVE",
"50 468 LINE",
"40 432 LINE"
);
}
);
width = 630;
}
);
leftKerningGroup = u;
note = u;
unicode = 0075;
},
{
glyphname = v;
lastChange = "2017-06-09 11:40:29 +0000";
layers = (
{
layerId = "0E02FD82-E348-46EC-A7E4-43EEF3FEB87C";
paths = (
{
closed = 1;
nodes = (
"86 430 OFFCURVE",
"96 420 OFFCURVE",
"96 400 CURVE SMOOTH",
"96 360 OFFCURVE",
"28 212 OFFCURVE",
"28 142 CURVE SMOOTH",
"28 52 OFFCURVE",
"94 -12 OFFCURVE",
"174 -12 CURVE SMOOTH",
"330 -12 OFFCURVE",
"456 202 OFFCURVE",
"456 370 CURVE SMOOTH",
"456 460 OFFCURVE",
"424 482 OFFCURVE",
"384 482 CURVE SMOOTH",
"344 482 OFFCURVE",
"322 460 OFFCURVE",
"322 421 CURVE SMOOTH",
"322 386 OFFCURVE",
"346 358 OFFCURVE",
"380 358 CURVE SMOOTH",
"394 358 OFFCURVE",
"405 364 OFFCURVE",
"408 364 CURVE SMOOTH",
"412 364 OFFCURVE",
"414 358 OFFCURVE",
"414 342 CURVE SMOOTH",
"414 246 OFFCURVE",
"312 30 OFFCURVE",
"200 30 CURVE SMOOTH",
"174 30 OFFCURVE",
"158 48 OFFCURVE",
"158 86 CURVE SMOOTH",
"158 124 OFFCURVE",
"172 163 OFFCURVE",
"182 198 CURVE SMOOTH",
"264 472 LINE",
"50 468 LINE",
"40 434 LINE"
);
}
);
width = 537;
}
);
leftKerningGroup = v;
note = v;
rightKerningGroup = v;
unicode = 0076;
},
{
glyphname = w;
lastChange = "2017-06-09 11:40:29 +0000";
layers = (
{
layerId = "0E02FD82-E348-46EC-A7E4-43EEF3FEB87C";
paths = (
{
closed = 1;
nodes = (
"77 430 OFFCURVE",
"98 414 OFFCURVE",
"98 395 CURVE SMOOTH",
"98 354 OFFCURVE",
"26 197 OFFCURVE",
"26 122 CURVE SMOOTH",
"26 45 OFFCURVE",
"73 -12 OFFCURVE",
"145 -12 CURVE SMOOTH",
"234 -12 OFFCURVE",
"276 58 OFFCURVE",
"316 114 CURVE",
"318 114 LINE",
"318 38 OFFCURVE",
"360 -12 OFFCURVE",
"437 -12 CURVE SMOOTH",
"618 -12 OFFCURVE",
"728 192 OFFCURVE",
"728 366 CURVE SMOOTH",
"728 442 OFFCURVE",
"702 482 OFFCURVE",
"656 482 CURVE SMOOTH",
"617 482 OFFCURVE",
"590 460 OFFCURVE",
"590 420 CURVE SMOOTH",
"590 386 OFFCURVE",
"612 362 OFFCURVE",
"646 362 CURVE SMOOTH",
"663 362 OFFCURVE",
"671 368 OFFCURVE",
"678 368 CURVE SMOOTH",
"682 368 OFFCURVE",
"686 362 OFFCURVE",
"686 350 CURVE SMOOTH",
"686 224 OFFCURVE",
"592 30 OFFCURVE",
"478 30 CURVE SMOOTH",
"458 30 OFFCURVE",
"444 40 OFFCURVE",
"444 65 CURVE SMOOTH",
"444 105 OFFCURVE",
"532 407 OFFCURVE",
"548 470 CURVE",
"400 470 LINE",
"377 390 OFFCURVE",
"352 272 OFFCURVE",
"316 190 CURVE SMOOTH",
"286 121 OFFCURVE",
"237 40 OFFCURVE",
"188 40 CURVE SMOOTH",
"172 40 OFFCURVE",
"162 49 OFFCURVE",
"162 68 CURVE SMOOTH",
"162 127 OFFCURVE",
"206 249 OFFCURVE",
"221 301 CURVE SMOOTH",
"270 472 LINE",
"46 468 LINE",
"36 432 LINE"
);
}
);
width = 815;
}
);
leftKerningGroup = w;
note = w;
rightKerningGroup = w;
unicode = 0077;
},
{
glyphname = x;
lastChange = "2017-06-09 11:40:29 +0000";
layers = (
{
layerId = "0E02FD82-E348-46EC-A7E4-43EEF3FEB87C";
paths = (
{
closed = 1;
nodes = (
"107 442 OFFCURVE",
"122 438 OFFCURVE",
"133 421 CURVE SMOOTH",
"152 392 OFFCURVE",
"158 343 OFFCURVE",
"174 277 CURVE SMOOTH",
"194 194 LINE",
"138 116 LINE SMOOTH",
"127 101 OFFCURVE",
"87 52 OFFCURVE",
"73 52 CURVE SMOOTH",
"70 52 OFFCURVE",
"68 54 OFFCURVE",
"68 57 CURVE SMOOTH",
"68 63 OFFCURVE",
"74 64 OFFCURVE",
"74 80 CURVE SMOOTH",
"74 114 OFFCURVE",
"52 132 OFFCURVE",
"19 132 CURVE SMOOTH",
"-20 132 OFFCURVE",
"-52 97 OFFCURVE",
"-52 59 CURVE SMOOTH",
"-52 10 OFFCURVE",
"-17 -12 OFFCURVE",
"28 -12 CURVE SMOOTH",
"92 -12 OFFCURVE",
"138 55 OFFCURVE",
"158 80 CURVE SMOOTH",
"208 144 LINE",
"223 99 LINE SMOOTH",
"249 20 OFFCURVE",
"268 -12 OFFCURVE",
"332 -12 CURVE SMOOTH",
"402 -12 OFFCURVE",
"463 71 OFFCURVE",
"488 127 CURVE",
"460 150 LINE",
"448 132 OFFCURVE",
"418 72 OFFCURVE",
"391 72 CURVE SMOOTH",
"376 72 OFFCURVE",
"365 99 OFFCURVE",
"360 122 CURVE SMOOTH",
"326 270 LINE",
"366 320 OFFCURVE",
"410 392 OFFCURVE",
"432 392 CURVE",
"434 371 OFFCURVE",
"453 342 OFFCURVE",
"487 342 CURVE SMOOTH",
"527 342 OFFCURVE",
"554 380 OFFCURVE",
"554 418 CURVE SMOOTH",
"554 458 OFFCURVE",
"526 482 OFFCURVE",
"492 482 CURVE SMOOTH",
"414 482 OFFCURVE",
"370 380 OFFCURVE",
"312 322 CURVE",
"274 482 LINE",
"78 482 LINE",
"68 444 LINE"
);
}
);
width = 593;
}
);
note = x;
unicode = 0078;
},
{
glyphname = y;
lastChange = "2017-06-09 11:40:29 +0000";
layers = (
{
layerId = "0E02FD82-E348-46EC-A7E4-43EEF3FEB87C";
paths = (
{
closed = 1;
nodes = (
"88 430 OFFCURVE",
"100 416 OFFCURVE",
"100 393 CURVE SMOOTH",
"100 350 OFFCURVE",
"28 214 OFFCURVE",
"28 132 CURVE SMOOTH",
"28 44 OFFCURVE",
"82 -4 OFFCURVE",
"144 -4 CURVE SMOOTH",
"218 -4 OFFCURVE",
"254 25 OFFCURVE",
"300 80 CURVE",
"302 78 LINE",
"290 36 OFFCURVE",
"276 -29 OFFCURVE",
"255 -75 CURVE SMOOTH",
"237 -115 OFFCURVE",
"190 -144 OFFCURVE",
"138 -144 CURVE SMOOTH",
"110 -144 OFFCURVE",
"96 -136 OFFCURVE",
"96 -129 CURVE",
"111 -120 OFFCURVE",
"126 -103 OFFCURVE",
"126 -80 CURVE SMOOTH",
"126 -48 OFFCURVE",
"102 -16 OFFCURVE",
"47 -16 CURVE SMOOTH",
"-4 -16 OFFCURVE",
"-28 -48 OFFCURVE",
"-28 -86 CURVE SMOOTH",
"-28 -135 OFFCURVE",
"16 -182 OFFCURVE",
"132 -182 CURVE SMOOTH",
"287 -182 OFFCURVE",
"396 -121 OFFCURVE",
"435 24 CURVE SMOOTH",
"556 470 LINE",
"414 470 LINE",
"347 243 LINE SMOOTH",
"323 160 OFFCURVE",
"245 48 OFFCURVE",
"191 48 CURVE SMOOTH",
"176 48 OFFCURVE",
"164 62 OFFCURVE",
"164 86 CURVE SMOOTH",
"164 122 OFFCURVE",
"180 168 OFFCURVE",
"274 472 CURVE",
"46 468 LINE",
"36 432 LINE"
);
}
);
width = 611;
}
);
leftKerningGroup = y;
note = y;
rightKerningGroup = y;
unicode = 0079;
},
{
glyphname = z;
lastChange = "2017-06-09 11:40:29 +0000";
layers = (
{
layerId = "0E02FD82-E348-46EC-A7E4-43EEF3FEB87C";
paths = (
{
closed = 1;
nodes = (
"426 140 OFFCURVE",
"397 104 OFFCURVE",
"352 104 CURVE SMOOTH",
"302 104 OFFCURVE",
"278 142 OFFCURVE",
"206 142 CURVE SMOOTH",
"151 142 OFFCURVE",
"124 123 OFFCURVE",
"68 94 CURVE",
"66 96 LINE",
"98 127 OFFCURVE",
"121 152 OFFCURVE",
"180 180 CURVE SMOOTH",
"348 258 OFFCURVE",
"453 315 OFFCURVE",
"534 460 CURVE",
"506 482 LINE",
"480 453 OFFCURVE",
"455 442 OFFCURVE",
"416 442 CURVE SMOOTH",
"376 442 OFFCURVE",
"304 482 OFFCURVE",
"244 482 CURVE SMOOTH",
"160 482 OFFCURVE",
"80 400 OFFCURVE",
"50 304 CURVE",
"80 286 LINE",
"104 348 OFFCURVE",
"124 366 OFFCURVE",
"149 366 CURVE SMOOTH",
"197 366 OFFCURVE",
"236 344 OFFCURVE",
"294 344 CURVE SMOOTH",
"341 344 OFFCURVE",
"389 362 OFFCURVE",
"430 384 CURVE",
"432 382 LINE",
"407 349 OFFCURVE",
"346 314 OFFCURVE",
"267 275 CURVE SMOOTH",
"155 220 OFFCURVE",
"18 134 OFFCURVE",
"-42 4 CURVE",
"-10 -12 LINE",
"20 24 OFFCURVE",
"35 36 OFFCURVE",
"80 36 CURVE SMOOTH",
"164 36 OFFCURVE",
"198 -12 OFFCURVE",
"271 -12 CURVE SMOOTH",
"382 -12 OFFCURVE",
"437 68 OFFCURVE",
"472 166 CURVE",
"440 180 LINE"
);
}
);
width = 574;
}
);
note = z;
unicode = 007A;
},
{
glyphname = braceleft;
lastChange = "2017-06-09 11:40:29 +0000";
layers = (
{
layerId = "0E02FD82-E348-46EC-A7E4-43EEF3FEB87C";
paths = (
{
closed = 1;
nodes = (
"302 700 OFFCURVE",
"243 679 OFFCURVE",
"210 558 CURVE SMOOTH",
"160 377 LINE SMOOTH",
"141 310 OFFCURVE",
"121 278 OFFCURVE",
"58 260 CURVE",
"91 248 OFFCURVE",
"104 230 OFFCURVE",
"104 202 CURVE SMOOTH",
"104 186 OFFCURVE",
"102 166 OFFCURVE",
"95 142 CURVE SMOOTH",
"45 -39 LINE SMOOTH",
"38 -63 OFFCURVE",
"34 -83 OFFCURVE",
"34 -100 CURVE SMOOTH",
"34 -168 OFFCURVE",
"83 -182 OFFCURVE",
"180 -182 CURVE",
"184 -168 LINE",
"152 -158 OFFCURVE",
"140 -139 OFFCURVE",
"140 -105 CURVE SMOOTH",
"140 -88 OFFCURVE",
"143 -68 OFFCURVE",
"150 -44 CURVE SMOOTH",
"197 127 LINE SMOOTH",
"204 153 OFFCURVE",
"210 175 OFFCURVE",
"210 194 CURVE SMOOTH",
"210 226 OFFCURVE",
"194 247 OFFCURVE",
"156 258 CURVE",
"156 260 LINE",
"227 278 OFFCURVE",
"250 319 OFFCURVE",
"270 391 CURVE SMOOTH",
"317 563 LINE SMOOTH",
"336 633 OFFCURVE",
"365 671 OFFCURVE",
"420 686 CURVE",
"424 700 LINE"
);
}
);
width = 426;
}
);
note = braceleft;
unicode = 007B;
},
{
glyphname = bar;
lastChange = "2017-06-09 11:40:29 +0000";
layers = (
{
layerId = "0E02FD82-E348-46EC-A7E4-43EEF3FEB87C";
paths = (
{
closed = 1;
nodes = (
"162 0 LINE",
"162 700 LINE",
"60 700 LINE",
"60 0 LINE"
);
}
);
width = 222;
}
);
note = bar;
unicode = 007C;
},
{
glyphname = braceright;
lastChange = "2017-06-09 11:40:29 +0000";
layers = (
{
layerId = "0E02FD82-E348-46EC-A7E4-43EEF3FEB87C";
paths = (
{
closed = 1;
nodes = (
"69 -182 OFFCURVE",
"128 -161 OFFCURVE",
"161 -40 CURVE SMOOTH",
"211 141 LINE SMOOTH",
"230 208 OFFCURVE",
"250 240 OFFCURVE",
"313 258 CURVE",
"280 270 OFFCURVE",
"267 288 OFFCURVE",
"267 316 CURVE SMOOTH",
"267 332 OFFCURVE",
"269 352 OFFCURVE",
"276 376 CURVE SMOOTH",
"326 557 LINE SMOOTH",
"333 581 OFFCURVE",
"337 601 OFFCURVE",
"337 618 CURVE SMOOTH",
"337 686 OFFCURVE",
"288 700 OFFCURVE",
"191 700 CURVE",
"187 686 LINE",
"219 676 OFFCURVE",
"231 657 OFFCURVE",
"231 623 CURVE SMOOTH",
"231 606 OFFCURVE",
"228 586 OFFCURVE",
"221 562 CURVE SMOOTH",
"174 391 LINE SMOOTH",
"167 365 OFFCURVE",
"161 343 OFFCURVE",
"161 324 CURVE SMOOTH",
"161 292 OFFCURVE",
"177 271 OFFCURVE",
"215 260 CURVE",
"215 258 LINE",
"144 240 OFFCURVE",
"121 199 OFFCURVE",
"101 127 CURVE SMOOTH",
"54 -45 LINE SMOOTH",
"35 -115 OFFCURVE",
"6 -153 OFFCURVE",
"-49 -168 CURVE",
"-53 -182 LINE"
);
}
);
width = 426;
}
);
note = braceright;
unicode = 007D;
},
{
glyphname = asciitilde;
lastChange = "2017-06-09 11:40:29 +0000";
layers = (
{
layerId = "0E02FD82-E348-46EC-A7E4-43EEF3FEB87C";
paths = (
{
closed = 1;
nodes = (
"464 289 OFFCURVE",
"439 252 OFFCURVE",
"400 252 CURVE SMOOTH",
"373 252 OFFCURVE",
"336 272 OFFCURVE",
"300 288 CURVE SMOOTH",
"262 304 OFFCURVE",
"224 320 OFFCURVE",
"191 320 CURVE SMOOTH",
"125 320 OFFCURVE",
"89 276 OFFCURVE",
"68 234 CURVE",
"103 146 LINE",
"119 181 OFFCURVE",
"143 218 OFFCURVE",
"186 218 CURVE SMOOTH",
"231 218 OFFCURVE",
"267 200 OFFCURVE",
"299 183 CURVE SMOOTH",
"331 165 OFFCURVE",
"363 150 OFFCURVE",
"399 150 CURVE SMOOTH",
"460 150 OFFCURVE",
"492 193 OFFCURVE",
"522 236 CURVE",
"487 324 LINE"
);
}
);
width = 600;
}
);
note = asciitilde;
unicode = 007E;
},
{
glyphname = exclamdown;
lastChange = "2017-06-09 11:40:29 +0000";
layers = (
{
layerId = "0E02FD82-E348-46EC-A7E4-43EEF3FEB87C";
paths = (
{
closed = 1;
nodes = (
"109 137 OFFCURVE",
"-14 -1 OFFCURVE",
"-14 -102 CURVE SMOOTH",
"-14 -160 OFFCURVE",
"10 -182 OFFCURVE",
"60 -182 CURVE SMOOTH",
"118 -182 OFFCURVE",
"172 -103 OFFCURVE",
"172 -7 CURVE SMOOTH",
"172 158 OFFCURVE",
"183 235 OFFCURVE",
"202 312 CURVE",
"154 312 LINE"
);
},
{
closed = 1;
nodes = (
"290 498 OFFCURVE",
"257 530 OFFCURVE",
"216 530 CURVE SMOOTH",
"175 530 OFFCURVE",
"142 498 OFFCURVE",
"142 456 CURVE SMOOTH",
"142 414 OFFCURVE",
"175 382 OFFCURVE",
"216 382 CURVE SMOOTH",
"257 382 OFFCURVE",
"290 414 OFFCURVE",
"290 456 CURVE SMOOTH"
);
}
);
width = 370;
}
);
note = exclamdown;
unicode = 00A1;
},
{
glyphname = cent;
lastChange = "2017-06-09 11:40:29 +0000";
layers = (
{
layerId = "0E02FD82-E348-46EC-A7E4-43EEF3FEB87C";
paths = (
{
closed = 1;
nodes = (
"450 680 LINE",
"406 574 LINE",
"391 576 OFFCURVE",
"376 578 OFFCURVE",
"363 578 CURVE SMOOTH",
"220 578 OFFCURVE",
"72 462 OFFCURVE",
"72 304 CURVE SMOOTH",
"72 196 OFFCURVE",
"144 148 OFFCURVE",
"216 124 CURVE",
"158 -12 LINE",
"200 -12 LINE",
"254 116 LINE",
"260 115 OFFCURVE",
"268 115 OFFCURVE",
"279 115 CURVE SMOOTH",
"355 115 OFFCURVE",
"426 151 OFFCURVE",
"475 267 CURVE",
"443 281 LINE",
"416 220 OFFCURVE",
"366 157 OFFCURVE",
"297 157 CURVE SMOOTH",
"289 157 OFFCURVE",
"281 158 OFFCURVE",
"272 160 CURVE",
"384 424 LINE",
"401 416 OFFCURVE",
"415 406 OFFCURVE",
"435 406 CURVE SMOOTH",
"476 406 OFFCURVE",
"506 441 OFFCURVE",
"506 480 CURVE SMOOTH",
"506 516 OFFCURVE",
"484 550 OFFCURVE",
"446 568 CURVE",
"495 680 LINE"
);
},
{
closed = 1;
nodes = (
"206 192 OFFCURVE",
"194 234 OFFCURVE",
"194 270 CURVE SMOOTH",
"194 406 OFFCURVE",
"306 536 OFFCURVE",
"382 536 CURVE SMOOTH",
"390 536 OFFCURVE",
"400 533 OFFCURVE",
"400 523 CURVE SMOOTH",
"400 506 OFFCURVE",
"380 500 OFFCURVE",
"370 477 CURVE SMOOTH",
"240 174 LINE"
);
}
);
width = 574;
}
);
note = cent;
unicode = 00A2;
},
{
glyphname = sterling;
lastChange = "2017-06-09 11:40:29 +0000";
layers = (
{
layerId = "0E02FD82-E348-46EC-A7E4-43EEF3FEB87C";
paths = (
{
closed = 1;
nodes = (
"263 275 OFFCURVE",
"273 246 OFFCURVE",
"273 218 CURVE SMOOTH",
"273 184 OFFCURVE",
"250 132 OFFCURVE",
"224 110 CURVE",
"170 148 OFFCURVE",
"107 192 OFFCURVE",
"39 192 CURVE SMOOTH",
"-38 192 OFFCURVE",
"-82 146 OFFCURVE",
"-82 89 CURVE SMOOTH",
"-82 30 OFFCURVE",
"-28 -12 OFFCURVE",
"72 -12 CURVE SMOOTH",
"124 -12 OFFCURVE",
"176 7 OFFCURVE",
"222 30 CURVE",
"250 9 OFFCURVE",
"293 -6 OFFCURVE",
"328 -6 CURVE SMOOTH",
"418 -6 OFFCURVE",
"466 56 OFFCURVE",
"514 122 CURVE",
"482 146 LINE",
"449 102 OFFCURVE",
"388 46 OFFCURVE",
"342 46 CURVE SMOOTH",
"319 46 OFFCURVE",
"303 58 OFFCURVE",
"285 70 CURVE",
"354 122 OFFCURVE",
"407 180 OFFCURVE",
"407 270 CURVE SMOOTH",
"407 279 OFFCURVE",
"407 287 OFFCURVE",
"406 296 CURVE",
"538 296 LINE",
"546 338 LINE",
"392 338 LINE",
"368 396 OFFCURVE",
"250 480 OFFCURVE",
"250 554 CURVE SMOOTH",
"250 612 OFFCURVE",
"296 662 OFFCURVE",
"354 662 CURVE SMOOTH",
"382 662 OFFCURVE",
"404 652 OFFCURVE",
"404 643 CURVE SMOOTH",
"404 636 OFFCURVE",
"370 636 OFFCURVE",
"370 581 CURVE SMOOTH",
"370 540 OFFCURVE",
"398 520 OFFCURVE",
"438 520 CURVE SMOOTH",
"472 520 OFFCURVE",
"504 544 OFFCURVE",
"504 600 CURVE SMOOTH",
"504 652 OFFCURVE",
"454 700 OFFCURVE",
"345 700 CURVE SMOOTH",
"242 700 OFFCURVE",
"116 628 OFFCURVE",
"116 519 CURVE SMOOTH",
"116 439 OFFCURVE",
"166 396 OFFCURVE",
"214 338 CURVE",
"40 338 LINE",
"32 296 LINE",
"244 296 LINE"
);
},
{
closed = 1;
nodes = (
"10 96 OFFCURVE",
"26 108 OFFCURVE",
"54 108 CURVE SMOOTH",
"102 108 OFFCURVE",
"140 83 OFFCURVE",
"170 62 CURVE",
"141 44 OFFCURVE",
"110 30 OFFCURVE",
"76 30 CURVE SMOOTH",
"34 30 OFFCURVE",
"10 54 OFFCURVE",
"10 75 CURVE SMOOTH"
);
}
);
width = 574;
}
);
note = sterling;
unicode = 00A3;
},
{
glyphname = fraction;
lastChange = "2017-06-09 11:40:29 +0000";
layers = (
{
layerId = "0E02FD82-E348-46EC-A7E4-43EEF3FEB87C";
paths = (
{
closed = 1;
nodes = (
"278 700 LINE",
"-167 -12 LINE",
"-111 -12 LINE",
"334 700 LINE"
);
}
);
width = 167;
}
);
note = fraction;
unicode = 2044;
},
{
glyphname = yen;
lastChange = "2017-06-09 11:40:29 +0000";
layers = (
{
layerId = "0E02FD82-E348-46EC-A7E4-43EEF3FEB87C";
paths = (
{
closed = 1;
nodes = (
"167 246 LINE",
"133 112 LINE SMOOTH",
"122 68 OFFCURVE",
"112 44 OFFCURVE",
"20 42 CURVE",
"11 0 LINE",
"351 0 LINE",
"360 42 LINE",
"288 44 OFFCURVE",
"279 56 OFFCURVE",
"279 83 CURVE SMOOTH",
"279 95 OFFCURVE",
"288 129 OFFCURVE",
"296 162 CURVE SMOOTH",
"317 246 LINE",
"468 246 LINE",
"478 288 LINE",
"327 288 LINE",
"329 296 LINE",
"367 350 LINE",
"512 350 LINE",
"524 392 LINE",
"397 392 LINE",
"532 583 LINE SMOOTH",
"565 630 OFFCURVE",
"593 644 OFFCURVE",
"644 646 CURVE",
"653 688 LINE",
"428 688 LINE",
"419 646 LINE",
"480 644 OFFCURVE",
"489 636 OFFCURVE",
"489 620 CURVE SMOOTH",
"489 604 OFFCURVE",
"469 572 OFFCURVE",
"446 540 CURVE SMOOTH",
"319 358 LINE",
"275 518 LINE SMOOTH",
"266 552 OFFCURVE",
"257 579 OFFCURVE",
"257 608 CURVE SMOOTH",
"257 638 OFFCURVE",
"279 644 OFFCURVE",
"336 646 CURVE",
"345 688 LINE",
"51 688 LINE",
"42 646 LINE",
"92 644 OFFCURVE",
"100 632 OFFCURVE",
"106 610 CURVE SMOOTH",
"161 392 LINE",
"64 392 LINE",
"52 350 LINE",
"172 350 LINE",
"182 308 LINE",
"177 288 LINE",
"34 288 LINE",
"24 246 LINE"
);
}
);
width = 574;
}
);
note = yen;
unicode = 00A5;
},
{
glyphname = florin;
lastChange = "2017-06-09 11:40:29 +0000";
layers = (
{
layerId = "0E02FD82-E348-46EC-A7E4-43EEF3FEB87C";
paths = (
{
closed = 1;
nodes = (
"203 262 OFFCURVE",
"173 129 OFFCURVE",
"154 -7 CURVE SMOOTH",
"144 -77 OFFCURVE",
"119 -140 OFFCURVE",
"58 -140 CURVE SMOOTH",
"44 -140 OFFCURVE",
"26 -139 OFFCURVE",
"16 -128 CURVE",
"41 -125 OFFCURVE",
"72 -96 OFFCURVE",
"72 -69 CURVE SMOOTH",
"72 -29 OFFCURVE",
"49 -6 OFFCURVE",
"9 -6 CURVE SMOOTH",
"-32 -6 OFFCURVE",
"-66 -36 OFFCURVE",
"-66 -89 CURVE SMOOTH",
"-66 -144 OFFCURVE",
"-18 -182 OFFCURVE",
"50 -182 CURVE SMOOTH",
"130 -182 OFFCURVE",
"219 -126 OFFCURVE",
"270 -22 CURVE SMOOTH",
"308 56 OFFCURVE",
"335 176 OFFCURVE",
"350 255 CURVE SMOOTH",
"376 396 LINE",
"482 396 LINE",
"492 438 LINE",
"383 438 LINE",
"399 547 LINE SMOOTH",
"411 627 OFFCURVE",
"436 658 OFFCURVE",
"482 658 CURVE SMOOTH",
"490 658 OFFCURVE",
"500 656 OFFCURVE",
"508 650 CURVE",
"483 641 OFFCURVE",
"460 620 OFFCURVE",
"460 592 CURVE SMOOTH",
"460 556 OFFCURVE",
"486 536 OFFCURVE",
"518 536 CURVE SMOOTH",
"560 536 OFFCURVE",
"594 574 OFFCURVE",
"594 614 CURVE SMOOTH",
"594 657 OFFCURVE",
"560 700 OFFCURVE",
"484 700 CURVE SMOOTH",
"388 700 OFFCURVE",
"284 622 OFFCURVE",
"244 438 CURVE",
"136 438 LINE",
"126 396 LINE",
"231 396 LINE"
);
}
);
width = 574;
}
);
note = florin;
unicode = 0192;
},
{
glyphname = section;
lastChange = "2017-06-09 11:40:29 +0000";
layers = (
{
layerId = "0E02FD82-E348-46EC-A7E4-43EEF3FEB87C";
paths = (
{
closed = 1;
nodes = (
"199 447 OFFCURVE",
"183 448 OFFCURVE",
"171 448 CURVE SMOOTH",
"101 448 OFFCURVE",
"46 396 OFFCURVE",
"46 310 CURVE SMOOTH",
"46 184 OFFCURVE",
"230 70 OFFCURVE",
"230 -24 CURVE SMOOTH",
"230 -62 OFFCURVE",
"196 -92 OFFCURVE",
"140 -92 CURVE SMOOTH",
"100 -92 OFFCURVE",
"76 -78 OFFCURVE",
"76 -68 CURVE SMOOTH",
"76 -59 OFFCURVE",
"112 -52 OFFCURVE",
"112 -14 CURVE SMOOTH",
"112 18 OFFCURVE",
"90 36 OFFCURVE",
"61 36 CURVE SMOOTH",
"24 36 OFFCURVE",
"0 14 OFFCURVE",
"0 -28 CURVE SMOOTH",
"0 -72 OFFCURVE",
"48 -126 OFFCURVE",
"133 -126 CURVE SMOOTH",
"246 -126 OFFCURVE",
"310 -52 OFFCURVE",
"310 24 CURVE SMOOTH",
"310 58 OFFCURVE",
"289 93 OFFCURVE",
"256 136 CURVE",
"267 135 OFFCURVE",
"277 134 OFFCURVE",
"286 134 CURVE SMOOTH",
"353 134 OFFCURVE",
"418 195 OFFCURVE",
"418 278 CURVE SMOOTH",
"418 388 OFFCURVE",
"232 517 OFFCURVE",
"232 596 CURVE SMOOTH",
"232 637 OFFCURVE",
"267 666 OFFCURVE",
"320 666 CURVE SMOOTH",
"358 666 OFFCURVE",
"367 657 OFFCURVE",
"377 641 CURVE",
"362 633 OFFCURVE",
"342 617 OFFCURVE",
"342 590 CURVE SMOOTH",
"342 566 OFFCURVE",
"364 542 OFFCURVE",
"392 542 CURVE SMOOTH",
"430 542 OFFCURVE",
"454 570 OFFCURVE",
"454 602 CURVE SMOOTH",
"454 656 OFFCURVE",
"405 700 OFFCURVE",
"320 700 CURVE SMOOTH",
"234 700 OFFCURVE",
"164 644 OFFCURVE",
"164 556 CURVE SMOOTH",
"164 512 OFFCURVE",
"181 475 OFFCURVE",
"216 438 CURVE",
"214 436 LINE"
);
},
{
closed = 1;
nodes = (
"338 196 OFFCURVE",
"314 164 OFFCURVE",
"275 164 CURVE SMOOTH",
"251 164 OFFCURVE",
"218 183 OFFCURVE",
"172 244 CURVE SMOOTH",
"142 284 OFFCURVE",
"120 319 OFFCURVE",
"120 354 CURVE SMOOTH",
"120 395 OFFCURVE",
"153 418 OFFCURVE",
"185 418 CURVE SMOOTH",
"217 418 OFFCURVE",
"257 376 OFFCURVE",
"307 308 CURVE SMOOTH",
"331 275 OFFCURVE",
"338 257 OFFCURVE",
"338 230 CURVE SMOOTH"
);
}
);
width = 500;
}
);
note = section;
unicode = 00A7;
},
{
glyphname = currency;
lastChange = "2017-06-09 11:40:29 +0000";
layers = (
{
layerId = "0E02FD82-E348-46EC-A7E4-43EEF3FEB87C";
paths = (
{
closed = 1;
nodes = (
"149 139 LINE",
"177 114 OFFCURVE",
"231 96 OFFCURVE",
"287 96 CURVE SMOOTH",
"343 96 OFFCURVE",
"397 114 OFFCURVE",
"425 139 CURVE",
"483 82 LINE",
"547 146 LINE",
"492 202 LINE",
"519 232 OFFCURVE",
"535 288 OFFCURVE",
"535 344 CURVE SMOOTH",
"535 400 OFFCURVE",
"519 456 OFFCURVE",
"492 486 CURVE",
"547 542 LINE",
"483 606 LINE",
"425 549 LINE",
"397 574 OFFCURVE",
"343 592 OFFCURVE",
"287 592 CURVE SMOOTH",
"231 592 OFFCURVE",
"177 574 OFFCURVE",
"149 549 CURVE",
"91 606 LINE",
"27 542 LINE",
"82 486 LINE",
"55 456 OFFCURVE",
"39 400 OFFCURVE",
"39 344 CURVE SMOOTH",
"39 288 OFFCURVE",
"55 232 OFFCURVE",
"82 202 CURVE",
"27 146 LINE",
"91 82 LINE"
);
},
{
closed = 1;
nodes = (
"147 422 OFFCURVE",
"206 490 OFFCURVE",
"287 490 CURVE SMOOTH",
"368 490 OFFCURVE",
"427 422 OFFCURVE",
"427 344 CURVE SMOOTH",
"427 266 OFFCURVE",
"368 198 OFFCURVE",
"287 198 CURVE SMOOTH",
"206 198 OFFCURVE",
"147 266 OFFCURVE",
"147 344 CURVE SMOOTH"
);
}
);
width = 574;
}
);
note = currency;
unicode = 00A4;
},
{
glyphname = quotesingle;
lastChange = "2017-06-09 11:40:29 +0000";
layers = (
{
layerId = "0E02FD82-E348-46EC-A7E4-43EEF3FEB87C";
paths = (
{
closed = 1;
nodes = (
"192 616 OFFCURVE",
"194 630 OFFCURVE",
"194 642 CURVE SMOOTH",
"194 680 OFFCURVE",
"175 700 OFFCURVE",
"144 700 CURVE SMOOTH",
"113 700 OFFCURVE",
"94 680 OFFCURVE",
"94 642 CURVE SMOOTH",
"94 630 OFFCURVE",
"96 616 OFFCURVE",
"98 596 CURVE SMOOTH",
"114 428 LINE SMOOTH",
"116 402 OFFCURVE",
"129 388 OFFCURVE",
"144 388 CURVE SMOOTH",
"159 388 OFFCURVE",
"172 402 OFFCURVE",
"174 428 CURVE SMOOTH",
"190 596 LINE SMOOTH"
);
}
);
width = 222;
}
);
note = quotesingle;
unicode = 0027;
},
{
glyphname = quotedblleft;
lastChange = "2017-06-09 11:40:29 +0000";
layers = (
{
layerId = "0E02FD82-E348-46EC-A7E4-43EEF3FEB87C";
paths = (
{
closed = 1;
nodes = (
"438 654 OFFCURVE",
"352 564 OFFCURVE",
"352 467 CURVE SMOOTH",
"352 400 OFFCURVE",
"388 366 OFFCURVE",
"442 366 CURVE SMOOTH",
"476 366 OFFCURVE",
"510 396 OFFCURVE",
"510 440 CURVE SMOOTH",
"510 486 OFFCURVE",
"482 510 OFFCURVE",
"422 512 CURVE",
"424 576 OFFCURVE",
"490 626 OFFCURVE",
"548 666 CURVE",
"522 700 LINE"
);
},
{
closed = 1;
nodes = (
"178 654 OFFCURVE",
"92 564 OFFCURVE",
"92 467 CURVE SMOOTH",
"92 400 OFFCURVE",
"128 366 OFFCURVE",
"182 366 CURVE SMOOTH",
"216 366 OFFCURVE",
"250 396 OFFCURVE",
"250 440 CURVE SMOOTH",
"250 486 OFFCURVE",
"222 510 OFFCURVE",
"162 512 CURVE",
"164 576 OFFCURVE",
"230 626 OFFCURVE",
"288 666 CURVE",
"262 700 LINE"
);
}
);
width = 537;
}
);
note = quotedblleft;
unicode = 201C;
},
{
glyphname = guillemotleft;
lastChange = "2017-06-09 11:40:29 +0000";
layers = (
{
layerId = "0E02FD82-E348-46EC-A7E4-43EEF3FEB87C";
paths = (
{
closed = 1;
nodes = (
"102 131 OFFCURVE",
"136 51 OFFCURVE",
"153 51 CURVE SMOOTH",
"160 51 OFFCURVE",
"166 56 OFFCURVE",
"166 65 CURVE SMOOTH",
"166 83 OFFCURVE",
"134 171 OFFCURVE",
"98 227 CURVE",
"160 290 OFFCURVE",
"234 383 OFFCURVE",
"234 403 CURVE SMOOTH",
"234 416 OFFCURVE",
"229 419 OFFCURVE",
"223 419 CURVE SMOOTH",
"211 419 OFFCURVE",
"126 331 OFFCURVE",
"6 237 CURVE",
"6 225 LINE"
);
},
{
closed = 1;
nodes = (
"288 131 OFFCURVE",
"322 51 OFFCURVE",
"339 51 CURVE SMOOTH",
"346 51 OFFCURVE",
"352 56 OFFCURVE",
"352 65 CURVE SMOOTH",
"352 83 OFFCURVE",
"320 171 OFFCURVE",
"284 227 CURVE",
"346 290 OFFCURVE",
"420 383 OFFCURVE",
"420 403 CURVE SMOOTH",
"420 416 OFFCURVE",
"415 419 OFFCURVE",
"409 419 CURVE SMOOTH",
"397 419 OFFCURVE",
"312 331 OFFCURVE",
"192 237 CURVE",
"192 225 LINE"
);
}
);
width = 500;
}
);
note = guillemotleft;
unicode = 00AB;
},
{
glyphname = guilsinglleft;
lastChange = "2017-06-09 11:40:29 +0000";
layers = (
{
layerId = "0E02FD82-E348-46EC-A7E4-43EEF3FEB87C";
paths = (
{
closed = 1;
nodes = (
"112 131 OFFCURVE",
"146 51 OFFCURVE",
"163 51 CURVE SMOOTH",
"170 51 OFFCURVE",
"176 56 OFFCURVE",
"176 65 CURVE SMOOTH",
"176 83 OFFCURVE",
"144 171 OFFCURVE",
"108 227 CURVE",
"170 290 OFFCURVE",
"244 383 OFFCURVE",
"244 403 CURVE SMOOTH",
"244 416 OFFCURVE",
"239 419 OFFCURVE",
"233 419 CURVE SMOOTH",
"221 419 OFFCURVE",
"136 331 OFFCURVE",
"16 237 CURVE",
"16 225 LINE"
);
}
);
width = 333;
}
);
note = guilsinglleft;
unicode = 2039;
},
{
glyphname = guilsinglright;
lastChange = "2017-06-09 11:40:29 +0000";
layers = (
{
layerId = "0E02FD82-E348-46EC-A7E4-43EEF3FEB87C";
paths = (
{
closed = 1;
nodes = (
"148 339 OFFCURVE",
"114 419 OFFCURVE",
"97 419 CURVE SMOOTH",
"90 419 OFFCURVE",
"84 414 OFFCURVE",
"84 405 CURVE SMOOTH",
"84 387 OFFCURVE",
"116 299 OFFCURVE",
"152 243 CURVE",
"90 180 OFFCURVE",
"16 87 OFFCURVE",
"16 67 CURVE SMOOTH",
"16 54 OFFCURVE",
"21 51 OFFCURVE",
"27 51 CURVE SMOOTH",
"39 51 OFFCURVE",
"124 139 OFFCURVE",
"244 233 CURVE",
"244 245 LINE"
);
}
);
width = 333;
}
);
note = guilsinglright;
unicode = 203A;
},
{
glyphname = fi;
lastChange = "2017-06-09 11:40:29 +0000";
layers = (
{
layerId = "0E02FD82-E348-46EC-A7E4-43EEF3FEB87C";
paths = (
{
closed = 1;
nodes = (
"596 140 OFFCURVE",
"557 56 OFFCURVE",
"525 56 CURVE SMOOTH",
"518 56 OFFCURVE",
"506 65 OFFCURVE",
"506 78 CURVE SMOOTH",
"506 91 OFFCURVE",
"516 132 OFFCURVE",
"531 193 CURVE SMOOTH",
"600 472 LINE",
"557 471 OFFCURVE",
"513 470 OFFCURVE",
"470 470 CURVE SMOOTH",
"264 470 LINE",
"277 520 LINE SMOOTH",
"300 608 OFFCURVE",
"347 650 OFFCURVE",
"413 650 CURVE SMOOTH",
"451 650 OFFCURVE",
"478 637 OFFCURVE",
"478 629 CURVE SMOOTH",
"478 624 OFFCURVE",
"444 620 OFFCURVE",
"444 576 CURVE SMOOTH",
"444 538 OFFCURVE",
"478 520 OFFCURVE",
"512 520 CURVE SMOOTH",
"564 520 OFFCURVE",
"588 550 OFFCURVE",
"588 586 CURVE SMOOTH",
"588 638 OFFCURVE",
"522 688 OFFCURVE",
"399 688 CURVE SMOOTH",
"258 688 OFFCURVE",
"165 602 OFFCURVE",
"120 470 CURVE",
"32 470 LINE",
"22 428 LINE",
"108 428 LINE",
"16 32 LINE SMOOTH",
"-4 -53 OFFCURVE",
"-37 -144 OFFCURVE",
"-101 -144 CURVE SMOOTH",
"-107 -144 OFFCURVE",
"-112 -142 OFFCURVE",
"-112 -138 CURVE SMOOTH",
"-112 -136 OFFCURVE",
"-86 -120 OFFCURVE",
"-86 -90 CURVE SMOOTH",
"-86 -59 OFFCURVE",
"-111 -30 OFFCURVE",
"-156 -30 CURVE SMOOTH",
"-192 -30 OFFCURVE",
"-230 -62 OFFCURVE",
"-230 -102 CURVE SMOOTH",
"-230 -148 OFFCURVE",
"-184 -182 OFFCURVE",
"-126 -182 CURVE SMOOTH",
"-9 -182 OFFCURVE",
"140 -79 OFFCURVE",
"182 105 CURVE SMOOTH",
"256 428 LINE",
"384 428 LINE SMOOTH",
"426 428 OFFCURVE",
"432 420 OFFCURVE",
"432 402 CURVE SMOOTH",
"432 375 OFFCURVE",
"362 163 OFFCURVE",
"362 102 CURVE SMOOTH",
"362 25 OFFCURVE",
"399 -12 OFFCURVE",
"464 -12 CURVE SMOOTH",
"553 -12 OFFCURVE",
"611 68 OFFCURVE",
"642 143 CURVE",
"606 162 LINE"
);
}
);
width = 704;
}
);
note = fi;
unicode = FB01;
},
{
glyphname = fl;
lastChange = "2017-06-09 11:40:29 +0000";
layers = (
{
layerId = "0E02FD82-E348-46EC-A7E4-43EEF3FEB87C";
paths = (
{
closed = 1;
nodes = (
"276 527 LINE SMOOTH",
"298 615 OFFCURVE",
"346 650 OFFCURVE",
"415 650 CURVE SMOOTH",
"436 650 OFFCURVE",
"466 644 OFFCURVE",
"480 628 CURVE",
"460 620 OFFCURVE",
"448 597 OFFCURVE",
"448 576 CURVE SMOOTH",
"448 554 OFFCURVE",
"456 538 OFFCURVE",
"468 531 CURVE",
"452 470 LINE",
"262 470 LINE"
);
},
{
closed = 1;
nodes = (
"5 7 LINE SMOOTH",
"-19 -95 OFFCURVE",
"-64 -144 OFFCURVE",
"-93 -144 CURVE SMOOTH",
"-100 -144 OFFCURVE",
"-108 -139 OFFCURVE",
"-108 -132 CURVE SMOOTH",
"-108 -129 OFFCURVE",
"-86 -125 OFFCURVE",
"-86 -88 CURVE SMOOTH",
"-86 -58 OFFCURVE",
"-110 -30 OFFCURVE",
"-152 -30 CURVE SMOOTH",
"-196 -30 OFFCURVE",
"-230 -64 OFFCURVE",
"-230 -104 CURVE SMOOTH",
"-230 -150 OFFCURVE",
"-196 -182 OFFCURVE",
"-120 -182 CURVE SMOOTH",
"4 -182 OFFCURVE",
"139 -76 OFFCURVE",
"188 143 CURVE SMOOTH",
"252 428 LINE",
"442 428 LINE",
"417 322 OFFCURVE",
"366 174 OFFCURVE",
"366 97 CURVE SMOOTH",
"366 40 OFFCURVE",
"402 -12 OFFCURVE",
"461 -12 CURVE SMOOTH",
"541 -12 OFFCURVE",
"608 64 OFFCURVE",
"634 134 CURVE",
"601 151 LINE",
"574 105 OFFCURVE",
"540 46 OFFCURVE",
"518 46 CURVE SMOOTH",
"506 46 OFFCURVE",
"502 54 OFFCURVE",
"502 66 CURVE SMOOTH",
"502 84 OFFCURVE",
"507 103 OFFCURVE",
"526 178 CURVE SMOOTH",
"656 680 LINE",
"615 679 OFFCURVE",
"562 676 OFFCURVE",
"532 676 CURVE SMOOTH",
"516 676 OFFCURVE",
"494 679 OFFCURVE",
"471 682 CURVE SMOOTH",
"448 685 OFFCURVE",
"424 688 OFFCURVE",
"404 688 CURVE SMOOTH",
"259 688 OFFCURVE",
"169 610 OFFCURVE",
"118 470 CURVE",
"30 470 LINE",
"20 428 LINE",
"106 428 LINE"
);
}
);
width = 704;
}
);
note = fl;
unicode = FB02;
},
{
glyphname = endash;
lastChange = "2017-06-09 11:40:29 +0000";
layers = (
{
layerId = "0E02FD82-E348-46EC-A7E4-43EEF3FEB87C";
paths = (
{
closed = 1;
nodes = (
"-10 198 LINE",
"490 198 LINE",
"510 272 LINE",
"10 272 LINE"
);
}
);
width = 500;
}
);
note = endash;
unicode = 2013;
},
{
glyphname = dagger;
lastChange = "2017-06-09 11:40:29 +0000";
layers = (
{
layerId = "0E02FD82-E348-46EC-A7E4-43EEF3FEB87C";
paths = (
{
closed = 1;
nodes = (
"194 108 OFFCURVE",
"248 226 OFFCURVE",
"298 292 CURVE",
"285 327 OFFCURVE",
"280 355 OFFCURVE",
"280 386 CURVE SMOOTH",
"280 407 OFFCURVE",
"285 430 OFFCURVE",
"292 454 CURVE",
"354 453 OFFCURVE",
"386 418 OFFCURVE",
"426 418 CURVE SMOOTH",
"456 418 OFFCURVE",
"478 443 OFFCURVE",
"478 474 CURVE SMOOTH",
"478 504 OFFCURVE",
"456 522 OFFCURVE",
"434 522 CURVE SMOOTH",
"381 522 OFFCURVE",
"362 488 OFFCURVE",
"300 488 CURVE",
"319 591 OFFCURVE",
"378 590 OFFCURVE",
"378 650 CURVE SMOOTH",
"378 682 OFFCURVE",
"360 700 OFFCURVE",
"324 700 CURVE SMOOTH",
"288 700 OFFCURVE",
"264 676 OFFCURVE",
"264 641 CURVE SMOOTH",
"264 620 OFFCURVE",
"274 605 OFFCURVE",
"274 558 CURVE SMOOTH",
"274 539 OFFCURVE",
"272 516 OFFCURVE",
"264 488 CURVE",
"198 489 OFFCURVE",
"167 524 OFFCURVE",
"126 524 CURVE SMOOTH",
"96 524 OFFCURVE",
"74 499 OFFCURVE",
"74 470 CURVE SMOOTH",
"74 438 OFFCURVE",
"97 420 OFFCURVE",
"119 420 CURVE SMOOTH",
"172 420 OFFCURVE",
"191 454 OFFCURVE",
"256 454 CURVE",
"242 394 OFFCURVE",
"212 339 OFFCURVE",
"166 296 CURVE",
"169 276 OFFCURVE",
"170 265 OFFCURVE",
"170 246 CURVE SMOOTH",
"170 112 OFFCURVE",
"132 5 OFFCURVE",
"106 -124 CURVE",
"138 -124 LINE"
);
}
);
width = 500;
}
);
note = dagger;
unicode = 2020;
},
{
glyphname = daggerdbl;
lastChange = "2017-06-09 11:40:29 +0000";
layers = (
{
layerId = "0E02FD82-E348-46EC-A7E4-43EEF3FEB87C";
paths = (
{
closed = 1;
nodes = (
"-14 70 OFFCURVE",
"8 52 OFFCURVE",
"30 52 CURVE SMOOTH",
"83 52 OFFCURVE",
"102 86 OFFCURVE",
"164 86 CURVE",
"145 -17 OFFCURVE",
"86 -16 OFFCURVE",
"86 -76 CURVE SMOOTH",
"86 -108 OFFCURVE",
"104 -126 OFFCURVE",
"140 -126 CURVE SMOOTH",
"176 -126 OFFCURVE",
"200 -102 OFFCURVE",
"200 -67 CURVE SMOOTH",
"200 -46 OFFCURVE",
"190 -31 OFFCURVE",
"190 16 CURVE SMOOTH",
"190 35 OFFCURVE",
"192 58 OFFCURVE",
"200 86 CURVE",
"266 85 OFFCURVE",
"297 50 OFFCURVE",
"338 50 CURVE SMOOTH",
"368 50 OFFCURVE",
"390 75 OFFCURVE",
"390 104 CURVE SMOOTH",
"390 136 OFFCURVE",
"367 154 OFFCURVE",
"345 154 CURVE SMOOTH",
"292 154 OFFCURVE",
"273 120 OFFCURVE",
"208 120 CURVE",
"215 186 OFFCURVE",
"256 252 OFFCURVE",
"296 284 CURVE",
"274 334 OFFCURVE",
"276 404 OFFCURVE",
"290 454 CURVE",
"352 453 OFFCURVE",
"384 418 OFFCURVE",
"424 418 CURVE SMOOTH",
"454 418 OFFCURVE",
"476 443 OFFCURVE",
"476 474 CURVE SMOOTH",
"476 504 OFFCURVE",
"454 522 OFFCURVE",
"432 522 CURVE SMOOTH",
"379 522 OFFCURVE",
"360 488 OFFCURVE",
"298 488 CURVE",
"317 591 OFFCURVE",
"376 590 OFFCURVE",
"376 650 CURVE SMOOTH",
"376 682 OFFCURVE",
"358 700 OFFCURVE",
"322 700 CURVE SMOOTH",
"286 700 OFFCURVE",
"262 676 OFFCURVE",
"262 641 CURVE SMOOTH",
"262 620 OFFCURVE",
"272 605 OFFCURVE",
"272 558 CURVE SMOOTH",
"272 539 OFFCURVE",
"270 516 OFFCURVE",
"262 488 CURVE",
"196 489 OFFCURVE",
"165 524 OFFCURVE",
"124 524 CURVE SMOOTH",
"94 524 OFFCURVE",
"72 499 OFFCURVE",
"72 470 CURVE SMOOTH",
"72 438 OFFCURVE",
"95 420 OFFCURVE",
"117 420 CURVE SMOOTH",
"170 420 OFFCURVE",
"189 454 OFFCURVE",
"254 454 CURVE",
"244 384 OFFCURVE",
"210 322 OFFCURVE",
"168 288 CURVE",
"187 225 OFFCURVE",
"191 184 OFFCURVE",
"172 120 CURVE",
"110 121 OFFCURVE",
"78 156 OFFCURVE",
"38 156 CURVE SMOOTH",
"8 156 OFFCURVE",
"-14 131 OFFCURVE",
"-14 100 CURVE SMOOTH"
);
}
);
width = 500;
}
);
note = daggerdbl;
unicode = 2021;
},
{
glyphname = periodcentered;
lastChange = "2017-06-09 11:40:29 +0000";
layers = (
{
layerId = "0E02FD82-E348-46EC-A7E4-43EEF3FEB87C";
paths = (
{
closed = 1;
nodes = (
"37 193 OFFCURVE",
"70 152 OFFCURVE",
"120 152 CURVE SMOOTH",
"170 152 OFFCURVE",
"203 193 OFFCURVE",
"203 235 CURVE SMOOTH",
"203 277 OFFCURVE",
"170 318 OFFCURVE",
"120 318 CURVE SMOOTH",
"70 318 OFFCURVE",
"37 277 OFFCURVE",
"37 235 CURVE SMOOTH"
);
}
);
width = 287;
}
);
note = periodcentered;
unicode = 00B7;
},
{
glyphname = paragraph;
lastChange = "2017-06-09 11:40:29 +0000";
layers = (
{
layerId = "0E02FD82-E348-46EC-A7E4-43EEF3FEB87C";
paths = (
{
closed = 1;
nodes = (
"320 688 LINE SMOOTH",
"184 688 OFFCURVE",
"82 590 OFFCURVE",
"82 424 CURVE SMOOTH",
"82 335 OFFCURVE",
"123 284 OFFCURVE",
"198 284 CURVE",
"92 -158 LINE",
"204 -158 LINE",
"398 648 LINE",
"454 648 LINE",
"260 -158 LINE",
"372 -158 LINE",
"556 605 LINE SMOOTH",
"563 634 OFFCURVE",
"584 648 OFFCURVE",
"642 650 CURVE",
"648 688 LINE"
);
}
);
width = 620;
}
);
note = paragraph;
unicode = 00B6;
},
{
glyphname = bullet;
lastChange = "2017-06-09 11:40:29 +0000";
layers = (
{
layerId = "0E02FD82-E348-46EC-A7E4-43EEF3FEB87C";
paths = (
{
closed = 1;
nodes = (
"422 439 OFFCURVE",
"345 516 OFFCURVE",
"250 516 CURVE SMOOTH",
"153 516 OFFCURVE",
"78 439 OFFCURVE",
"78 344 CURVE SMOOTH",
"79 248 OFFCURVE",
"154 172 OFFCURVE",
"250 172 CURVE SMOOTH",
"345 172 OFFCURVE",
"422 249 OFFCURVE",
"422 344 CURVE SMOOTH"
);
}
);
width = 500;
}
);
note = bullet;
unicode = 2022;
},
{
glyphname = quotesinglbase;
lastChange = "2017-06-09 11:40:29 +0000";
layers = (
{
layerId = "0E02FD82-E348-46EC-A7E4-43EEF3FEB87C";
paths = (
{
closed = 1;
nodes = (
"44 -142 OFFCURVE",
"130 -52 OFFCURVE",
"130 45 CURVE SMOOTH",
"130 112 OFFCURVE",
"94 146 OFFCURVE",
"40 146 CURVE SMOOTH",
"6 146 OFFCURVE",
"-28 116 OFFCURVE",
"-28 72 CURVE SMOOTH",
"-28 26 OFFCURVE",
"0 2 OFFCURVE",
"60 0 CURVE",
"58 -64 OFFCURVE",
"-8 -114 OFFCURVE",
"-66 -154 CURVE",
"-40 -188 LINE"
);
}
);
width = 278;
}
);
note = quotesinglbase;
unicode = 201A;
},
{
glyphname = quotedblbase;
lastChange = "2017-06-09 11:40:29 +0000";
layers = (
{
layerId = "0E02FD82-E348-46EC-A7E4-43EEF3FEB87C";
paths = (
{
closed = 1;
nodes = (
"44 -142 OFFCURVE",
"130 -52 OFFCURVE",
"130 45 CURVE SMOOTH",
"130 112 OFFCURVE",
"94 146 OFFCURVE",
"40 146 CURVE SMOOTH",
"6 146 OFFCURVE",
"-28 116 OFFCURVE",
"-28 72 CURVE SMOOTH",
"-28 26 OFFCURVE",
"0 2 OFFCURVE",
"60 0 CURVE",
"58 -64 OFFCURVE",
"-8 -114 OFFCURVE",
"-66 -154 CURVE",
"-40 -188 LINE"
);
},
{
closed = 1;
nodes = (
"304 -142 OFFCURVE",
"390 -52 OFFCURVE",
"390 45 CURVE SMOOTH",
"390 112 OFFCURVE",
"354 146 OFFCURVE",
"300 146 CURVE SMOOTH",
"266 146 OFFCURVE",
"232 116 OFFCURVE",
"232 72 CURVE SMOOTH",
"232 26 OFFCURVE",
"260 2 OFFCURVE",
"320 0 CURVE",
"318 -64 OFFCURVE",
"252 -114 OFFCURVE",
"194 -154 CURVE",
"220 -188 LINE"
);
}
);
width = 537;
}
);
note = quotedblbase;
unicode = 201E;
},
{
glyphname = quotedblright;
lastChange = "2017-06-09 11:40:29 +0000";
layers = (
{
layerId = "0E02FD82-E348-46EC-A7E4-43EEF3FEB87C";
paths = (
{
closed = 1;
nodes = (
"206 412 OFFCURVE",
"292 502 OFFCURVE",
"292 599 CURVE SMOOTH",
"292 666 OFFCURVE",
"256 700 OFFCURVE",
"202 700 CURVE SMOOTH",
"168 700 OFFCURVE",
"134 670 OFFCURVE",
"134 626 CURVE SMOOTH",
"134 580 OFFCURVE",
"162 556 OFFCURVE",
"222 554 CURVE",
"220 490 OFFCURVE",
"154 440 OFFCURVE",
"96 400 CURVE",
"122 366 LINE"
);
},
{
closed = 1;
nodes = (
"466 412 OFFCURVE",
"552 502 OFFCURVE",
"552 599 CURVE SMOOTH",
"552 666 OFFCURVE",
"516 700 OFFCURVE",
"462 700 CURVE SMOOTH",
"428 700 OFFCURVE",
"394 670 OFFCURVE",
"394 626 CURVE SMOOTH",
"394 580 OFFCURVE",
"422 556 OFFCURVE",
"482 554 CURVE",
"480 490 OFFCURVE",
"414 440 OFFCURVE",
"356 400 CURVE",
"382 366 LINE"
);
}
);
width = 537;
}
);
note = quotedblright;
unicode = 201D;
},
{
glyphname = guillemotright;
lastChange = "2017-06-09 11:40:29 +0000";
layers = (
{
layerId = "0E02FD82-E348-46EC-A7E4-43EEF3FEB87C";
paths = (
{
closed = 1;
nodes = (
"324 339 OFFCURVE",
"290 419 OFFCURVE",
"273 419 CURVE SMOOTH",
"266 419 OFFCURVE",
"260 414 OFFCURVE",
"260 405 CURVE SMOOTH",
"260 387 OFFCURVE",
"292 299 OFFCURVE",
"328 243 CURVE",
"266 180 OFFCURVE",
"192 87 OFFCURVE",
"192 67 CURVE SMOOTH",
"192 54 OFFCURVE",
"197 51 OFFCURVE",
"203 51 CURVE SMOOTH",
"215 51 OFFCURVE",
"300 139 OFFCURVE",
"420 233 CURVE",
"420 245 LINE"
);
},
{
closed = 1;
nodes = (
"138 339 OFFCURVE",
"104 419 OFFCURVE",
"87 419 CURVE SMOOTH",
"80 419 OFFCURVE",
"74 414 OFFCURVE",
"74 405 CURVE SMOOTH",
"74 387 OFFCURVE",
"106 299 OFFCURVE",
"142 243 CURVE",
"80 180 OFFCURVE",
"6 87 OFFCURVE",
"6 67 CURVE SMOOTH",
"6 54 OFFCURVE",
"11 51 OFFCURVE",
"17 51 CURVE SMOOTH",
"29 51 OFFCURVE",
"114 139 OFFCURVE",
"234 233 CURVE",
"234 245 LINE"
);
}
);
width = 500;
}
);
note = guillemotright;
unicode = 00BB;
},
{
glyphname = ellipsis;
lastChange = "2017-06-09 11:40:29 +0000";
layers = (
{
layerId = "0E02FD82-E348-46EC-A7E4-43EEF3FEB87C";
paths = (
{
closed = 1;
nodes = (
"20 23 OFFCURVE",
"51 -12 OFFCURVE",
"99 -12 CURVE SMOOTH",
"147 -12 OFFCURVE",
"178 23 OFFCURVE",
"178 67 CURVE SMOOTH",
"178 111 OFFCURVE",
"147 146 OFFCURVE",
"99 146 CURVE SMOOTH",
"51 146 OFFCURVE",
"20 111 OFFCURVE",
"20 67 CURVE SMOOTH"
);
},
{
closed = 1;
nodes = (
"353 23 OFFCURVE",
"384 -12 OFFCURVE",
"432 -12 CURVE SMOOTH",
"480 -12 OFFCURVE",
"511 23 OFFCURVE",
"511 67 CURVE SMOOTH",
"511 111 OFFCURVE",
"480 146 OFFCURVE",
"432 146 CURVE SMOOTH",
"384 146 OFFCURVE",
"353 111 OFFCURVE",
"353 67 CURVE SMOOTH"
);
},
{
closed = 1;
nodes = (
"686 23 OFFCURVE",
"717 -12 OFFCURVE",
"765 -12 CURVE SMOOTH",
"813 -12 OFFCURVE",
"844 23 OFFCURVE",
"844 67 CURVE SMOOTH",
"844 111 OFFCURVE",
"813 146 OFFCURVE",
"765 146 CURVE SMOOTH",
"717 146 OFFCURVE",
"686 111 OFFCURVE",
"686 67 CURVE SMOOTH"
);
}
);
width = 1000;
}
);
note = ellipsis;
unicode = 2026;
},
{
glyphname = perthousand;
lastChange = "2017-06-09 11:40:29 +0000";
layers = (
{
layerId = "0E02FD82-E348-46EC-A7E4-43EEF3FEB87C";
paths = (
{
closed = 1;
nodes = (
"836 90 OFFCURVE",
"892 366 OFFCURVE",
"972 366 CURVE SMOOTH",
"992 366 OFFCURVE",
"1004 354 OFFCURVE",
"1004 328 CURVE SMOOTH",
"1004 286 OFFCURVE",
"948 10 OFFCURVE",
"868 10 CURVE SMOOTH",
"848 10 OFFCURVE",
"836 22 OFFCURVE",
"836 48 CURVE SMOOTH"
);
},
{
closed = 1;
nodes = (
"584 700 LINE",
"120 -12 LINE",
"176 -12 LINE",
"640 700 LINE"
);
},
{
closed = 1;
nodes = (
"112 402 OFFCURVE",
"168 678 OFFCURVE",
"248 678 CURVE SMOOTH",
"268 678 OFFCURVE",
"280 666 OFFCURVE",
"280 640 CURVE SMOOTH",
"280 598 OFFCURVE",
"224 322 OFFCURVE",
"144 322 CURVE SMOOTH",
"124 322 OFFCURVE",
"112 334 OFFCURVE",
"112 360 CURVE SMOOTH"
);
},
{
closed = 1;
nodes = (
"760 40 OFFCURVE",
"802 -12 OFFCURVE",
"872 -12 CURVE SMOOTH",
"991 -12 OFFCURVE",
"1080 147 OFFCURVE",
"1080 246 CURVE SMOOTH",
"1080 336 OFFCURVE",
"1038 388 OFFCURVE",
"968 388 CURVE SMOOTH",
"849 388 OFFCURVE",
"760 229 OFFCURVE",
"760 130 CURVE SMOOTH"
);
},
{
closed = 1;
nodes = (
"36 352 OFFCURVE",
"78 300 OFFCURVE",
"148 300 CURVE SMOOTH",
"267 300 OFFCURVE",
"356 459 OFFCURVE",
"356 558 CURVE SMOOTH",
"356 648 OFFCURVE",
"314 700 OFFCURVE",
"244 700 CURVE SMOOTH",
"125 700 OFFCURVE",
"36 541 OFFCURVE",
"36 442 CURVE SMOOTH"
);
},
{
closed = 1;
nodes = (
"404 40 OFFCURVE",
"446 -12 OFFCURVE",
"516 -12 CURVE SMOOTH",
"635 -12 OFFCURVE",
"724 147 OFFCURVE",
"724 246 CURVE SMOOTH",
"724 336 OFFCURVE",
"682 388 OFFCURVE",
"612 388 CURVE SMOOTH",
"493 388 OFFCURVE",
"404 229 OFFCURVE",
"404 130 CURVE SMOOTH"
);
},
{
closed = 1;
nodes = (
"480 90 OFFCURVE",
"536 366 OFFCURVE",
"616 366 CURVE SMOOTH",
"636 366 OFFCURVE",
"648 354 OFFCURVE",
"648 328 CURVE SMOOTH",
"648 286 OFFCURVE",
"592 10 OFFCURVE",
"512 10 CURVE SMOOTH",
"492 10 OFFCURVE",
"480 22 OFFCURVE",
"480 48 CURVE SMOOTH"
);
}
);
width = 1111;
}
);
note = perthousand;
unicode = 2030;
},
{
glyphname = questiondown;
lastChange = "2017-06-09 11:40:29 +0000";
layers = (
{
layerId = "0E02FD82-E348-46EC-A7E4-43EEF3FEB87C";
paths = (
{
closed = 1;
nodes = (
"216 258 OFFCURVE",
"241 296 OFFCURVE",
"270 296 CURVE SMOOTH",
"298 296 OFFCURVE",
"310 275 OFFCURVE",
"310 254 CURVE SMOOTH",
"310 114 OFFCURVE",
"-28 202 OFFCURVE",
"-28 -14 CURVE SMOOTH",
"-28 -114 OFFCURVE",
"75 -182 OFFCURVE",
"186 -182 CURVE SMOOTH",
"293 -182 OFFCURVE",
"380 -112 OFFCURVE",
"380 -19 CURVE SMOOTH",
"380 14 OFFCURVE",
"374 47 OFFCURVE",
"352 73 CURVE",
"312 50 LINE",
"325 29 OFFCURVE",
"332 12 OFFCURVE",
"332 -10 CURVE SMOOTH",
"332 -78 OFFCURVE",
"280 -130 OFFCURVE",
"216 -130 CURVE SMOOTH",
"164 -130 OFFCURVE",
"120 -93 OFFCURVE",
"120 -37 CURVE SMOOTH",
"120 166 OFFCURVE",
"358 94 OFFCURVE",
"358 254 CURVE SMOOTH",
"358 312 OFFCURVE",
"318 344 OFFCURVE",
"280 344 CURVE SMOOTH",
"232 344 OFFCURVE",
"184 306 OFFCURVE",
"168 261 CURVE",
"203 237 LINE"
);
},
{
closed = 1;
nodes = (
"400 495 OFFCURVE",
"369 530 OFFCURVE",
"321 530 CURVE SMOOTH",
"273 530 OFFCURVE",
"242 495 OFFCURVE",
"242 451 CURVE SMOOTH",
"242 407 OFFCURVE",
"273 372 OFFCURVE",
"321 372 CURVE SMOOTH",
"369 372 OFFCURVE",
"400 407 OFFCURVE",
"400 451 CURVE SMOOTH"
);
}
);
width = 519;
}
);
note = questiondown;
unicode = 00BF;
},
{
glyphname = grave;
lastChange = "2017-06-09 11:40:29 +0000";
layers = (
{
layerId = "0E02FD82-E348-46EC-A7E4-43EEF3FEB87C";
paths = (
{
closed = 1;
nodes = (
"208 675 LINE SMOOTH",
"178 715 OFFCURVE",
"163 722 OFFCURVE",
"142 722 CURVE SMOOTH",
"114 722 OFFCURVE",
"96 700 OFFCURVE",
"96 679 CURVE SMOOTH",
"96 662 OFFCURVE",
"108 646 OFFCURVE",
"125 634 CURVE SMOOTH",
"262 542 LINE",
"308 542 LINE"
);
}
);
width = 333;
}
);
note = grave;
unicode = 0060;
},
{
glyphname = acute;
lastChange = "2017-06-09 11:40:29 +0000";
layers = (
{
layerId = "0E02FD82-E348-46EC-A7E4-43EEF3FEB87C";
paths = (
{
closed = 1;
nodes = (
"350 627 LINE SMOOTH",
"381 645 OFFCURVE",
"390 653 OFFCURVE",
"390 678 CURVE SMOOTH",
"390 701 OFFCURVE",
"369 722 OFFCURVE",
"343 722 CURVE SMOOTH",
"323 722 OFFCURVE",
"306 709 OFFCURVE",
"256 655 CURVE SMOOTH",
"152 542 LINE",
"200 542 LINE"
);
}
);
width = 333;
}
);
note = acute;
unicode = 00B4;
},
{
glyphname = circumflex;
lastChange = "2017-06-09 11:40:29 +0000";
layers = (
{
layerId = "0E02FD82-E348-46EC-A7E4-43EEF3FEB87C";
paths = (
{
closed = 1;
nodes = (
"52 542 LINE",
"104 542 LINE",
"242 638 LINE",
"330 542 LINE",
"380 542 LINE",
"294 716 LINE",
"212 716 LINE"
);
}
);
width = 333;
}
);
note = circumflex;
unicode = 02C6;
},
{
glyphname = tilde;
lastChange = "2017-06-09 11:40:29 +0000";
layers = (
{
layerId = "0E02FD82-E348-46EC-A7E4-43EEF3FEB87C";
paths = (
{
closed = 1;
nodes = (
"108 588 OFFCURVE",
"122 606 OFFCURVE",
"149 606 CURVE SMOOTH",
"189 606 OFFCURVE",
"258 562 OFFCURVE",
"297 562 CURVE SMOOTH",
"370 562 OFFCURVE",
"406 617 OFFCURVE",
"420 682 CURVE",
"378 682 LINE",
"369 660 OFFCURVE",
"354 640 OFFCURVE",
"328 640 CURVE SMOOTH",
"294 640 OFFCURVE",
"216 684 OFFCURVE",
"176 684 CURVE SMOOTH",
"111 684 OFFCURVE",
"71 622 OFFCURVE",
"60 564 CURVE",
"102 564 LINE"
);
}
);
width = 333;
}
);
note = tilde;
unicode = 02DC;
},
{
glyphname = macron;
lastChange = "2017-06-09 11:40:29 +0000";
layers = (
{
layerId = "0E02FD82-E348-46EC-A7E4-43EEF3FEB87C";
paths = (
{
closed = 1;
nodes = (
"80 648 LINE",
"64 580 LINE",
"390 580 LINE",
"406 648 LINE"
);
}
);
width = 333;
}
);
note = macron;
unicode = 00AF;
},
{
glyphname = breve;
lastChange = "2017-06-09 11:40:29 +0000";
layers = (
{
layerId = "0E02FD82-E348-46EC-A7E4-43EEF3FEB87C";
paths = (
{
closed = 1;
nodes = (
"84 584 OFFCURVE",
"128 542 OFFCURVE",
"218 542 CURVE SMOOTH",
"322 542 OFFCURVE",
"386 612 OFFCURVE",
"398 706 CURVE",
"360 706 LINE",
"335 643 OFFCURVE",
"293 616 OFFCURVE",
"225 616 CURVE SMOOTH",
"169 616 OFFCURVE",
"126 647 OFFCURVE",
"126 706 CURVE",
"84 706 LINE"
);
}
);
width = 333;
}
);
note = breve;
unicode = 02D8;
},
{
glyphname = dotaccent;
lastChange = "2017-06-09 11:40:29 +0000";
layers = (
{
layerId = "0E02FD82-E348-46EC-A7E4-43EEF3FEB87C";
paths = (
{
closed = 1;
nodes = (
"173 582 OFFCURVE",
"202 552 OFFCURVE",
"238 552 CURVE SMOOTH",
"274 552 OFFCURVE",
"303 582 OFFCURVE",
"303 617 CURVE SMOOTH",
"303 652 OFFCURVE",
"274 682 OFFCURVE",
"238 682 CURVE SMOOTH",
"202 682 OFFCURVE",
"173 652 OFFCURVE",
"173 617 CURVE SMOOTH"
);
}
);
width = 333;
}
);
note = dotaccent;
unicode = 02D9;
},
{
glyphname = dieresis;
lastChange = "2017-06-09 11:40:29 +0000";
layers = (
{
layerId = "0E02FD82-E348-46EC-A7E4-43EEF3FEB87C";
paths = (
{
closed = 1;
nodes = (
"280 582 OFFCURVE",
"309 552 OFFCURVE",
"345 552 CURVE SMOOTH",
"381 552 OFFCURVE",
"410 582 OFFCURVE",
"410 617 CURVE SMOOTH",
"410 652 OFFCURVE",
"381 682 OFFCURVE",
"345 682 CURVE SMOOTH",
"309 682 OFFCURVE",
"280 652 OFFCURVE",
"280 617 CURVE SMOOTH"
);
},
{
closed = 1;
nodes = (
"66 582 OFFCURVE",
"95 552 OFFCURVE",
"131 552 CURVE SMOOTH",
"167 552 OFFCURVE",
"196 582 OFFCURVE",
"196 617 CURVE SMOOTH",
"196 652 OFFCURVE",
"167 682 OFFCURVE",
"131 682 CURVE SMOOTH",
"95 682 OFFCURVE",
"66 652 OFFCURVE",
"66 617 CURVE SMOOTH"
);
}
);
width = 333;
}
);
note = dieresis;
unicode = 00A8;
},
{
glyphname = ring;
lastChange = "2017-06-09 11:40:29 +0000";
layers = (
{
layerId = "0E02FD82-E348-46EC-A7E4-43EEF3FEB87C";
paths = (
{
closed = 1;
nodes = (
"128 588 OFFCURVE",
"173 542 OFFCURVE",
"231 542 CURVE SMOOTH",
"289 542 OFFCURVE",
"334 588 OFFCURVE",
"334 645 CURVE SMOOTH",
"334 702 OFFCURVE",
"289 748 OFFCURVE",
"231 748 CURVE SMOOTH",
"173 748 OFFCURVE",
"128 702 OFFCURVE",
"128 645 CURVE SMOOTH"
);
},
{
closed = 1;
nodes = (
"172 678 OFFCURVE",
"198 704 OFFCURVE",
"231 704 CURVE SMOOTH",
"264 704 OFFCURVE",
"290 678 OFFCURVE",
"290 645 CURVE SMOOTH",
"290 612 OFFCURVE",
"264 586 OFFCURVE",
"231 586 CURVE SMOOTH",
"198 586 OFFCURVE",
"172 612 OFFCURVE",
"172 645 CURVE SMOOTH"
);
}
);
width = 333;
}
);
note = ring;
unicode = 02DA;
},
{
glyphname = cedilla;
lastChange = "2017-06-09 11:40:29 +0000";
layers = (
{
layerId = "0E02FD82-E348-46EC-A7E4-43EEF3FEB87C";
paths = (
{
closed = 1;
nodes = (
"-15 -210 OFFCURVE",
"19 -220 OFFCURVE",
"62 -220 CURVE SMOOTH",
"138 -220 OFFCURVE",
"188 -188 OFFCURVE",
"188 -130 CURVE SMOOTH",
"188 -93 OFFCURVE",
"152 -60 OFFCURVE",
"97 -60 CURVE SMOOTH",
"89 -60 OFFCURVE",
"80 -62 OFFCURVE",
"72 -64 CURVE",
"116 2 LINE",
"72 2 LINE",
"6 -94 LINE",
"18 -108 LINE",
"28 -104 OFFCURVE",
"41 -102 OFFCURVE",
"51 -102 CURVE SMOOTH",
"79 -102 OFFCURVE",
"96 -119 OFFCURVE",
"96 -139 CURVE SMOOTH",
"96 -164 OFFCURVE",
"78 -178 OFFCURVE",
"43 -178 CURVE SMOOTH",
"15 -178 OFFCURVE",
"-5 -173 OFFCURVE",
"-26 -162 CURVE",
"-48 -196 LINE"
);
}
);
width = 333;
}
);
note = cedilla;
unicode = 00B8;
},
{
glyphname = hungarumlaut;
lastChange = "2017-06-09 11:40:29 +0000";
layers = (
{
layerId = "0E02FD82-E348-46EC-A7E4-43EEF3FEB87C";
paths = (
{
closed = 1;
nodes = (
"466 627 LINE SMOOTH",
"497 645 OFFCURVE",
"506 653 OFFCURVE",
"506 678 CURVE SMOOTH",
"506 701 OFFCURVE",
"485 722 OFFCURVE",
"459 722 CURVE SMOOTH",
"439 722 OFFCURVE",
"422 709 OFFCURVE",
"372 655 CURVE SMOOTH",
"268 542 LINE",
"316 542 LINE"
);
},
{
closed = 1;
nodes = (
"275 634 LINE SMOOTH",
"292 646 OFFCURVE",
"304 662 OFFCURVE",
"304 679 CURVE SMOOTH",
"304 700 OFFCURVE",
"286 722 OFFCURVE",
"258 722 CURVE SMOOTH",
"236 722 OFFCURVE",
"220 712 OFFCURVE",
"192 675 CURVE SMOOTH",
"92 542 LINE",
"138 542 LINE"
);
}
);
width = 333;
}
);
note = hungarumlaut;
unicode = 02DD;
},
{
glyphname = ogonek;
lastChange = "2017-06-09 11:40:29 +0000";
layers = (
{
layerId = "0E02FD82-E348-46EC-A7E4-43EEF3FEB87C";
paths = (
{
closed = 1;
nodes = (
"88 12 OFFCURVE",
"-86 -38 OFFCURVE",
"-86 -144 CURVE SMOOTH",
"-86 -188 OFFCURVE",
"-40 -220 OFFCURVE",
"11 -220 CURVE SMOOTH",
"69 -220 OFFCURVE",
"122 -188 OFFCURVE",
"168 -156 CURVE",
"152 -126 LINE",
"129 -140 OFFCURVE",
"85 -168 OFFCURVE",
"55 -168 CURVE SMOOTH",
"20 -168 OFFCURVE",
"6 -152 OFFCURVE",
"6 -121 CURVE SMOOTH",
"6 -57 OFFCURVE",
"127 -7 OFFCURVE",
"174 8 CURVE",
"174 20 LINE"
);
}
);
width = 333;
}
);
note = ogonek;
unicode = 02DB;
},
{
glyphname = caron;
lastChange = "2017-06-09 11:40:29 +0000";
layers = (
{
layerId = "0E02FD82-E348-46EC-A7E4-43EEF3FEB87C";
paths = (
{
closed = 1;
nodes = (
"262 542 LINE",
"424 716 LINE",
"372 716 LINE",
"234 620 LINE",
"142 716 LINE",
"92 716 LINE",
"180 542 LINE"
);
}
);
width = 333;
}
);
note = caron;
unicode = 02C7;
},
{
glyphname = emdash;
lastChange = "2017-06-09 11:40:29 +0000";
layers = (
{
layerId = "0E02FD82-E348-46EC-A7E4-43EEF3FEB87C";
paths = (
{
closed = 1;
nodes = (
"-10 198 LINE",
"990 198 LINE",
"1010 272 LINE",
"10 272 LINE"
);
}
);
width = 1000;
}
);
note = emdash;
unicode = 2014;
},
{
glyphname = AE;
lastChange = "2017-06-09 11:40:29 +0000";
layers = (
{
layerId = "0E02FD82-E348-46EC-A7E4-43EEF3FEB87C";
paths = (
{
closed = 1;
nodes = (
"788 256 LINE",
"744 128 OFFCURVE",
"690 42 OFFCURVE",
"544 42 CURVE SMOOTH",
"498 42 OFFCURVE",
"484 50 OFFCURVE",
"484 75 CURVE SMOOTH",
"484 94 OFFCURVE",
"490 114 OFFCURVE",
"497 142 CURVE SMOOTH",
"546 336 LINE",
"602 334 OFFCURVE",
"620 320 OFFCURVE",
"622 222 CURVE",
"660 222 LINE",
"726 498 LINE",
"684 498 LINE",
"662 412 OFFCURVE",
"624 380 OFFCURVE",
"556 378 CURVE",
"608 591 LINE SMOOTH",
"618 634 OFFCURVE",
"630 646 OFFCURVE",
"696 646 CURVE SMOOTH",
"772 646 OFFCURVE",
"826 611 OFFCURVE",
"826 530 CURVE SMOOTH",
"826 491 OFFCURVE",
"825 466 OFFCURVE",
"822 442 CURVE",
"866 442 LINE",
"924 688 LINE",
"308 688 LINE",
"298 646 LINE",
"364 646 OFFCURVE",
"384 641 OFFCURVE",
"384 628 CURVE SMOOTH",
"384 613 OFFCURVE",
"375 602 OFFCURVE",
"367 590 CURVE SMOOTH",
"18 89 LINE SMOOTH",
"4 68 OFFCURVE",
"-28 45 OFFCURVE",
"-54 42 CURVE",
"-64 0 LINE",
"130 0 LINE",
"140 42 LINE",
"82 44 OFFCURVE",
"72 54 OFFCURVE",
"72 68 CURVE SMOOTH",
"72 87 OFFCURVE",
"87 106 OFFCURVE",
"98 121 CURVE SMOOTH",
"204 272 LINE",
"390 272 LINE",
"344 92 LINE SMOOTH",
"335 57 OFFCURVE",
"320 44 OFFCURVE",
"252 42 CURVE",
"242 0 LINE",
"774 0 LINE",
"834 256 LINE"
);
},
{
closed = 1;
nodes = (
"451 629 LINE SMOOTH",
"464 647 OFFCURVE",
"469 654 OFFCURVE",
"475 654 CURVE SMOOTH",
"478 654 OFFCURVE",
"479 651 OFFCURVE",
"479 647 CURVE SMOOTH",
"479 639 OFFCURVE",
"475 626 OFFCURVE",
"468 596 CURVE SMOOTH",
"402 324 LINE",
"236 324 LINE"
);
}
);
width = 944;
}
);
leftKerningGroup = A;
note = AE;
unicode = 00C6;
},
{
glyphname = ordfeminine;
lastChange = "2017-06-09 11:40:29 +0000";
layers = (
{
layerId = "0E02FD82-E348-46EC-A7E4-43EEF3FEB87C";
paths = (
{
closed = 1;
nodes = (
"304 652 LINE",
"302 652 LINE",
"291 680 OFFCURVE",
"270 700 OFFCURVE",
"235 700 CURVE SMOOTH",
"136 700 OFFCURVE",
"48 610 OFFCURVE",
"48 520 CURVE SMOOTH",
"48 455 OFFCURVE",
"97 404 OFFCURVE",
"159 404 CURVE SMOOTH",
"211 404 OFFCURVE",
"237 430 OFFCURVE",
"263 466 CURVE",
"264 466 LINE",
"268 430 OFFCURVE",
"289 404 OFFCURVE",
"333 404 CURVE SMOOTH",
"388 404 OFFCURVE",
"420 456 OFFCURVE",
"440 496 CURVE",
"419 505 LINE",
"411 487 OFFCURVE",
"381 434 OFFCURVE",
"357 434 CURVE SMOOTH",
"350 434 OFFCURVE",
"346 440 OFFCURVE",
"346 446 CURVE SMOOTH",
"346 461 OFFCURVE",
"402 665 OFFCURVE",
"410 694 CURVE",
"314 694 LINE"
);
},
{
closed = 1;
nodes = (
"148 554 OFFCURVE",
"195 670 OFFCURVE",
"248 670 CURVE SMOOTH",
"272 670 OFFCURVE",
"286 652 OFFCURVE",
"286 617 CURVE SMOOTH",
"286 554 OFFCURVE",
"240 434 OFFCURVE",
"181 434 CURVE SMOOTH",
"159 434 OFFCURVE",
"148 448 OFFCURVE",
"148 478 CURVE SMOOTH"
);
}
);
width = 389;
}
);
note = ordfeminine;
unicode = 00AA;
},
{
glyphname = Lslash;
lastChange = "2017-06-09 11:40:29 +0000";
layers = (
{
layerId = "0E02FD82-E348-46EC-A7E4-43EEF3FEB87C";
paths = (
{
closed = 1;
nodes = (
"358 570 LINE SMOOTH",
"372 625 OFFCURVE",
"402 644 OFFCURVE",
"474 646 CURVE",
"484 688 LINE",
"126 688 LINE",
"116 646 LINE",
"188 644 OFFCURVE",
"202 634 OFFCURVE",
"202 608 CURVE SMOOTH",
"202 593 OFFCURVE",
"195 565 OFFCURVE",
"188 541 CURVE SMOOTH",
"134 344 LINE",
"-4 302 LINE",
"-4 252 LINE",
"119 289 LINE",
"66 96 LINE SMOOTH",
"55 57 OFFCURVE",
"34 44 OFFCURVE",
"-48 42 CURVE",
"-58 0 LINE",
"566 0 LINE",
"640 260 LINE",
"598 268 LINE",
"552 130 OFFCURVE",
"466 42 OFFCURVE",
"314 42 CURVE SMOOTH",
"250 42 OFFCURVE",
"232 58 OFFCURVE",
"232 90 CURVE SMOOTH",
"232 108 OFFCURVE",
"247 148 OFFCURVE",
"254 175 CURVE SMOOTH",
"298 342 LINE",
"474 394 LINE",
"474 448 LINE",
"313 399 LINE"
);
}
);
width = 685;
}
);
note = Lslash;
rightKerningGroup = L;
unicode = 0141;
},
{
glyphname = Oslash;
lastChange = "2017-06-09 11:40:29 +0000";
layers = (
{
layerId = "0E02FD82-E348-46EC-A7E4-43EEF3FEB87C";
paths = (
{
closed = 1;
nodes = (
"196 246 OFFCURVE",
"254 662 OFFCURVE",
"468 662 CURVE SMOOTH",
"524 662 OFFCURVE",
"568 628 OFFCURVE",
"573 589 CURVE",
"196 165 LINE"
);
},
{
closed = 1;
nodes = (
"582 442 OFFCURVE",
"524 26 OFFCURVE",
"310 26 CURVE SMOOTH",
"254 26 OFFCURVE",
"220 50 OFFCURVE",
"205 97 CURVE",
"582 521 LINE"
);
},
{
closed = 1;
nodes = (
"68 -58 LINE",
"155 40 LINE",
"200 7 OFFCURVE",
"254 -12 OFFCURVE",
"312 -12 CURVE SMOOTH",
"530 -12 OFFCURVE",
"742 208 OFFCURVE",
"742 414 CURVE SMOOTH",
"742 493 OFFCURVE",
"712 563 OFFCURVE",
"664 613 CURVE",
"768 730 LINE",
"698 730 LINE",
"625 647 LINE",
"578 681 OFFCURVE",
"524 700 OFFCURVE",
"466 700 CURVE SMOOTH",
"248 700 OFFCURVE",
"36 480 OFFCURVE",
"36 274 CURVE SMOOTH",
"36 195 OFFCURVE",
"66 125 OFFCURVE",
"115 74 CURVE",
"-2 -58 LINE"
);
}
);
width = 778;
}
);
note = Oslash;
unicode = 00D8;
},
{
glyphname = OE;
lastChange = "2017-06-09 11:40:29 +0000";
layers = (
{
layerId = "0E02FD82-E348-46EC-A7E4-43EEF3FEB87C";
paths = (
{
closed = 1;
nodes = (
"858 256 LINE",
"814 128 OFFCURVE",
"760 42 OFFCURVE",
"614 42 CURVE SMOOTH",
"568 42 OFFCURVE",
"554 50 OFFCURVE",
"554 75 CURVE SMOOTH",
"554 94 OFFCURVE",
"560 114 OFFCURVE",
"567 142 CURVE SMOOTH",
"616 336 LINE",
"672 334 OFFCURVE",
"690 320 OFFCURVE",
"692 222 CURVE",
"730 222 LINE",
"796 498 LINE",
"754 498 LINE",
"732 412 OFFCURVE",
"694 380 OFFCURVE",
"626 378 CURVE",
"678 591 LINE SMOOTH",
"688 634 OFFCURVE",
"700 646 OFFCURVE",
"766 646 CURVE SMOOTH",
"842 646 OFFCURVE",
"896 611 OFFCURVE",
"896 530 CURVE SMOOTH",
"896 491 OFFCURVE",
"895 466 OFFCURVE",
"892 442 CURVE",
"936 442 LINE",
"994 688 LINE",
"598 688 LINE SMOOTH",
"565 688 OFFCURVE",
"540 691 OFFCURVE",
"514 694 CURVE SMOOTH",
"488 697 OFFCURVE",
"461 700 OFFCURVE",
"422 700 CURVE SMOOTH",
"224 700 OFFCURVE",
"36 506 OFFCURVE",
"36 278 CURVE SMOOTH",
"36 118 OFFCURVE",
"128 -12 OFFCURVE",
"302 -12 CURVE SMOOTH",
"325 -12 OFFCURVE",
"348 -9 OFFCURVE",
"374 -6 CURVE SMOOTH",
"401 -3 OFFCURVE",
"432 0 OFFCURVE",
"472 0 CURVE SMOOTH",
"844 0 LINE",
"904 256 LINE"
);
},
{
closed = 1;
nodes = (
"412 72 OFFCURVE",
"374 26 OFFCURVE",
"299 26 CURVE SMOOTH",
"207 26 OFFCURVE",
"172 100 OFFCURVE",
"172 181 CURVE SMOOTH",
"172 374 OFFCURVE",
"270 662 OFFCURVE",
"438 662 CURVE SMOOTH",
"496 662 OFFCURVE",
"538 638 OFFCURVE",
"538 598 CURVE SMOOTH",
"538 569 OFFCURVE",
"532 546 OFFCURVE",
"526 523 CURVE SMOOTH",
"427 130 LINE SMOOTH"
);
}
);
width = 1000;
}
);
note = OE;
unicode = 0152;
},
{
glyphname = ordmasculine;
lastChange = "2017-06-09 11:40:29 +0000";
layers = (
{
layerId = "0E02FD82-E348-46EC-A7E4-43EEF3FEB87C";
paths = (
{
closed = 1;
nodes = (
"46 459 OFFCURVE",
"108 404 OFFCURVE",
"182 404 CURVE SMOOTH",
"287 404 OFFCURVE",
"380 482 OFFCURVE",
"380 577 CURVE SMOOTH",
"380 645 OFFCURVE",
"318 700 OFFCURVE",
"244 700 CURVE SMOOTH",
"139 700 OFFCURVE",
"46 622 OFFCURVE",
"46 527 CURVE SMOOTH"
);
},
{
closed = 1;
nodes = (
"140 509 OFFCURVE",
"173 676 OFFCURVE",
"244 676 CURVE SMOOTH",
"272 676 OFFCURVE",
"286 664 OFFCURVE",
"286 631 CURVE SMOOTH",
"286 595 OFFCURVE",
"253 428 OFFCURVE",
"182 428 CURVE SMOOTH",
"154 428 OFFCURVE",
"140 440 OFFCURVE",
"140 473 CURVE SMOOTH"
);
}
);
width = 344;
}
);
note = ordmasculine;
unicode = 00BA;
},
{
glyphname = ae;
lastChange = "2017-06-09 11:40:29 +0000";
layers = (
{
layerId = "0E02FD82-E348-46EC-A7E4-43EEF3FEB87C";
paths = (
{
closed = 1;
nodes = (
"376 354 LINE",
"374 354 LINE",
"374 422 OFFCURVE",
"331 482 OFFCURVE",
"243 482 CURVE SMOOTH",
"128 482 OFFCURVE",
"-4 340 OFFCURVE",
"-4 166 CURVE SMOOTH",
"-4 51 OFFCURVE",
"74 -12 OFFCURVE",
"160 -12 CURVE SMOOTH",
"249 -12 OFFCURVE",
"310 32 OFFCURVE",
"352 158 CURVE",
"354 158 LINE",
"356 40 OFFCURVE",
"430 -12 OFFCURVE",
"531 -12 CURVE SMOOTH",
"654 -12 OFFCURVE",
"714 94 OFFCURVE",
"740 140 CURVE",
"712 156 LINE",
"668 94 OFFCURVE",
"628 30 OFFCURVE",
"550 30 CURVE SMOOTH",
"498 30 OFFCURVE",
"462 64 OFFCURVE",
"462 142 CURVE SMOOTH",
"462 164 OFFCURVE",
"464 183 OFFCURVE",
"468 205 CURVE",
"478 204 OFFCURVE",
"488 204 OFFCURVE",
"511 204 CURVE SMOOTH",
"659 204 OFFCURVE",
"774 265 OFFCURVE",
"774 368 CURVE SMOOTH",
"774 430 OFFCURVE",
"723 482 OFFCURVE",
"636 482 CURVE SMOOTH",
"560 482 OFFCURVE",
"482 424 OFFCURVE",
"444 350 CURVE",
"442 352 LINE",
"476 476 LINE",
"386 476 LINE"
);
},
{
closed = 1;
nodes = (
"128 240 OFFCURVE",
"187 440 OFFCURVE",
"276 440 CURVE SMOOTH",
"316 440 OFFCURVE",
"344 406 OFFCURVE",
"344 330 CURVE SMOOTH",
"344 216 OFFCURVE",
"288 30 OFFCURVE",
"196 30 CURVE SMOOTH",
"144 30 OFFCURVE",
"128 76 OFFCURVE",
"128 146 CURVE SMOOTH"
);
},
{
closed = 1;
nodes = (
"488 299 OFFCURVE",
"547 440 OFFCURVE",
"632 440 CURVE SMOOTH",
"656 440 OFFCURVE",
"674 422 OFFCURVE",
"674 386 CURVE SMOOTH",
"674 290 OFFCURVE",
"596 242 OFFCURVE",
"476 242 CURVE"
);
}
);
width = 833;
}
);
leftKerningGroup = a;
note = ae;
unicode = 00E6;
},
{
glyphname = dotlessi;
lastChange = "2017-06-09 11:40:29 +0000";
layers = (
{
layerId = "0E02FD82-E348-46EC-A7E4-43EEF3FEB87C";
paths = (
{
closed = 1;
nodes = (
"80 430 OFFCURVE",
"92 422 OFFCURVE",
"92 398 CURVE SMOOTH",
"92 348 OFFCURVE",
"16 181 OFFCURVE",
"16 90 CURVE SMOOTH",
"16 23 OFFCURVE",
"60 -12 OFFCURVE",
"120 -12 CURVE SMOOTH",
"206 -12 OFFCURVE",
"266 67 OFFCURVE",
"297 138 CURVE",
"265 156 LINE",
"252 135 OFFCURVE",
"210 52 OFFCURVE",
"177 52 CURVE SMOOTH",
"166 52 OFFCURVE",
"160 60 OFFCURVE",
"160 81 CURVE SMOOTH",
"160 116 OFFCURVE",
"257 442 OFFCURVE",
"266 472 CURVE",
"40 468 LINE",
"30 432 LINE"
);
}
);
width = 352;
}
);
leftKerningGroup = d;
note = dotlessi;
unicode = 0131;
},
{
glyphname = lslash;
lastChange = "2017-06-09 11:40:29 +0000";
layers = (
{
layerId = "0E02FD82-E348-46EC-A7E4-43EEF3FEB87C";
paths = (
{
closed = 1;
nodes = (
"79 674 LINE",
"69 638 LINE",
"124 636 OFFCURVE",
"139 628 OFFCURVE",
"139 605 CURVE SMOOTH",
"139 594 OFFCURVE",
"133 577 OFFCURVE",
"130 565 CURVE SMOOTH",
"75 364 LINE",
"-26 322 LINE",
"-26 270 LINE",
"59 306 LINE",
"56 294 LINE SMOOTH",
"33 202 OFFCURVE",
"14 156 OFFCURVE",
"14 89 CURVE SMOOTH",
"14 32 OFFCURVE",
"47 -12 OFFCURVE",
"114 -12 CURVE SMOOTH",
"193 -12 OFFCURVE",
"247 60 OFFCURVE",
"279 124 CURVE",
"251 143 LINE",
"216 88 OFFCURVE",
"183 40 OFFCURVE",
"160 40 CURVE SMOOTH",
"150 40 OFFCURVE",
"144 45 OFFCURVE",
"144 54 CURVE SMOOTH",
"144 67 OFFCURVE",
"155 110 OFFCURVE",
"174 177 CURVE SMOOTH",
"230 377 LINE",
"332 420 LINE",
"332 472 LINE",
"246 436 LINE",
"313 678 LINE"
);
}
);
width = 333;
}
);
note = lslash;
unicode = 0142;
},
{
glyphname = oslash;
lastChange = "2017-06-09 11:40:29 +0000";
layers = (
{
layerId = "0E02FD82-E348-46EC-A7E4-43EEF3FEB87C";
paths = (
{
closed = 1;
nodes = (
"360 329 LINE",
"350 207 OFFCURVE",
"287 26 OFFCURVE",
"205 26 CURVE SMOOTH",
"171 26 OFFCURVE",
"151 40 OFFCURVE",
"145 73 CURVE",
"358 331 LINE"
);
},
{
closed = 1;
nodes = (
"144 147 LINE",
"158 258 OFFCURVE",
"216 444 OFFCURVE",
"299 444 CURVE SMOOTH",
"331 444 OFFCURVE",
"351 432 OFFCURVE",
"358 401 CURVE",
"146 145 LINE"
);
},
{
closed = 1;
nodes = (
"373 471 OFFCURVE",
"337 482 OFFCURVE",
"298 482 CURVE SMOOTH",
"152 482 OFFCURVE",
"-4 351 OFFCURVE",
"-4 194 CURVE SMOOTH",
"-4 136 OFFCURVE",
"21 84 OFFCURVE",
"60 47 CURVE",
"-44 -76 LINE",
"18 -76 LINE",
"98 19 LINE",
"130 -1 OFFCURVE",
"166 -12 OFFCURVE",
"206 -12 CURVE SMOOTH",
"368 -12 OFFCURVE",
"508 119 OFFCURVE",
"508 276 CURVE SMOOTH",
"508 335 OFFCURVE",
"483 388 OFFCURVE",
"442 425 CURVE",
"536 536 LINE",
"474 536 LINE",
"404 453 LINE"
);
}
);
width = 574;
}
);
leftKerningGroup = o;
note = oslash;
unicode = 00F8;
},
{
glyphname = oe;
lastChange = "2017-06-09 11:40:29 +0000";
layers = (
{
layerId = "0E02FD82-E348-46EC-A7E4-43EEF3FEB87C";
paths = (
{
closed = 1;
nodes = (
"702 102 OFFCURVE",
"658 30 OFFCURVE",
"565 30 CURVE SMOOTH",
"496 30 OFFCURVE",
"475 78 OFFCURVE",
"475 118 CURVE SMOOTH",
"475 150 OFFCURVE",
"485 197 OFFCURVE",
"491 212 CURVE",
"684 206 OFFCURVE",
"795 274 OFFCURVE",
"795 375 CURVE SMOOTH",
"795 450 OFFCURVE",
"735 482 OFFCURVE",
"654 482 CURVE SMOOTH",
"575 482 OFFCURVE",
"488 432 OFFCURVE",
"442 356 CURVE",
"440 356 LINE",
"431 431 OFFCURVE",
"368 482 OFFCURVE",
"293 482 CURVE SMOOTH",
"138 482 OFFCURVE",
"-4 356 OFFCURVE",
"-4 190 CURVE SMOOTH",
"-4 64 OFFCURVE",
"84 -12 OFFCURVE",
"181 -12 CURVE SMOOTH",
"271 -12 OFFCURVE",
"341 24 OFFCURVE",
"378 91 CURVE",
"406 27 OFFCURVE",
"472 -12 OFFCURVE",
"542 -12 CURVE SMOOTH",
"652 -12 OFFCURVE",
"715 40 OFFCURVE",
"764 141 CURVE",
"733 155 LINE"
);
},
{
closed = 1;
nodes = (
"132 186 OFFCURVE",
"182 444 OFFCURVE",
"296 444 CURVE SMOOTH",
"335 444 OFFCURVE",
"361 422 OFFCURVE",
"361 362 CURVE SMOOTH",
"361 192 OFFCURVE",
"286 26 OFFCURVE",
"202 26 CURVE SMOOTH",
"158 26 OFFCURVE",
"132 54 OFFCURVE",
"132 108 CURVE SMOOTH"
);
},
{
closed = 1;
nodes = (
"519 332 OFFCURVE",
"579 440 OFFCURVE",
"642 440 CURVE SMOOTH",
"669 440 OFFCURVE",
"687 426 OFFCURVE",
"687 393 CURVE SMOOTH",
"687 324 OFFCURVE",
"636 244 OFFCURVE",
"503 254 CURVE"
);
}
);
width = 852;
}
);
leftKerningGroup = o;
note = oe;
unicode = 0153;
},
{
glyphname = germandbls;
lastChange = "2017-06-09 11:40:29 +0000";
layers = (
{
layerId = "0E02FD82-E348-46EC-A7E4-43EEF3FEB87C";
paths = (
{
closed = 1;
nodes = (
"72 295 OFFCURVE",
"47 162 OFFCURVE",
"-12 -39 CURVE SMOOTH",
"-31 -104 OFFCURVE",
"-74 -144 OFFCURVE",
"-102 -144 CURVE SMOOTH",
"-112 -144 OFFCURVE",
"-118 -141 OFFCURVE",
"-118 -139 CURVE SMOOTH",
"-118 -136 OFFCURVE",
"-94 -128 OFFCURVE",
"-94 -92 CURVE SMOOTH",
"-94 -54 OFFCURVE",
"-126 -30 OFFCURVE",
"-162 -30 CURVE SMOOTH",
"-205 -30 OFFCURVE",
"-238 -60 OFFCURVE",
"-238 -103 CURVE SMOOTH",
"-238 -155 OFFCURVE",
"-180 -182 OFFCURVE",
"-134 -182 CURVE SMOOTH",
"24 -182 OFFCURVE",
"149 -13 OFFCURVE",
"180 134 CURVE SMOOTH",
"252 477 LINE SMOOTH",
"275 589 OFFCURVE",
"322 650 OFFCURVE",
"388 650 CURVE SMOOTH",
"436 650 OFFCURVE",
"467 614 OFFCURVE",
"467 556 CURVE SMOOTH",
"467 374 OFFCURVE",
"278 460 OFFCURVE",
"278 320 CURVE SMOOTH",
"278 216 OFFCURVE",
"458 215 OFFCURVE",
"458 109 CURVE SMOOTH",
"458 54 OFFCURVE",
"406 18 OFFCURVE",
"343 18 CURVE SMOOTH",
"311 18 OFFCURVE",
"285 29 OFFCURVE",
"268 58 CURVE",
"276 56 OFFCURVE",
"283 54 OFFCURVE",
"290 54 CURVE SMOOTH",
"320 54 OFFCURVE",
"342 78 OFFCURVE",
"342 112 CURVE SMOOTH",
"342 142 OFFCURVE",
"319 170 OFFCURVE",
"280 170 CURVE SMOOTH",
"240 170 OFFCURVE",
"206 147 OFFCURVE",
"206 96 CURVE SMOOTH",
"206 40 OFFCURVE",
"266 -20 OFFCURVE",
"362 -20 CURVE SMOOTH",
"480 -20 OFFCURVE",
"574 64 OFFCURVE",
"574 164 CURVE SMOOTH",
"574 316 OFFCURVE",
"376 334 OFFCURVE",
"376 372 CURVE SMOOTH",
"376 428 OFFCURVE",
"603 376 OFFCURVE",
"603 534 CURVE SMOOTH",
"603 646 OFFCURVE",
"486 688 OFFCURVE",
"398 688 CURVE SMOOTH",
"250 688 OFFCURVE",
"157 604 OFFCURVE",
"116 470 CURVE",
"30 470 LINE",
"20 428 LINE",
"105 428 LINE"
);
}
);
width = 648;
}
);
note = germandbls;
unicode = 00DF;
},
{
glyphname = onesuperior;
lastChange = "2017-06-09 11:40:29 +0000";
layers = (
{
layerId = "0E02FD82-E348-46EC-A7E4-43EEF3FEB87C";
paths = (
{
closed = 1;
nodes = (
"286 306 LINE",
"230 308 OFFCURVE",
"220 316 OFFCURVE",
"220 331 CURVE SMOOTH",
"220 347 OFFCURVE",
"310 647 OFFCURVE",
"324 692 CURVE",
"290 692 LINE",
"244 671 OFFCURVE",
"190 658 OFFCURVE",
"132 656 CURVE",
"126 632 LINE",
"204 628 LINE",
"177 538 OFFCURVE",
"136 387 OFFCURVE",
"119 340 CURVE SMOOTH",
"113 323 OFFCURVE",
"93 308 OFFCURVE",
"20 306 CURVE",
"14 280 LINE",
"280 280 LINE"
);
}
);
width = 344;
}
);
note = onesuperior;
unicode = 00B9;
},
{
glyphname = logicalnot;
lastChange = "2017-06-09 11:40:29 +0000";
layers = (
{
layerId = "0E02FD82-E348-46EC-A7E4-43EEF3FEB87C";
paths = (
{
closed = 1;
nodes = (
"535 84 LINE",
"535 386 LINE",
"65 386 LINE",
"65 284 LINE",
"433 284 LINE",
"433 84 LINE"
);
}
);
width = 600;
}
);
note = logicalnot;
unicode = 00AC;
},
{
glyphname = mu;
lastChange = "2017-06-09 11:40:29 +0000";
layers = (
{
layerId = "0E02FD82-E348-46EC-A7E4-43EEF3FEB87C";
paths = (
{
closed = 1;
nodes = (
"385 394 LINE SMOOTH",
"329 150 OFFCURVE",
"240 46 OFFCURVE",
"192 46 CURVE SMOOTH",
"171 46 OFFCURVE",
"160 65 OFFCURVE",
"160 85 CURVE SMOOTH",
"160 120 OFFCURVE",
"230 338 OFFCURVE",
"270 472 CURVE",
"50 468 LINE",
"40 432 LINE",
"82 432 OFFCURVE",
"102 424 OFFCURVE",
"102 396 CURVE SMOOTH",
"102 335 OFFCURVE",
"-30 -20 OFFCURVE",
"-30 -104 CURVE SMOOTH",
"-30 -147 OFFCURVE",
"-20 -182 OFFCURVE",
"30 -182 CURVE SMOOTH",
"112 -182 OFFCURVE",
"122 -79 OFFCURVE",
"133 -10 CURVE",
"139 -11 OFFCURVE",
"143 -12 OFFCURVE",
"147 -12 CURVE SMOOTH",
"228 -12 OFFCURVE",
"274 44 OFFCURVE",
"322 116 CURVE",
"324 114 LINE",
"323 105 OFFCURVE",
"322 97 OFFCURVE",
"322 89 CURVE SMOOTH",
"322 35 OFFCURVE",
"349 -12 OFFCURVE",
"413 -12 CURVE SMOOTH",
"496 -12 OFFCURVE",
"547 71 OFFCURVE",
"580 136 CURVE",
"548 152 LINE",
"538 133 OFFCURVE",
"493 52 OFFCURVE",
"465 52 CURVE SMOOTH",
"456 52 OFFCURVE",
"448 58 OFFCURVE",
"448 78 CURVE SMOOTH",
"448 96 OFFCURVE",
"455 126 OFFCURVE",
"464 159 CURVE SMOOTH",
"546 472 LINE",
"402 468 LINE"
);
}
);
width = 630;
}
);
note = mu;
unicode = 00B5;
},
{
glyphname = trademark;
lastChange = "2017-06-09 11:40:29 +0000";
layers = (
{
layerId = "0E02FD82-E348-46EC-A7E4-43EEF3FEB87C";
paths = (
{
closed = 1;
nodes = (
"303 662 LINE SMOOTH",
"341 662 OFFCURVE",
"358 634 OFFCURVE",
"364 602 CURVE",
"390 602 LINE",
"390 688 LINE",
"18 688 LINE",
"18 602 LINE",
"44 602 LINE",
"50 634 OFFCURVE",
"68 662 OFFCURVE",
"105 662 CURVE SMOOTH",
"148 662 LINE",
"148 358 LINE SMOOTH",
"148 322 OFFCURVE",
"146 320 OFFCURVE",
"96 316 CURVE",
"96 290 LINE",
"312 290 LINE",
"312 316 LINE",
"262 320 OFFCURVE",
"260 322 OFFCURVE",
"260 358 CURVE SMOOTH",
"260 662 LINE"
);
},
{
closed = 1;
nodes = (
"677 290 LINE",
"816 564 LINE",
"818 564 LINE",
"818 358 LINE SMOOTH",
"818 322 OFFCURVE",
"816 320 OFFCURVE",
"770 316 CURVE",
"770 290 LINE",
"982 290 LINE",
"982 316 LINE",
"932 320 OFFCURVE",
"930 322 OFFCURVE",
"930 358 CURVE SMOOTH",
"930 620 LINE SMOOTH",
"930 656 OFFCURVE",
"932 658 OFFCURVE",
"982 662 CURVE",
"982 688 LINE",
"850 688 LINE",
"712 423 LINE",
"583 688 LINE",
"430 688 LINE",
"430 662 LINE",
"459 662 OFFCURVE",
"484 643 OFFCURVE",
"498 610 CURVE",
"498 380 LINE SMOOTH",
"498 325 OFFCURVE",
"488 318 OFFCURVE",
"450 316 CURVE",
"450 290 LINE",
"582 290 LINE",
"582 316 LINE",
"540 318 OFFCURVE",
"530 325 OFFCURVE",
"530 380 CURVE SMOOTH",
"530 564 LINE",
"532 564 LINE",
"662 290 LINE"
);
}
);
width = 1000;
}
);
note = trademark;
unicode = 2122;
},
{
glyphname = Eth;
lastChange = "2017-06-09 11:40:29 +0000";
layers = (
{
layerId = "0E02FD82-E348-46EC-A7E4-43EEF3FEB87C";
paths = (
{
closed = 1;
nodes = (
"68 123 LINE",
"59 87 LINE SMOOTH",
"51 56 OFFCURVE",
"26 44 OFFCURVE",
"-48 42 CURVE",
"-58 0 LINE",
"332 0 LINE SMOOTH",
"552 0 OFFCURVE",
"754 176 OFFCURVE",
"754 406 CURVE SMOOTH",
"754 552 OFFCURVE",
"646 688 OFFCURVE",
"446 688 CURVE SMOOTH",
"124 688 LINE",
"114 646 LINE",
"182 644 OFFCURVE",
"196 632 OFFCURVE",
"196 608 CURVE SMOOTH",
"196 594 OFFCURVE",
"191 571 OFFCURVE",
"146 408 CURVE",
"54 408 LINE",
"39 352 LINE",
"131 352 LINE"
);
},
{
closed = 1;
nodes = (
"468 408 LINE",
"309 408 LINE",
"355 583 LINE SMOOTH",
"365 623 OFFCURVE",
"381 646 OFFCURVE",
"451 646 CURVE SMOOTH",
"524 646 OFFCURVE",
"584 602 OFFCURVE",
"584 473 CURVE SMOOTH",
"584 310 OFFCURVE",
"496 42 OFFCURVE",
"304 42 CURVE SMOOTH",
"240 42 OFFCURVE",
"228 64 OFFCURVE",
"228 90 CURVE SMOOTH",
"228 107 OFFCURVE",
"233 122 OFFCURVE",
"242 157 CURVE SMOOTH",
"294 352 LINE",
"453 352 LINE"
);
}
);
width = 796;
}
);
note = Eth;
unicode = 00D0;
},
{
glyphname = onehalf;
lastChange = "2017-06-09 11:40:29 +0000";
layers = (
{
layerId = "0E02FD82-E348-46EC-A7E4-43EEF3FEB87C";
paths = (
{
closed = 1;
nodes = (
"619 700 LINE",
"174 -12 LINE",
"230 -12 LINE",
"675 700 LINE"
);
},
{
closed = 1;
nodes = (
"270 306 LINE",
"214 308 OFFCURVE",
"204 316 OFFCURVE",
"204 331 CURVE SMOOTH",
"204 347 OFFCURVE",
"294 647 OFFCURVE",
"308 692 CURVE",
"274 692 LINE",
"228 671 OFFCURVE",
"174 658 OFFCURVE",
"116 656 CURVE",
"110 632 LINE",
"188 628 LINE",
"161 538 OFFCURVE",
"120 387 OFFCURVE",
"103 340 CURVE SMOOTH",
"97 323 OFFCURVE",
"77 308 OFFCURVE",
"4 306 CURVE",
"-2 280 LINE",
"264 280 LINE"
);
},
{
closed = 1;
nodes = (
"653 316 OFFCURVE",
"627 270 OFFCURVE",
"598 270 CURVE SMOOTH",
"583 270 OFFCURVE",
"572 282 OFFCURVE",
"572 295 CURVE SMOOTH",
"572 327 OFFCURVE",
"616 377 OFFCURVE",
"675 377 CURVE SMOOTH",
"712 377 OFFCURVE",
"733 363 OFFCURVE",
"733 321 CURVE SMOOTH",
"733 195 OFFCURVE",
"460 151 OFFCURVE",
"460 20 CURVE SMOOTH",
"460 0 OFFCURVE",
"471 -10 OFFCURVE",
"484 -10 CURVE SMOOTH",
"502 -10 OFFCURVE",
"512 2 OFFCURVE",
"512 25 CURVE SMOOTH",
"512 34 OFFCURVE",
"510 42 OFFCURVE",
"510 52 CURVE SMOOTH",
"510 56 OFFCURVE",
"511 57 OFFCURVE",
"519 57 CURVE SMOOTH",
"548 57 OFFCURVE",
"572 -12 OFFCURVE",
"661 -12 CURVE SMOOTH",
"727 -12 OFFCURVE",
"763 30 OFFCURVE",
"801 145 CURVE",
"771 156 LINE",
"752 112 OFFCURVE",
"732 78 OFFCURVE",
"674 78 CURVE SMOOTH",
"646 78 OFFCURVE",
"621 95 OFFCURVE",
"582 95 CURVE SMOOTH",
"566 95 OFFCURVE",
"551 90 OFFCURVE",
"534 87 CURVE",
"533 89 LINE",
"660 189 OFFCURVE",
"837 187 OFFCURVE",
"837 314 CURVE SMOOTH",
"837 375 OFFCURVE",
"774 415 OFFCURVE",
"697 415 CURVE SMOOTH",
"611 415 OFFCURVE",
"538 357 OFFCURVE",
"538 293 CURVE SMOOTH",
"538 260 OFFCURVE",
"567 240 OFFCURVE",
"596 240 CURVE SMOOTH",
"645 240 OFFCURVE",
"674 291 OFFCURVE",
"692 325 CURVE",
"666 338 LINE"
);
}
);
width = 861;
}
);
note = onehalf;
unicode = 00BD;
},
{
glyphname = plusminus;
lastChange = "2017-06-09 11:40:29 +0000";
layers = (
{
layerId = "0E02FD82-E348-46EC-A7E4-43EEF3FEB87C";
paths = (
{
closed = 1;
nodes = (
"65 354 LINE",
"65 252 LINE",
"249 252 LINE",
"249 136 LINE",
"351 136 LINE",
"351 252 LINE",
"535 252 LINE",
"535 354 LINE",
"351 354 LINE",
"351 470 LINE",
"249 470 LINE",
"249 354 LINE"
);
},
{
closed = 1;
nodes = (
"535 0 LINE",
"535 102 LINE",
"65 102 LINE",
"65 0 LINE"
);
}
);
width = 600;
}
);
note = plusminus;
unicode = 00B1;
},
{
glyphname = Thorn;
lastChange = "2017-06-09 11:40:29 +0000";
layers = (
{
layerId = "0E02FD82-E348-46EC-A7E4-43EEF3FEB87C";
paths = (
{
closed = 1;
nodes = (
"317 408 LINE SMOOTH",
"331 458 OFFCURVE",
"358 480 OFFCURVE",
"409 480 CURVE SMOOTH",
"454 480 OFFCURVE",
"484 446 OFFCURVE",
"484 392 CURVE SMOOTH",
"484 294 OFFCURVE",
"424 208 OFFCURVE",
"332 208 CURVE SMOOTH",
"262 208 LINE"
);
},
{
closed = 1;
nodes = (
"320 42 LINE",
"244 44 OFFCURVE",
"232 52 OFFCURVE",
"232 70 CURVE SMOOTH",
"232 89 OFFCURVE",
"239 120 OFFCURVE",
"252 166 CURVE",
"338 166 LINE SMOOTH",
"546 166 OFFCURVE",
"648 246 OFFCURVE",
"648 356 CURVE SMOOTH",
"648 465 OFFCURVE",
"562 522 OFFCURVE",
"402 522 CURVE SMOOTH",
"349 522 LINE",
"366 588 LINE SMOOTH",
"374 620 OFFCURVE",
"396 644 OFFCURVE",
"482 646 CURVE",
"492 688 LINE",
"128 688 LINE",
"118 646 LINE",
"196 644 OFFCURVE",
"206 636 OFFCURVE",
"206 614 CURVE SMOOTH",
"206 599 OFFCURVE",
"200 576 OFFCURVE",
"193 550 CURVE SMOOTH",
"66 95 LINE SMOOTH",
"56 58 OFFCURVE",
"38 48 OFFCURVE",
"-48 42 CURVE",
"-58 0 LINE",
"310 0 LINE"
);
}
);
width = 685;
}
);
note = Thorn;
unicode = 00DE;
},
{
glyphname = onequarter;
lastChange = "2017-06-09 11:40:29 +0000";
layers = (
{
layerId = "0E02FD82-E348-46EC-A7E4-43EEF3FEB87C";
paths = (
{
closed = 1;
nodes = (
"605 319 OFFCURVE",
"581 224 OFFCURVE",
"524 147 CURVE",
"514 149 OFFCURVE",
"505 151 OFFCURVE",
"497 151 CURVE SMOOTH",
"473 151 OFFCURVE",
"464 145 OFFCURVE",
"464 126 CURVE SMOOTH",
"464 115 OFFCURVE",
"475 107 OFFCURVE",
"487 107 CURVE SMOOTH",
"500 107 OFFCURVE",
"517 117 OFFCURVE",
"532 117 CURVE SMOOTH",
"557 117 OFFCURVE",
"599 79 OFFCURVE",
"640 68 CURVE",
"608 -54 LINE",
"694 -54 LINE",
"728 68 LINE",
"760 77 OFFCURVE",
"787 98 OFFCURVE",
"810 122 CURVE",
"796 136 LINE",
"777 122 OFFCURVE",
"759 109 OFFCURVE",
"738 102 CURVE",
"794 306 LINE",
"708 306 LINE",
"652 110 LINE",
"626 118 OFFCURVE",
"595 133 OFFCURVE",
"556 138 CURVE",
"621 197 OFFCURVE",
"692 307 OFFCURVE",
"712 413 CURVE",
"614 413 LINE"
);
},
{
closed = 1;
nodes = (
"641 700 LINE",
"196 -12 LINE",
"252 -12 LINE",
"697 700 LINE"
);
},
{
closed = 1;
nodes = (
"278 306 LINE",
"222 308 OFFCURVE",
"212 316 OFFCURVE",
"212 331 CURVE SMOOTH",
"212 347 OFFCURVE",
"302 647 OFFCURVE",
"316 692 CURVE",
"282 692 LINE",
"236 671 OFFCURVE",
"182 658 OFFCURVE",
"124 656 CURVE",
"118 632 LINE",
"196 628 LINE",
"169 538 OFFCURVE",
"128 387 OFFCURVE",
"111 340 CURVE SMOOTH",
"105 323 OFFCURVE",
"85 308 OFFCURVE",
"12 306 CURVE",
"6 280 LINE",
"272 280 LINE"
);
}
);
width = 861;
}
);
note = onequarter;
unicode = 00BC;
},
{
glyphname = divide;
lastChange = "2017-06-09 11:40:29 +0000";
layers = (
{
layerId = "0E02FD82-E348-46EC-A7E4-43EEF3FEB87C";
paths = (
{
closed = 1;
nodes = (
"535 286 LINE",
"65 286 LINE",
"65 184 LINE",
"535 184 LINE"
);
},
{
closed = 1;
nodes = (
"218 384 OFFCURVE",
"256 346 OFFCURVE",
"300 346 CURVE SMOOTH",
"344 346 OFFCURVE",
"382 384 OFFCURVE",
"382 428 CURVE SMOOTH",
"382 472 OFFCURVE",
"344 510 OFFCURVE",
"300 510 CURVE SMOOTH",
"256 510 OFFCURVE",
"218 472 OFFCURVE",
"218 428 CURVE SMOOTH"
);
},
{
closed = 1;
nodes = (
"218 -2 OFFCURVE",
"256 -40 OFFCURVE",
"300 -40 CURVE SMOOTH",
"344 -40 OFFCURVE",
"382 -2 OFFCURVE",
"382 42 CURVE SMOOTH",
"382 86 OFFCURVE",
"344 124 OFFCURVE",
"300 124 CURVE SMOOTH",
"256 124 OFFCURVE",
"218 86 OFFCURVE",
"218 42 CURVE SMOOTH"
);
}
);
width = 600;
}
);
note = divide;
unicode = 00F7;
},
{
glyphname = brokenbar;
lastChange = "2017-06-09 11:40:29 +0000";
layers = (
{
layerId = "0E02FD82-E348-46EC-A7E4-43EEF3FEB87C";
paths = (
{
closed = 1;
nodes = (
"162 0 LINE",
"162 262 LINE",
"60 262 LINE",
"60 0 LINE"
);
},
{
closed = 1;
nodes = (
"162 438 LINE",
"162 700 LINE",
"60 700 LINE",
"60 438 LINE"
);
}
);
width = 222;
}
);
note = brokenbar;
unicode = 00A6;
},
{
glyphname = degree;
lastChange = "2017-06-09 11:40:29 +0000";
layers = (
{
layerId = "0E02FD82-E348-46EC-A7E4-43EEF3FEB87C";
paths = (
{
closed = 1;
nodes = (
"109 609 OFFCURVE",
"150 654 OFFCURVE",
"200 654 CURVE SMOOTH",
"250 654 OFFCURVE",
"291 609 OFFCURVE",
"291 558 CURVE SMOOTH",
"291 507 OFFCURVE",
"250 462 OFFCURVE",
"200 462 CURVE SMOOTH",
"150 462 OFFCURVE",
"109 507 OFFCURVE",
"109 558 CURVE SMOOTH"
);
},
{
closed = 1;
nodes = (
"59 480 OFFCURVE",
"122 416 OFFCURVE",
"200 416 CURVE SMOOTH",
"278 416 OFFCURVE",
"341 480 OFFCURVE",
"341 558 CURVE SMOOTH",
"341 638 OFFCURVE",
"279 700 OFFCURVE",
"200 700 CURVE SMOOTH",
"122 700 OFFCURVE",
"59 636 OFFCURVE",
"59 558 CURVE SMOOTH"
);
}
);
width = 400;
}
);
note = degree;
unicode = 00B0;
},
{
glyphname = thorn;
lastChange = "2017-06-09 11:40:29 +0000";
layers = (
{
layerId = "0E02FD82-E348-46EC-A7E4-43EEF3FEB87C";
paths = (
{
closed = 1;
nodes = (
"88 674 LINE",
"78 638 LINE",
"133 636 OFFCURVE",
"148 628 OFFCURVE",
"148 605 CURVE SMOOTH",
"148 590 OFFCURVE",
"142 560 OFFCURVE",
"133 526 CURVE SMOOTH",
"-32 -91 LINE SMOOTH",
"-41 -126 OFFCURVE",
"-63 -130 OFFCURVE",
"-129 -132 CURVE",
"-139 -170 LINE",
"209 -170 LINE",
"219 -132 LINE",
"129 -130 OFFCURVE",
"113 -120 OFFCURVE",
"113 -99 CURVE SMOOTH",
"113 -77 OFFCURVE",
"124 -45 OFFCURVE",
"132 -14 CURVE SMOOTH",
"146 42 LINE",
"148 42 LINE",
"160 0 OFFCURVE",
"202 -12 OFFCURVE",
"234 -12 CURVE SMOOTH",
"386 -12 OFFCURVE",
"545 134 OFFCURVE",
"545 293 CURVE SMOOTH",
"545 396 OFFCURVE",
"488 482 OFFCURVE",
"384 482 CURVE SMOOTH",
"322 482 OFFCURVE",
"287 443 OFFCURVE",
"249 402 CURVE",
"247 404 LINE",
"319 678 LINE"
);
},
{
closed = 1;
nodes = (
"178 234 OFFCURVE",
"272 430 OFFCURVE",
"356 430 CURVE SMOOTH",
"385 430 OFFCURVE",
"397 405 OFFCURVE",
"397 343 CURVE SMOOTH",
"397 227 OFFCURVE",
"310 30 OFFCURVE",
"228 30 CURVE SMOOTH",
"210 30 OFFCURVE",
"178 40 OFFCURVE",
"178 90 CURVE SMOOTH"
);
}
);
width = 611;
}
);
note = thorn;
unicode = 00FE;
},
{
glyphname = threequarters;
lastChange = "2017-06-09 11:40:29 +0000";
layers = (
{
layerId = "0E02FD82-E348-46EC-A7E4-43EEF3FEB87C";
paths = (
{
closed = 1;
nodes = (
"603 319 OFFCURVE",
"579 224 OFFCURVE",
"522 147 CURVE",
"512 149 OFFCURVE",
"503 151 OFFCURVE",
"495 151 CURVE SMOOTH",
"471 151 OFFCURVE",
"462 145 OFFCURVE",
"462 126 CURVE SMOOTH",
"462 115 OFFCURVE",
"473 107 OFFCURVE",
"485 107 CURVE SMOOTH",
"498 107 OFFCURVE",
"515 117 OFFCURVE",
"530 117 CURVE SMOOTH",
"555 117 OFFCURVE",
"597 79 OFFCURVE",
"638 68 CURVE",
"606 -54 LINE",
"692 -54 LINE",
"726 68 LINE",
"758 77 OFFCURVE",
"785 98 OFFCURVE",
"808 122 CURVE",
"794 136 LINE",
"775 122 OFFCURVE",
"757 109 OFFCURVE",
"736 102 CURVE",
"792 306 LINE",
"706 306 LINE",
"650 110 LINE",
"624 118 OFFCURVE",
"593 133 OFFCURVE",
"554 138 CURVE",
"619 197 OFFCURVE",
"690 307 OFFCURVE",
"710 413 CURVE",
"612 413 LINE"
);
},
{
closed = 1;
nodes = (
"649 700 LINE",
"204 -12 LINE",
"260 -12 LINE",
"705 700 LINE"
);
},
{
closed = 1;
nodes = (
"199 582 OFFCURVE",
"175 557 OFFCURVE",
"152 557 CURVE SMOOTH",
"137 557 OFFCURVE",
"128 567 OFFCURVE",
"128 584 CURVE SMOOTH",
"128 624 OFFCURVE",
"182 666 OFFCURVE",
"231 666 CURVE SMOOTH",
"274 666 OFFCURVE",
"298 650 OFFCURVE",
"298 614 CURVE SMOOTH",
"298 569 OFFCURVE",
"249 505 OFFCURVE",
"202 505 CURVE SMOOTH",
"192 505 OFFCURVE",
"183 508 OFFCURVE",
"173 508 CURVE SMOOTH",
"146 508 OFFCURVE",
"136 500 OFFCURVE",
"136 487 CURVE SMOOTH",
"136 473 OFFCURVE",
"149 464 OFFCURVE",
"168 464 CURVE SMOOTH",
"181 464 OFFCURVE",
"199 471 OFFCURVE",
"212 471 CURVE SMOOTH",
"231 471 OFFCURVE",
"252 458 OFFCURVE",
"252 422 CURVE SMOOTH",
"252 371 OFFCURVE",
"207 307 OFFCURVE",
"132 307 CURVE SMOOTH",
"99 307 OFFCURVE",
"64 318 OFFCURVE",
"64 354 CURVE",
"72 347 OFFCURVE",
"84 342 OFFCURVE",
"95 342 CURVE SMOOTH",
"121 342 OFFCURVE",
"140 360 OFFCURVE",
"140 386 CURVE SMOOTH",
"140 411 OFFCURVE",
"119 430 OFFCURVE",
"92 430 CURVE SMOOTH",
"59 430 OFFCURVE",
"28 406 OFFCURVE",
"28 358 CURVE SMOOTH",
"28 309 OFFCURVE",
"72 273 OFFCURVE",
"158 273 CURVE SMOOTH",
"261 273 OFFCURVE",
"352 344 OFFCURVE",
"352 411 CURVE SMOOTH",
"352 462 OFFCURVE",
"315 481 OFFCURVE",
"268 493 CURVE",
"268 495 LINE",
"326 507 OFFCURVE",
"394 545 OFFCURVE",
"394 606 CURVE SMOOTH",
"394 651 OFFCURVE",
"349 700 OFFCURVE",
"254 700 CURVE SMOOTH",
"148 700 OFFCURVE",
"92 621 OFFCURVE",
"92 579 CURVE SMOOTH",
"92 552 OFFCURVE",
"114 528 OFFCURVE",
"145 528 CURVE SMOOTH",
"180 528 OFFCURVE",
"225 560 OFFCURVE",
"245 611 CURVE",
"224 623 LINE"
);
}
);
width = 861;
}
);
note = threequarters;
unicode = 00BE;
},
{
glyphname = twosuperior;
lastChange = "2017-06-09 11:40:29 +0000";
layers = (
{
layerId = "0E02FD82-E348-46EC-A7E4-43EEF3FEB87C";
paths = (
{
closed = 1;
nodes = (
"195 601 OFFCURVE",
"169 555 OFFCURVE",
"140 555 CURVE SMOOTH",
"125 555 OFFCURVE",
"114 567 OFFCURVE",
"114 580 CURVE SMOOTH",
"114 612 OFFCURVE",
"158 662 OFFCURVE",
"217 662 CURVE SMOOTH",
"254 662 OFFCURVE",
"275 648 OFFCURVE",
"275 606 CURVE SMOOTH",
"275 480 OFFCURVE",
"2 436 OFFCURVE",
"2 305 CURVE SMOOTH",
"2 285 OFFCURVE",
"13 275 OFFCURVE",
"26 275 CURVE SMOOTH",
"44 275 OFFCURVE",
"54 287 OFFCURVE",
"54 310 CURVE SMOOTH",
"54 319 OFFCURVE",
"52 327 OFFCURVE",
"52 337 CURVE SMOOTH",
"52 341 OFFCURVE",
"53 342 OFFCURVE",
"61 342 CURVE SMOOTH",
"90 342 OFFCURVE",
"114 273 OFFCURVE",
"203 273 CURVE SMOOTH",
"269 273 OFFCURVE",
"305 315 OFFCURVE",
"343 430 CURVE",
"313 441 LINE",
"294 397 OFFCURVE",
"274 363 OFFCURVE",
"216 363 CURVE SMOOTH",
"188 363 OFFCURVE",
"163 380 OFFCURVE",
"124 380 CURVE SMOOTH",
"108 380 OFFCURVE",
"93 375 OFFCURVE",
"76 372 CURVE",
"75 374 LINE",
"202 474 OFFCURVE",
"379 472 OFFCURVE",
"379 599 CURVE SMOOTH",
"379 660 OFFCURVE",
"316 700 OFFCURVE",
"239 700 CURVE SMOOTH",
"153 700 OFFCURVE",
"80 642 OFFCURVE",
"80 578 CURVE SMOOTH",
"80 545 OFFCURVE",
"109 525 OFFCURVE",
"138 525 CURVE SMOOTH",
"187 525 OFFCURVE",
"216 576 OFFCURVE",
"234 610 CURVE",
"208 623 LINE"
);
}
);
width = 344;
}
);
note = twosuperior;
unicode = 00B2;
},
{
glyphname = registered;
lastChange = "2017-06-09 11:40:29 +0000";
layers = (
{
layerId = "0E02FD82-E348-46EC-A7E4-43EEF3FEB87C";
paths = (
{
closed = 1;
nodes = (
"372 186 OFFCURVE",
"368 190 OFFCURVE",
"368 224 CURVE SMOOTH",
"368 328 LINE",
"392 328 LINE",
"432 263 OFFCURVE",
"464 162 OFFCURVE",
"494 162 CURVE SMOOTH",
"588 162 LINE",
"588 176 LINE",
"569 200 OFFCURVE",
"549 228 OFFCURVE",
"528 258 CURVE SMOOTH",
"471 341 LINE",
"520 356 OFFCURVE",
"548 400 OFFCURVE",
"548 442 CURVE SMOOTH",
"548 511 OFFCURVE",
"500 544 OFFCURVE",
"438 544 CURVE SMOOTH",
"232 544 LINE",
"232 522 LINE",
"270 520 OFFCURVE",
"274 516 OFFCURVE",
"274 482 CURVE SMOOTH",
"274 224 LINE SMOOTH",
"274 190 OFFCURVE",
"270 186 OFFCURVE",
"232 184 CURVE",
"232 162 LINE",
"410 162 LINE",
"410 184 LINE"
);
},
{
closed = 1;
nodes = (
"395 518 LINE SMOOTH",
"430 518 OFFCURVE",
"446 499 OFFCURVE",
"446 436 CURVE SMOOTH",
"446 392 OFFCURVE",
"434 354 OFFCURVE",
"394 354 CURVE SMOOTH",
"368 354 LINE",
"368 518 LINE"
);
},
{
closed = 1;
nodes = (
"52 142 OFFCURVE",
"199 -12 OFFCURVE",
"400 -12 CURVE SMOOTH",
"601 -12 OFFCURVE",
"748 142 OFFCURVE",
"748 344 CURVE SMOOTH",
"748 546 OFFCURVE",
"601 700 OFFCURVE",
"400 700 CURVE SMOOTH",
"199 700 OFFCURVE",
"52 546 OFFCURVE",
"52 344 CURVE SMOOTH"
);
},
{
closed = 1;
nodes = (
"138 508 OFFCURVE",
"246 638 OFFCURVE",
"400 638 CURVE SMOOTH",
"554 638 OFFCURVE",
"662 508 OFFCURVE",
"662 344 CURVE SMOOTH",
"662 180 OFFCURVE",
"554 50 OFFCURVE",
"400 50 CURVE SMOOTH",
"246 50 OFFCURVE",
"138 180 OFFCURVE",
"138 344 CURVE SMOOTH"
);
}
);
width = 800;
}
);
note = registered;
unicode = 00AE;
},
{
glyphname = minus;
lastChange = "2017-06-09 11:40:29 +0000";
layers = (
{
layerId = "0E02FD82-E348-46EC-A7E4-43EEF3FEB87C";
paths = (
{
closed = 1;
nodes = (
"535 184 LINE",
"535 286 LINE",
"65 286 LINE",
"65 184 LINE"
);
}
);
width = 600;
}
);
note = minus;
unicode = 2212;
},
{
glyphname = eth;
lastChange = "2017-06-09 11:40:29 +0000";
layers = (
{
layerId = "0E02FD82-E348-46EC-A7E4-43EEF3FEB87C";
paths = (
{
closed = 1;
nodes = (
"341 430 OFFCURVE",
"360 409 OFFCURVE",
"360 355 CURVE SMOOTH",
"360 235 OFFCURVE",
"293 26 OFFCURVE",
"203 26 CURVE SMOOTH",
"159 26 OFFCURVE",
"140 47 OFFCURVE",
"140 101 CURVE SMOOTH",
"140 198 OFFCURVE",
"203 430 OFFCURVE",
"297 430 CURVE SMOOTH"
);
},
{
closed = 1;
nodes = (
"299 612 LINE",
"339 579 OFFCURVE",
"361 527 OFFCURVE",
"366 456 CURVE",
"344 464 OFFCURVE",
"320 468 OFFCURVE",
"295 468 CURVE SMOOTH",
"151 468 OFFCURVE",
"-4 341 OFFCURVE",
"-4 188 CURVE SMOOTH",
"-4 77 OFFCURVE",
"91 -12 OFFCURVE",
"205 -12 CURVE SMOOTH",
"405 -12 OFFCURVE",
"508 126 OFFCURVE",
"508 332 CURVE SMOOTH",
"508 454 OFFCURVE",
"464 579 OFFCURVE",
"360 645 CURVE",
"433 685 LINE",
"405 718 LINE",
"314 669 LINE",
"276 686 OFFCURVE",
"231 696 OFFCURVE",
"179 700 CURVE",
"163 668 LINE",
"201 663 OFFCURVE",
"232 653 OFFCURVE",
"259 639 CURVE",
"171 592 LINE",
"201 559 LINE"
);
}
);
width = 574;
}
);
note = eth;
unicode = 00F0;
},
{
glyphname = multiply;
lastChange = "2017-06-09 11:40:29 +0000";
layers = (
{
layerId = "0E02FD82-E348-46EC-A7E4-43EEF3FEB87C";
paths = (
{
closed = 1;
nodes = (
"65 72 LINE",
"137 0 LINE",
"300 163 LINE",
"463 0 LINE",
"535 72 LINE",
"372 235 LINE",
"535 398 LINE",
"463 470 LINE",
"300 307 LINE",
"137 470 LINE",
"65 398 LINE",
"228 235 LINE"
);
}
);
width = 600;
}
);
note = multiply;
unicode = 00D7;
},
{
glyphname = threesuperior;
lastChange = "2017-06-09 11:40:29 +0000";
layers = (
{
layerId = "0E02FD82-E348-46EC-A7E4-43EEF3FEB87C";
paths = (
{
closed = 1;
nodes = (
"183 582 OFFCURVE",
"159 557 OFFCURVE",
"136 557 CURVE SMOOTH",
"121 557 OFFCURVE",
"112 567 OFFCURVE",
"112 584 CURVE SMOOTH",
"112 624 OFFCURVE",
"166 666 OFFCURVE",
"215 666 CURVE SMOOTH",
"258 666 OFFCURVE",
"282 650 OFFCURVE",
"282 614 CURVE SMOOTH",
"282 569 OFFCURVE",
"233 505 OFFCURVE",
"186 505 CURVE SMOOTH",
"176 505 OFFCURVE",
"167 508 OFFCURVE",
"157 508 CURVE SMOOTH",
"130 508 OFFCURVE",
"120 500 OFFCURVE",
"120 487 CURVE SMOOTH",
"120 473 OFFCURVE",
"133 464 OFFCURVE",
"152 464 CURVE SMOOTH",
"165 464 OFFCURVE",
"183 471 OFFCURVE",
"196 471 CURVE SMOOTH",
"215 471 OFFCURVE",
"236 458 OFFCURVE",
"236 422 CURVE SMOOTH",
"236 371 OFFCURVE",
"191 307 OFFCURVE",
"116 307 CURVE SMOOTH",
"83 307 OFFCURVE",
"48 318 OFFCURVE",
"48 354 CURVE",
"56 347 OFFCURVE",
"68 342 OFFCURVE",
"79 342 CURVE SMOOTH",
"105 342 OFFCURVE",
"124 360 OFFCURVE",
"124 386 CURVE SMOOTH",
"124 411 OFFCURVE",
"103 430 OFFCURVE",
"76 430 CURVE SMOOTH",
"43 430 OFFCURVE",
"12 406 OFFCURVE",
"12 358 CURVE SMOOTH",
"12 309 OFFCURVE",
"56 273 OFFCURVE",
"142 273 CURVE SMOOTH",
"245 273 OFFCURVE",
"336 344 OFFCURVE",
"336 411 CURVE SMOOTH",
"336 462 OFFCURVE",
"299 481 OFFCURVE",
"252 493 CURVE",
"252 495 LINE",
"310 507 OFFCURVE",
"378 545 OFFCURVE",
"378 606 CURVE SMOOTH",
"378 651 OFFCURVE",
"333 700 OFFCURVE",
"238 700 CURVE SMOOTH",
"132 700 OFFCURVE",
"76 621 OFFCURVE",
"76 579 CURVE SMOOTH",
"76 552 OFFCURVE",
"98 528 OFFCURVE",
"129 528 CURVE SMOOTH",
"164 528 OFFCURVE",
"209 560 OFFCURVE",
"229 611 CURVE",
"208 623 LINE"
);
}
);
width = 344;
}
);
note = threesuperior;
unicode = 00B3;
},
{
glyphname = copyright;
lastChange = "2017-06-09 11:40:29 +0000";
layers = (
{
layerId = "0E02FD82-E348-46EC-A7E4-43EEF3FEB87C";
paths = (
{
closed = 1;
nodes = (
"52 142 OFFCURVE",
"199 -12 OFFCURVE",
"400 -12 CURVE SMOOTH",
"601 -12 OFFCURVE",
"748 142 OFFCURVE",
"748 344 CURVE SMOOTH",
"748 546 OFFCURVE",
"601 700 OFFCURVE",
"400 700 CURVE SMOOTH",
"199 700 OFFCURVE",
"52 546 OFFCURVE",
"52 344 CURVE SMOOTH"
);
},
{
closed = 1;
nodes = (
"138 508 OFFCURVE",
"246 638 OFFCURVE",
"400 638 CURVE SMOOTH",
"554 638 OFFCURVE",
"662 508 OFFCURVE",
"662 344 CURVE SMOOTH",
"662 180 OFFCURVE",
"554 50 OFFCURVE",
"400 50 CURVE SMOOTH",
"246 50 OFFCURVE",
"138 180 OFFCURVE",
"138 344 CURVE SMOOTH"
);
},
{
closed = 1;
nodes = (
"521 213 OFFCURVE",
"480 176 OFFCURVE",
"428 176 CURVE SMOOTH",
"347 176 OFFCURVE",
"327 258 OFFCURVE",
"327 361 CURVE SMOOTH",
"327 461 OFFCURVE",
"359 528 OFFCURVE",
"430 528 CURVE SMOOTH",
"489 528 OFFCURVE",
"516 483 OFFCURVE",
"531 442 CURVE",
"553 442 LINE",
"553 518 LINE SMOOTH",
"553 534 OFFCURVE",
"485 554 OFFCURVE",
"428 554 CURVE SMOOTH",
"251 554 OFFCURVE",
"201 441 OFFCURVE",
"201 356 CURVE SMOOTH",
"201 222 OFFCURVE",
"283 150 OFFCURVE",
"419 150 CURVE SMOOTH",
"453 150 OFFCURVE",
"552 172 OFFCURVE",
"555 190 CURVE SMOOTH",
"569 268 LINE",
"547 268 LINE"
);
}
);
width = 800;
}
);
note = copyright;
unicode = 00A9;
},
{
glyphname = Aacute;
lastChange = "2017-06-09 11:40:29 +0000";
layers = (
{
layerId = "0E02FD82-E348-46EC-A7E4-43EEF3FEB87C";
paths = (
{
closed = 1;
nodes = (
"166 42 LINE",
"88 42 OFFCURVE",
"76 49 OFFCURVE",
"76 71 CURVE SMOOTH",
"76 89 OFFCURVE",
"94 115 OFFCURVE",
"103 128 CURVE SMOOTH",
"168 224 LINE",
"382 224 LINE",
"385 188 LINE SMOOTH",
"388 155 OFFCURVE",
"396 121 OFFCURVE",
"396 87 CURVE SMOOTH",
"396 62 OFFCURVE",
"372 40 OFFCURVE",
"302 42 CURVE",
"292 0 LINE",
"626 0 LINE",
"636 42 LINE",
"574 44 OFFCURVE",
"561 56 OFFCURVE",
"556 94 CURVE SMOOTH",
"474 694 LINE",
"422 694 LINE",
"60 154 LINE SMOOTH",
"13 83 OFFCURVE",
"-4 52 OFFCURVE",
"-90 42 CURVE",
"-100 0 LINE",
"156 0 LINE"
);
},
{
closed = 1;
nodes = (
"374 276 LINE",
"202 276 LINE",
"346 486 LINE"
);
},
{
closed = 1;
nodes = (
"588 802 LINE SMOOTH",
"619 820 OFFCURVE",
"628 828 OFFCURVE",
"628 853 CURVE SMOOTH",
"628 876 OFFCURVE",
"607 897 OFFCURVE",
"581 897 CURVE SMOOTH",
"561 897 OFFCURVE",
"544 884 OFFCURVE",
"494 830 CURVE SMOOTH",
"390 717 LINE",
"438 717 LINE"
);
}
);
width = 704;
}
);
leftKerningGroup = A;
note = Aacute;
rightKerningGroup = A;
unicode = 00C1;
},
{
glyphname = Acircumflex;
lastChange = "2017-06-09 11:40:29 +0000";
layers = (
{
layerId = "0E02FD82-E348-46EC-A7E4-43EEF3FEB87C";
paths = (
{
closed = 1;
nodes = (
"166 42 LINE",
"88 42 OFFCURVE",
"76 49 OFFCURVE",
"76 71 CURVE SMOOTH",
"76 89 OFFCURVE",
"94 115 OFFCURVE",
"103 128 CURVE SMOOTH",
"168 224 LINE",
"382 224 LINE",
"385 188 LINE SMOOTH",
"388 155 OFFCURVE",
"396 121 OFFCURVE",
"396 87 CURVE SMOOTH",
"396 62 OFFCURVE",
"372 40 OFFCURVE",
"302 42 CURVE",
"292 0 LINE",
"626 0 LINE",
"636 42 LINE",
"574 44 OFFCURVE",
"561 56 OFFCURVE",
"556 94 CURVE SMOOTH",
"474 694 LINE",
"422 694 LINE",
"60 154 LINE SMOOTH",
"13 83 OFFCURVE",
"-4 52 OFFCURVE",
"-90 42 CURVE",
"-100 0 LINE",
"156 0 LINE"
);
},
{
closed = 1;
nodes = (
"374 276 LINE",
"202 276 LINE",
"346 486 LINE"
);
},
{
closed = 1;
nodes = (
"290 717 LINE",
"342 717 LINE",
"480 813 LINE",
"568 717 LINE",
"618 717 LINE",
"532 891 LINE",
"450 891 LINE"
);
}
);
width = 704;
}
);
leftKerningGroup = A;
note = Acircumflex;
rightKerningGroup = A;
unicode = 00C2;
},
{
glyphname = Adieresis;
lastChange = "2017-06-09 11:40:29 +0000";
layers = (
{
layerId = "0E02FD82-E348-46EC-A7E4-43EEF3FEB87C";
paths = (
{
closed = 1;
nodes = (
"166 42 LINE",
"88 42 OFFCURVE",
"76 49 OFFCURVE",
"76 71 CURVE SMOOTH",
"76 89 OFFCURVE",
"94 115 OFFCURVE",
"103 128 CURVE SMOOTH",
"168 224 LINE",
"382 224 LINE",
"385 188 LINE SMOOTH",
"388 155 OFFCURVE",
"396 121 OFFCURVE",
"396 87 CURVE SMOOTH",
"396 62 OFFCURVE",
"372 40 OFFCURVE",
"302 42 CURVE",
"292 0 LINE",
"626 0 LINE",
"636 42 LINE",
"574 44 OFFCURVE",
"561 56 OFFCURVE",
"556 94 CURVE SMOOTH",
"474 694 LINE",
"422 694 LINE",
"60 154 LINE SMOOTH",
"13 83 OFFCURVE",
"-4 52 OFFCURVE",
"-90 42 CURVE",
"-100 0 LINE",
"156 0 LINE"
);
},
{
closed = 1;
nodes = (
"374 276 LINE",
"202 276 LINE",
"346 486 LINE"
);
},
{
closed = 1;
nodes = (
"518 757 OFFCURVE",
"547 727 OFFCURVE",
"583 727 CURVE SMOOTH",
"619 727 OFFCURVE",
"648 757 OFFCURVE",
"648 792 CURVE SMOOTH",
"648 827 OFFCURVE",
"619 857 OFFCURVE",
"583 857 CURVE SMOOTH",
"547 857 OFFCURVE",
"518 827 OFFCURVE",
"518 792 CURVE SMOOTH"
);
},
{
closed = 1;
nodes = (
"304 757 OFFCURVE",
"333 727 OFFCURVE",
"369 727 CURVE SMOOTH",
"405 727 OFFCURVE",
"434 757 OFFCURVE",
"434 792 CURVE SMOOTH",
"434 827 OFFCURVE",
"405 857 OFFCURVE",
"369 857 CURVE SMOOTH",
"333 857 OFFCURVE",
"304 827 OFFCURVE",
"304 792 CURVE SMOOTH"
);
}
);
width = 704;
}
);
leftKerningGroup = A;
note = Adieresis;
rightKerningGroup = A;
unicode = 00C4;
},
{
glyphname = Agrave;
lastChange = "2017-06-09 11:40:29 +0000";
layers = (
{
layerId = "0E02FD82-E348-46EC-A7E4-43EEF3FEB87C";
paths = (
{
closed = 1;
nodes = (
"166 42 LINE",
"88 42 OFFCURVE",
"76 49 OFFCURVE",
"76 71 CURVE SMOOTH",
"76 89 OFFCURVE",
"94 115 OFFCURVE",
"103 128 CURVE SMOOTH",
"168 224 LINE",
"382 224 LINE",
"385 188 LINE SMOOTH",
"388 155 OFFCURVE",
"396 121 OFFCURVE",
"396 87 CURVE SMOOTH",
"396 62 OFFCURVE",
"372 40 OFFCURVE",
"302 42 CURVE",
"292 0 LINE",
"626 0 LINE",
"636 42 LINE",
"574 44 OFFCURVE",
"561 56 OFFCURVE",
"556 94 CURVE SMOOTH",
"474 694 LINE",
"422 694 LINE",
"60 154 LINE SMOOTH",
"13 83 OFFCURVE",
"-4 52 OFFCURVE",
"-90 42 CURVE",
"-100 0 LINE",
"156 0 LINE"
);
},
{
closed = 1;
nodes = (
"374 276 LINE",
"202 276 LINE",
"346 486 LINE"
);
},
{
closed = 1;
nodes = (
"446 850 LINE SMOOTH",
"416 890 OFFCURVE",
"401 897 OFFCURVE",
"380 897 CURVE SMOOTH",
"352 897 OFFCURVE",
"334 875 OFFCURVE",
"334 854 CURVE SMOOTH",
"334 837 OFFCURVE",
"346 821 OFFCURVE",
"363 809 CURVE SMOOTH",
"500 717 LINE",
"546 717 LINE"
);
}
);
width = 704;
}
);
leftKerningGroup = A;
note = Agrave;
rightKerningGroup = A;
unicode = 00C0;
},
{
glyphname = Aring;
lastChange = "2017-06-09 11:40:29 +0000";
layers = (
{
layerId = "0E02FD82-E348-46EC-A7E4-43EEF3FEB87C";
paths = (
{
closed = 1;
nodes = (
"166 42 LINE",
"88 42 OFFCURVE",
"76 49 OFFCURVE",
"76 71 CURVE SMOOTH",
"76 89 OFFCURVE",
"94 115 OFFCURVE",
"103 128 CURVE SMOOTH",
"168 224 LINE",
"382 224 LINE",
"385 188 LINE SMOOTH",
"388 155 OFFCURVE",
"396 121 OFFCURVE",
"396 87 CURVE SMOOTH",
"396 62 OFFCURVE",
"372 40 OFFCURVE",
"302 42 CURVE",
"292 0 LINE",
"626 0 LINE",
"636 42 LINE",
"574 44 OFFCURVE",
"561 56 OFFCURVE",
"556 94 CURVE SMOOTH",
"474 694 LINE",
"422 694 LINE",
"60 154 LINE SMOOTH",
"13 83 OFFCURVE",
"-4 52 OFFCURVE",
"-90 42 CURVE",
"-100 0 LINE",
"156 0 LINE"
);
},
{
closed = 1;
nodes = (
"374 276 LINE",
"202 276 LINE",
"346 486 LINE"
);
},
{
closed = 1;
nodes = (
"366 763 OFFCURVE",
"411 717 OFFCURVE",
"469 717 CURVE SMOOTH",
"527 717 OFFCURVE",
"572 763 OFFCURVE",
"572 820 CURVE SMOOTH",
"572 877 OFFCURVE",
"527 923 OFFCURVE",
"469 923 CURVE SMOOTH",
"411 923 OFFCURVE",
"366 877 OFFCURVE",
"366 820 CURVE SMOOTH"
);
},
{
closed = 1;
nodes = (
"410 853 OFFCURVE",
"436 879 OFFCURVE",
"469 879 CURVE SMOOTH",
"502 879 OFFCURVE",
"528 853 OFFCURVE",
"528 820 CURVE SMOOTH",
"528 787 OFFCURVE",
"502 761 OFFCURVE",
"469 761 CURVE SMOOTH",
"436 761 OFFCURVE",
"410 787 OFFCURVE",
"410 820 CURVE SMOOTH"
);
}
);
width = 704;
}
);
leftKerningGroup = A;
note = Aring;
rightKerningGroup = A;
unicode = 00C5;
},
{
glyphname = Atilde;
lastChange = "2017-06-09 11:40:29 +0000";
layers = (
{
layerId = "0E02FD82-E348-46EC-A7E4-43EEF3FEB87C";
paths = (
{
closed = 1;
nodes = (
"166 42 LINE",
"88 42 OFFCURVE",
"76 49 OFFCURVE",
"76 71 CURVE SMOOTH",
"76 89 OFFCURVE",
"94 115 OFFCURVE",
"103 128 CURVE SMOOTH",
"168 224 LINE",
"382 224 LINE",
"385 188 LINE SMOOTH",
"388 155 OFFCURVE",
"396 121 OFFCURVE",
"396 87 CURVE SMOOTH",
"396 62 OFFCURVE",
"372 40 OFFCURVE",
"302 42 CURVE",
"292 0 LINE",
"626 0 LINE",
"636 42 LINE",
"574 44 OFFCURVE",
"561 56 OFFCURVE",
"556 94 CURVE SMOOTH",
"474 694 LINE",
"422 694 LINE",
"60 154 LINE SMOOTH",
"13 83 OFFCURVE",
"-4 52 OFFCURVE",
"-90 42 CURVE",
"-100 0 LINE",
"156 0 LINE"
);
},
{
closed = 1;
nodes = (
"374 276 LINE",
"202 276 LINE",
"346 486 LINE"
);
},
{
closed = 1;
nodes = (
"346 763 OFFCURVE",
"360 781 OFFCURVE",
"387 781 CURVE SMOOTH",
"427 781 OFFCURVE",
"496 737 OFFCURVE",
"535 737 CURVE SMOOTH",
"608 737 OFFCURVE",
"644 792 OFFCURVE",
"658 857 CURVE",
"616 857 LINE",
"607 835 OFFCURVE",
"592 815 OFFCURVE",
"566 815 CURVE SMOOTH",
"532 815 OFFCURVE",
"454 859 OFFCURVE",
"414 859 CURVE SMOOTH",
"349 859 OFFCURVE",
"309 797 OFFCURVE",
"298 739 CURVE",
"340 739 LINE"
);
}
);
width = 704;
}
);
leftKerningGroup = A;
note = Atilde;
rightKerningGroup = A;
unicode = 00C3;
},
{
glyphname = Ccedilla;
lastChange = "2017-06-09 11:40:29 +0000";
layers = (
{
layerId = "0E02FD82-E348-46EC-A7E4-43EEF3FEB87C";
paths = (
{
closed = 1;
nodes = (
"680 670 OFFCURVE",
"675 654 OFFCURVE",
"652 654 CURVE SMOOTH",
"629 654 OFFCURVE",
"586 700 OFFCURVE",
"488 700 CURVE SMOOTH",
"266 700 OFFCURVE",
"36 504 OFFCURVE",
"36 270 CURVE SMOOTH",
"36 127 OFFCURVE",
"143 -10 OFFCURVE",
"331 -12 CURVE",
"274 -94 LINE",
"286 -108 LINE",
"296 -104 OFFCURVE",
"309 -102 OFFCURVE",
"319 -102 CURVE SMOOTH",
"347 -102 OFFCURVE",
"364 -119 OFFCURVE",
"364 -139 CURVE SMOOTH",
"364 -164 OFFCURVE",
"346 -178 OFFCURVE",
"311 -178 CURVE SMOOTH",
"283 -178 OFFCURVE",
"263 -173 OFFCURVE",
"242 -162 CURVE",
"220 -196 LINE",
"253 -210 OFFCURVE",
"287 -220 OFFCURVE",
"330 -220 CURVE SMOOTH",
"406 -220 OFFCURVE",
"456 -188 OFFCURVE",
"456 -130 CURVE SMOOTH",
"456 -93 OFFCURVE",
"420 -60 OFFCURVE",
"365 -60 CURVE SMOOTH",
"357 -60 OFFCURVE",
"348 -62 OFFCURVE",
"340 -64 CURVE",
"376 -9 LINE",
"517 8 OFFCURVE",
"603 116 OFFCURVE",
"650 272 CURVE",
"602 272 LINE",
"570 156 OFFCURVE",
"476 30 OFFCURVE",
"338 30 CURVE SMOOTH",
"262 30 OFFCURVE",
"200 82 OFFCURVE",
"200 188 CURVE SMOOTH",
"200 368 OFFCURVE",
"306 658 OFFCURVE",
"490 658 CURVE SMOOTH",
"600 658 OFFCURVE",
"634 590 OFFCURVE",
"634 492 CURVE SMOOTH",
"634 475 OFFCURVE",
"630 456 OFFCURVE",
"628 438 CURVE",
"674 438 LINE",
"734 682 LINE",
"688 682 LINE"
);
}
);
width = 741;
}
);
note = Ccedilla;
unicode = 00C7;
},
{
glyphname = Eacute;
lastChange = "2017-06-09 11:40:29 +0000";
layers = (
{
layerId = "0E02FD82-E348-46EC-A7E4-43EEF3FEB87C";
paths = (
{
closed = 1;
nodes = (
"590 264 LINE",
"553 128 OFFCURVE",
"454 42 OFFCURVE",
"310 42 CURVE SMOOTH",
"236 42 OFFCURVE",
"224 58 OFFCURVE",
"224 89 CURVE SMOOTH",
"224 119 OFFCURVE",
"235 151 OFFCURVE",
"244 183 CURVE SMOOTH",
"288 342 LINE",
"385 340 OFFCURVE",
"400 315 OFFCURVE",
"402 222 CURVE",
"440 222 LINE",
"516 504 LINE",
"468 504 LINE",
"438 412 OFFCURVE",
"398 386 OFFCURVE",
"298 384 CURVE",
"348 578 LINE SMOOTH",
"362 632 OFFCURVE",
"384 646 OFFCURVE",
"472 646 CURVE SMOOTH",
"576 646 OFFCURVE",
"626 604 OFFCURVE",
"626 499 CURVE SMOOTH",
"626 478 OFFCURVE",
"625 457 OFFCURVE",
"622 436 CURVE",
"664 436 LINE",
"728 688 LINE",
"124 688 LINE",
"114 646 LINE",
"182 644 OFFCURVE",
"192 630 OFFCURVE",
"192 605 CURVE SMOOTH",
"192 587 OFFCURVE",
"181 541 OFFCURVE",
"171 506 CURVE SMOOTH",
"62 104 LINE SMOOTH",
"49 56 OFFCURVE",
"30 44 OFFCURVE",
"-48 42 CURVE",
"-58 0 LINE",
"564 0 LINE",
"638 264 LINE"
);
},
{
closed = 1;
nodes = (
"604 802 LINE SMOOTH",
"635 820 OFFCURVE",
"644 828 OFFCURVE",
"644 853 CURVE SMOOTH",
"644 876 OFFCURVE",
"623 897 OFFCURVE",
"597 897 CURVE SMOOTH",
"577 897 OFFCURVE",
"560 884 OFFCURVE",
"510 830 CURVE SMOOTH",
"406 717 LINE",
"454 717 LINE"
);
}
);
width = 759;
}
);
note = Eacute;
unicode = 00C9;
},
{
glyphname = Ecircumflex;
lastChange = "2017-06-09 11:40:29 +0000";
layers = (
{
layerId = "0E02FD82-E348-46EC-A7E4-43EEF3FEB87C";
paths = (
{
closed = 1;
nodes = (
"590 264 LINE",
"553 128 OFFCURVE",
"454 42 OFFCURVE",
"310 42 CURVE SMOOTH",
"236 42 OFFCURVE",
"224 58 OFFCURVE",
"224 89 CURVE SMOOTH",
"224 119 OFFCURVE",
"235 151 OFFCURVE",
"244 183 CURVE SMOOTH",
"288 342 LINE",
"385 340 OFFCURVE",
"400 315 OFFCURVE",
"402 222 CURVE",
"440 222 LINE",
"516 504 LINE",
"468 504 LINE",
"438 412 OFFCURVE",
"398 386 OFFCURVE",
"298 384 CURVE",
"348 578 LINE SMOOTH",
"362 632 OFFCURVE",
"384 646 OFFCURVE",
"472 646 CURVE SMOOTH",
"576 646 OFFCURVE",
"626 604 OFFCURVE",
"626 499 CURVE SMOOTH",
"626 478 OFFCURVE",
"625 457 OFFCURVE",
"622 436 CURVE",
"664 436 LINE",
"728 688 LINE",
"124 688 LINE",
"114 646 LINE",
"182 644 OFFCURVE",
"192 630 OFFCURVE",
"192 605 CURVE SMOOTH",
"192 587 OFFCURVE",
"181 541 OFFCURVE",
"171 506 CURVE SMOOTH",
"62 104 LINE SMOOTH",
"49 56 OFFCURVE",
"30 44 OFFCURVE",
"-48 42 CURVE",
"-58 0 LINE",
"564 0 LINE",
"638 264 LINE"
);
},
{
closed = 1;
nodes = (
"306 717 LINE",
"358 717 LINE",
"496 813 LINE",
"584 717 LINE",
"634 717 LINE",
"548 891 LINE",
"466 891 LINE"
);
}
);
width = 759;
}
);
note = Ecircumflex;
unicode = 00CA;
},
{
glyphname = Edieresis;
lastChange = "2017-06-09 11:40:29 +0000";
layers = (
{
layerId = "0E02FD82-E348-46EC-A7E4-43EEF3FEB87C";
paths = (
{
closed = 1;
nodes = (
"590 264 LINE",
"553 128 OFFCURVE",
"454 42 OFFCURVE",
"310 42 CURVE SMOOTH",
"236 42 OFFCURVE",
"224 58 OFFCURVE",
"224 89 CURVE SMOOTH",
"224 119 OFFCURVE",
"235 151 OFFCURVE",
"244 183 CURVE SMOOTH",
"288 342 LINE",
"385 340 OFFCURVE",
"400 315 OFFCURVE",
"402 222 CURVE",
"440 222 LINE",
"516 504 LINE",
"468 504 LINE",
"438 412 OFFCURVE",
"398 386 OFFCURVE",
"298 384 CURVE",
"348 578 LINE SMOOTH",
"362 632 OFFCURVE",
"384 646 OFFCURVE",
"472 646 CURVE SMOOTH",
"576 646 OFFCURVE",
"626 604 OFFCURVE",
"626 499 CURVE SMOOTH",
"626 478 OFFCURVE",
"625 457 OFFCURVE",
"622 436 CURVE",
"664 436 LINE",
"728 688 LINE",
"124 688 LINE",
"114 646 LINE",
"182 644 OFFCURVE",
"192 630 OFFCURVE",
"192 605 CURVE SMOOTH",
"192 587 OFFCURVE",
"181 541 OFFCURVE",
"171 506 CURVE SMOOTH",
"62 104 LINE SMOOTH",
"49 56 OFFCURVE",
"30 44 OFFCURVE",
"-48 42 CURVE",
"-58 0 LINE",
"564 0 LINE",
"638 264 LINE"
);
},
{
closed = 1;
nodes = (
"534 757 OFFCURVE",
"563 727 OFFCURVE",
"599 727 CURVE SMOOTH",
"635 727 OFFCURVE",
"664 757 OFFCURVE",
"664 792 CURVE SMOOTH",
"664 827 OFFCURVE",
"635 857 OFFCURVE",
"599 857 CURVE SMOOTH",
"563 857 OFFCURVE",
"534 827 OFFCURVE",
"534 792 CURVE SMOOTH"
);
},
{
closed = 1;
nodes = (
"320 757 OFFCURVE",
"349 727 OFFCURVE",
"385 727 CURVE SMOOTH",
"421 727 OFFCURVE",
"450 757 OFFCURVE",
"450 792 CURVE SMOOTH",
"450 827 OFFCURVE",
"421 857 OFFCURVE",
"385 857 CURVE SMOOTH",
"349 857 OFFCURVE",
"320 827 OFFCURVE",
"320 792 CURVE SMOOTH"
);
}
);
width = 759;
}
);
note = Edieresis;
unicode = 00CB;
},
{
glyphname = Egrave;
lastChange = "2017-06-09 11:40:29 +0000";
layers = (
{
layerId = "0E02FD82-E348-46EC-A7E4-43EEF3FEB87C";
paths = (
{
closed = 1;
nodes = (
"590 264 LINE",
"553 128 OFFCURVE",
"454 42 OFFCURVE",
"310 42 CURVE SMOOTH",
"236 42 OFFCURVE",
"224 58 OFFCURVE",
"224 89 CURVE SMOOTH",
"224 119 OFFCURVE",
"235 151 OFFCURVE",
"244 183 CURVE SMOOTH",
"288 342 LINE",
"385 340 OFFCURVE",
"400 315 OFFCURVE",
"402 222 CURVE",
"440 222 LINE",
"516 504 LINE",
"468 504 LINE",
"438 412 OFFCURVE",
"398 386 OFFCURVE",
"298 384 CURVE",
"348 578 LINE SMOOTH",
"362 632 OFFCURVE",
"384 646 OFFCURVE",
"472 646 CURVE SMOOTH",
"576 646 OFFCURVE",
"626 604 OFFCURVE",
"626 499 CURVE SMOOTH",
"626 478 OFFCURVE",
"625 457 OFFCURVE",
"622 436 CURVE",
"664 436 LINE",
"728 688 LINE",
"124 688 LINE",
"114 646 LINE",
"182 644 OFFCURVE",
"192 630 OFFCURVE",
"192 605 CURVE SMOOTH",
"192 587 OFFCURVE",
"181 541 OFFCURVE",
"171 506 CURVE SMOOTH",
"62 104 LINE SMOOTH",
"49 56 OFFCURVE",
"30 44 OFFCURVE",
"-48 42 CURVE",
"-58 0 LINE",
"564 0 LINE",
"638 264 LINE"
);
},
{
closed = 1;
nodes = (
"462 850 LINE SMOOTH",
"432 890 OFFCURVE",
"417 897 OFFCURVE",
"396 897 CURVE SMOOTH",
"368 897 OFFCURVE",
"350 875 OFFCURVE",
"350 854 CURVE SMOOTH",
"350 837 OFFCURVE",
"362 821 OFFCURVE",
"379 809 CURVE SMOOTH",
"516 717 LINE",
"562 717 LINE"
);
}
);
width = 759;
}
);
note = Egrave;
unicode = 00C8;
},
{
glyphname = Iacute;
lastChange = "2017-06-09 11:40:29 +0000";
layers = (
{
layerId = "0E02FD82-E348-46EC-A7E4-43EEF3FEB87C";
paths = (
{
closed = 1;
nodes = (
"196 644 OFFCURVE",
"206 638 OFFCURVE",
"206 610 CURVE SMOOTH",
"206 594 OFFCURVE",
"191 547 OFFCURVE",
"182 515 CURVE SMOOTH",
"66 95 LINE SMOOTH",
"56 58 OFFCURVE",
"38 48 OFFCURVE",
"-48 42 CURVE",
"-58 0 LINE",
"308 0 LINE",
"318 42 LINE",
"240 44 OFFCURVE",
"230 56 OFFCURVE",
"230 74 CURVE SMOOTH",
"230 90 OFFCURVE",
"239 118 OFFCURVE",
"249 153 CURVE SMOOTH",
"365 574 LINE SMOOTH",
"380 630 OFFCURVE",
"398 640 OFFCURVE",
"484 646 CURVE",
"494 688 LINE",
"128 688 LINE",
"118 646 LINE"
);
},
{
closed = 1;
nodes = (
"447 802 LINE SMOOTH",
"478 820 OFFCURVE",
"487 828 OFFCURVE",
"487 853 CURVE SMOOTH",
"487 876 OFFCURVE",
"466 897 OFFCURVE",
"440 897 CURVE SMOOTH",
"420 897 OFFCURVE",
"403 884 OFFCURVE",
"353 830 CURVE SMOOTH",
"249 717 LINE",
"297 717 LINE"
);
}
);
width = 444;
}
);
note = Iacute;
unicode = 00CD;
},
{
glyphname = Icircumflex;
lastChange = "2017-06-09 11:40:29 +0000";
layers = (
{
layerId = "0E02FD82-E348-46EC-A7E4-43EEF3FEB87C";
paths = (
{
closed = 1;
nodes = (
"196 644 OFFCURVE",
"206 638 OFFCURVE",
"206 610 CURVE SMOOTH",
"206 594 OFFCURVE",
"191 547 OFFCURVE",
"182 515 CURVE SMOOTH",
"66 95 LINE SMOOTH",
"56 58 OFFCURVE",
"38 48 OFFCURVE",
"-48 42 CURVE",
"-58 0 LINE",
"308 0 LINE",
"318 42 LINE",
"240 44 OFFCURVE",
"230 56 OFFCURVE",
"230 74 CURVE SMOOTH",
"230 90 OFFCURVE",
"239 118 OFFCURVE",
"249 153 CURVE SMOOTH",
"365 574 LINE SMOOTH",
"380 630 OFFCURVE",
"398 640 OFFCURVE",
"484 646 CURVE",
"494 688 LINE",
"128 688 LINE",
"118 646 LINE"
);
},
{
closed = 1;
nodes = (
"149 717 LINE",
"201 717 LINE",
"339 813 LINE",
"427 717 LINE",
"477 717 LINE",
"391 891 LINE",
"309 891 LINE"
);
}
);
width = 444;
}
);
note = Icircumflex;
unicode = 00CE;
},
{
glyphname = Idieresis;
lastChange = "2017-06-09 11:40:29 +0000";
layers = (
{
layerId = "0E02FD82-E348-46EC-A7E4-43EEF3FEB87C";
paths = (
{
closed = 1;
nodes = (
"196 644 OFFCURVE",
"206 638 OFFCURVE",
"206 610 CURVE SMOOTH",
"206 594 OFFCURVE",
"191 547 OFFCURVE",
"182 515 CURVE SMOOTH",
"66 95 LINE SMOOTH",
"56 58 OFFCURVE",
"38 48 OFFCURVE",
"-48 42 CURVE",
"-58 0 LINE",
"308 0 LINE",
"318 42 LINE",
"240 44 OFFCURVE",
"230 56 OFFCURVE",
"230 74 CURVE SMOOTH",
"230 90 OFFCURVE",
"239 118 OFFCURVE",
"249 153 CURVE SMOOTH",
"365 574 LINE SMOOTH",
"380 630 OFFCURVE",
"398 640 OFFCURVE",
"484 646 CURVE",
"494 688 LINE",
"128 688 LINE",
"118 646 LINE"
);
},
{
closed = 1;
nodes = (
"377 757 OFFCURVE",
"406 727 OFFCURVE",
"442 727 CURVE SMOOTH",
"478 727 OFFCURVE",
"507 757 OFFCURVE",
"507 792 CURVE SMOOTH",
"507 827 OFFCURVE",
"478 857 OFFCURVE",
"442 857 CURVE SMOOTH",
"406 857 OFFCURVE",
"377 827 OFFCURVE",
"377 792 CURVE SMOOTH"
);
},
{
closed = 1;
nodes = (
"163 757 OFFCURVE",
"192 727 OFFCURVE",
"228 727 CURVE SMOOTH",
"264 727 OFFCURVE",
"293 757 OFFCURVE",
"293 792 CURVE SMOOTH",
"293 827 OFFCURVE",
"264 857 OFFCURVE",
"228 857 CURVE SMOOTH",
"192 857 OFFCURVE",
"163 827 OFFCURVE",
"163 792 CURVE SMOOTH"
);
}
);
width = 444;
}
);
note = Idieresis;
unicode = 00CF;
},
{
glyphname = Igrave;
lastChange = "2017-06-09 11:40:29 +0000";
layers = (
{
layerId = "0E02FD82-E348-46EC-A7E4-43EEF3FEB87C";
paths = (
{
closed = 1;
nodes = (
"196 644 OFFCURVE",
"206 638 OFFCURVE",
"206 610 CURVE SMOOTH",
"206 594 OFFCURVE",
"191 547 OFFCURVE",
"182 515 CURVE SMOOTH",
"66 95 LINE SMOOTH",
"56 58 OFFCURVE",
"38 48 OFFCURVE",
"-48 42 CURVE",
"-58 0 LINE",
"308 0 LINE",
"318 42 LINE",
"240 44 OFFCURVE",
"230 56 OFFCURVE",
"230 74 CURVE SMOOTH",
"230 90 OFFCURVE",
"239 118 OFFCURVE",
"249 153 CURVE SMOOTH",
"365 574 LINE SMOOTH",
"380 630 OFFCURVE",
"398 640 OFFCURVE",
"484 646 CURVE",
"494 688 LINE",
"128 688 LINE",
"118 646 LINE"
);
},
{
closed = 1;
nodes = (
"305 850 LINE SMOOTH",
"275 890 OFFCURVE",
"260 897 OFFCURVE",
"239 897 CURVE SMOOTH",
"211 897 OFFCURVE",
"193 875 OFFCURVE",
"193 854 CURVE SMOOTH",
"193 837 OFFCURVE",
"205 821 OFFCURVE",
"222 809 CURVE SMOOTH",
"359 717 LINE",
"405 717 LINE"
);
}
);
width = 444;
}
);
note = Igrave;
unicode = 00CC;
},
{
glyphname = Ntilde;
lastChange = "2017-06-09 11:40:29 +0000";
layers = (
{
layerId = "0E02FD82-E348-46EC-A7E4-43EEF3FEB87C";
paths = (
{
closed = 1;
nodes = (
"205 42 LINE",
"122 48 OFFCURVE",
"110 60 OFFCURVE",
"110 92 CURVE SMOOTH",
"110 116 OFFCURVE",
"116 134 OFFCURVE",
"125 168 CURVE SMOOTH",
"228 544 LINE",
"230 544 LINE",
"482 -12 LINE",
"556 -12 LINE",
"710 562 LINE SMOOTH",
"724 616 OFFCURVE",
"748 636 OFFCURVE",
"824 646 CURVE",
"834 688 LINE",
"586 688 LINE",
"574 646 LINE",
"650 644 OFFCURVE",
"664 624 OFFCURVE",
"664 601 CURVE SMOOTH",
"664 575 OFFCURVE",
"655 543 OFFCURVE",
"651 527 CURVE SMOOTH",
"562 186 LINE",
"560 186 LINE",
"330 688 LINE",
"120 688 LINE",
"110 646 LINE",
"180 644 OFFCURVE",
"194 626 OFFCURVE",
"194 604 CURVE SMOOTH",
"194 586 OFFCURVE",
"182 552 OFFCURVE",
"178 537 CURVE SMOOTH",
"58 106 LINE SMOOTH",
"43 53 OFFCURVE",
"10 48 OFFCURVE",
"-55 42 CURVE",
"-66 0 LINE",
"196 0 LINE"
);
},
{
closed = 1;
nodes = (
"372 763 OFFCURVE",
"386 781 OFFCURVE",
"413 781 CURVE SMOOTH",
"453 781 OFFCURVE",
"522 737 OFFCURVE",
"561 737 CURVE SMOOTH",
"634 737 OFFCURVE",
"670 792 OFFCURVE",
"684 857 CURVE",
"642 857 LINE",
"633 835 OFFCURVE",
"618 815 OFFCURVE",
"592 815 CURVE SMOOTH",
"558 815 OFFCURVE",
"480 859 OFFCURVE",
"440 859 CURVE SMOOTH",
"375 859 OFFCURVE",
"335 797 OFFCURVE",
"324 739 CURVE",
"366 739 LINE"
);
}
);
width = 778;
}
);
note = Ntilde;
unicode = 00D1;
},
{
glyphname = Oacute;
lastChange = "2017-06-09 11:40:29 +0000";
layers = (
{
layerId = "0E02FD82-E348-46EC-A7E4-43EEF3FEB87C";
paths = (
{
closed = 1;
nodes = (
"36 112 OFFCURVE",
"164 -12 OFFCURVE",
"312 -12 CURVE SMOOTH",
"530 -12 OFFCURVE",
"742 208 OFFCURVE",
"742 414 CURVE SMOOTH",
"742 576 OFFCURVE",
"614 700 OFFCURVE",
"466 700 CURVE SMOOTH",
"248 700 OFFCURVE",
"36 480 OFFCURVE",
"36 274 CURVE SMOOTH"
);
},
{
closed = 1;
nodes = (
"196 246 OFFCURVE",
"254 662 OFFCURVE",
"468 662 CURVE SMOOTH",
"546 662 OFFCURVE",
"582 616 OFFCURVE",
"582 522 CURVE SMOOTH",
"582 442 OFFCURVE",
"524 26 OFFCURVE",
"310 26 CURVE SMOOTH",
"232 26 OFFCURVE",
"196 72 OFFCURVE",
"196 166 CURVE SMOOTH"
);
},
{
closed = 1;
nodes = (
"614 802 LINE SMOOTH",
"645 820 OFFCURVE",
"654 828 OFFCURVE",
"654 853 CURVE SMOOTH",
"654 876 OFFCURVE",
"633 897 OFFCURVE",
"607 897 CURVE SMOOTH",
"587 897 OFFCURVE",
"570 884 OFFCURVE",
"520 830 CURVE SMOOTH",
"416 717 LINE",
"464 717 LINE"
);
}
);
width = 778;
}
);
note = Oacute;
unicode = 00D3;
},
{
glyphname = Ocircumflex;
lastChange = "2017-06-09 11:40:29 +0000";
layers = (
{
layerId = "0E02FD82-E348-46EC-A7E4-43EEF3FEB87C";
paths = (
{
closed = 1;
nodes = (
"36 112 OFFCURVE",
"164 -12 OFFCURVE",
"312 -12 CURVE SMOOTH",
"530 -12 OFFCURVE",
"742 208 OFFCURVE",
"742 414 CURVE SMOOTH",
"742 576 OFFCURVE",
"614 700 OFFCURVE",
"466 700 CURVE SMOOTH",
"248 700 OFFCURVE",
"36 480 OFFCURVE",
"36 274 CURVE SMOOTH"
);
},
{
closed = 1;
nodes = (
"196 246 OFFCURVE",
"254 662 OFFCURVE",
"468 662 CURVE SMOOTH",
"546 662 OFFCURVE",
"582 616 OFFCURVE",
"582 522 CURVE SMOOTH",
"582 442 OFFCURVE",
"524 26 OFFCURVE",
"310 26 CURVE SMOOTH",
"232 26 OFFCURVE",
"196 72 OFFCURVE",
"196 166 CURVE SMOOTH"
);
},
{
closed = 1;
nodes = (
"316 717 LINE",
"368 717 LINE",
"506 813 LINE",
"594 717 LINE",
"644 717 LINE",
"558 891 LINE",
"476 891 LINE"
);
}
);
width = 778;
}
);
note = Ocircumflex;
unicode = 00D4;
},
{
glyphname = Odieresis;
lastChange = "2017-06-09 11:40:29 +0000";
layers = (
{
layerId = "0E02FD82-E348-46EC-A7E4-43EEF3FEB87C";
paths = (
{
closed = 1;
nodes = (
"36 112 OFFCURVE",
"164 -12 OFFCURVE",
"312 -12 CURVE SMOOTH",
"530 -12 OFFCURVE",
"742 208 OFFCURVE",
"742 414 CURVE SMOOTH",
"742 576 OFFCURVE",
"614 700 OFFCURVE",
"466 700 CURVE SMOOTH",
"248 700 OFFCURVE",
"36 480 OFFCURVE",
"36 274 CURVE SMOOTH"
);
},
{
closed = 1;
nodes = (
"196 246 OFFCURVE",
"254 662 OFFCURVE",
"468 662 CURVE SMOOTH",
"546 662 OFFCURVE",
"582 616 OFFCURVE",
"582 522 CURVE SMOOTH",
"582 442 OFFCURVE",
"524 26 OFFCURVE",
"310 26 CURVE SMOOTH",
"232 26 OFFCURVE",
"196 72 OFFCURVE",
"196 166 CURVE SMOOTH"
);
},
{
closed = 1;
nodes = (
"544 757 OFFCURVE",
"573 727 OFFCURVE",
"609 727 CURVE SMOOTH",
"645 727 OFFCURVE",
"674 757 OFFCURVE",
"674 792 CURVE SMOOTH",
"674 827 OFFCURVE",
"645 857 OFFCURVE",
"609 857 CURVE SMOOTH",
"573 857 OFFCURVE",
"544 827 OFFCURVE",
"544 792 CURVE SMOOTH"
);
},
{
closed = 1;
nodes = (
"330 757 OFFCURVE",
"359 727 OFFCURVE",
"395 727 CURVE SMOOTH",
"431 727 OFFCURVE",
"460 757 OFFCURVE",
"460 792 CURVE SMOOTH",
"460 827 OFFCURVE",
"431 857 OFFCURVE",
"395 857 CURVE SMOOTH",
"359 857 OFFCURVE",
"330 827 OFFCURVE",
"330 792 CURVE SMOOTH"
);
}
);
width = 778;
}
);
note = Odieresis;
unicode = 00D6;
},
{
glyphname = Ograve;
lastChange = "2017-06-09 11:40:29 +0000";
layers = (
{
layerId = "0E02FD82-E348-46EC-A7E4-43EEF3FEB87C";
paths = (
{
closed = 1;
nodes = (
"36 112 OFFCURVE",
"164 -12 OFFCURVE",
"312 -12 CURVE SMOOTH",
"530 -12 OFFCURVE",
"742 208 OFFCURVE",
"742 414 CURVE SMOOTH",
"742 576 OFFCURVE",
"614 700 OFFCURVE",
"466 700 CURVE SMOOTH",
"248 700 OFFCURVE",
"36 480 OFFCURVE",
"36 274 CURVE SMOOTH"
);
},
{
closed = 1;
nodes = (
"196 246 OFFCURVE",
"254 662 OFFCURVE",
"468 662 CURVE SMOOTH",
"546 662 OFFCURVE",
"582 616 OFFCURVE",
"582 522 CURVE SMOOTH",
"582 442 OFFCURVE",
"524 26 OFFCURVE",
"310 26 CURVE SMOOTH",
"232 26 OFFCURVE",
"196 72 OFFCURVE",
"196 166 CURVE SMOOTH"
);
},
{
closed = 1;
nodes = (
"472 850 LINE SMOOTH",
"442 890 OFFCURVE",
"427 897 OFFCURVE",
"406 897 CURVE SMOOTH",
"378 897 OFFCURVE",
"360 875 OFFCURVE",
"360 854 CURVE SMOOTH",
"360 837 OFFCURVE",
"372 821 OFFCURVE",
"389 809 CURVE SMOOTH",
"526 717 LINE",
"572 717 LINE"
);
}
);
width = 778;
}
);
note = Ograve;
unicode = 00D2;
},
{
glyphname = Otilde;
lastChange = "2017-06-09 11:40:29 +0000";
layers = (
{
layerId = "0E02FD82-E348-46EC-A7E4-43EEF3FEB87C";
paths = (
{
closed = 1;
nodes = (
"36 112 OFFCURVE",
"164 -12 OFFCURVE",
"312 -12 CURVE SMOOTH",
"530 -12 OFFCURVE",
"742 208 OFFCURVE",
"742 414 CURVE SMOOTH",
"742 576 OFFCURVE",
"614 700 OFFCURVE",
"466 700 CURVE SMOOTH",
"248 700 OFFCURVE",
"36 480 OFFCURVE",
"36 274 CURVE SMOOTH"
);
},
{
closed = 1;
nodes = (
"196 246 OFFCURVE",
"254 662 OFFCURVE",
"468 662 CURVE SMOOTH",
"546 662 OFFCURVE",
"582 616 OFFCURVE",
"582 522 CURVE SMOOTH",
"582 442 OFFCURVE",
"524 26 OFFCURVE",
"310 26 CURVE SMOOTH",
"232 26 OFFCURVE",
"196 72 OFFCURVE",
"196 166 CURVE SMOOTH"
);
},
{
closed = 1;
nodes = (
"372 763 OFFCURVE",
"386 781 OFFCURVE",
"413 781 CURVE SMOOTH",
"453 781 OFFCURVE",
"522 737 OFFCURVE",
"561 737 CURVE SMOOTH",
"634 737 OFFCURVE",
"670 792 OFFCURVE",
"684 857 CURVE",
"642 857 LINE",
"633 835 OFFCURVE",
"618 815 OFFCURVE",
"592 815 CURVE SMOOTH",
"558 815 OFFCURVE",
"480 859 OFFCURVE",
"440 859 CURVE SMOOTH",
"375 859 OFFCURVE",
"335 797 OFFCURVE",
"324 739 CURVE",
"366 739 LINE"
);
}
);
width = 778;
}
);
note = Otilde;
unicode = 00D5;
},
{
glyphname = Scaron;
lastChange = "2017-06-09 11:40:29 +0000";
layers = (
{
layerId = "0E02FD82-E348-46EC-A7E4-43EEF3FEB87C";
paths = (
{
closed = 1;
nodes = (
"22 6 LINE",
"36 23 OFFCURVE",
"46 38 OFFCURVE",
"71 38 CURVE SMOOTH",
"94 38 OFFCURVE",
"148 -12 OFFCURVE",
"245 -12 CURVE SMOOTH",
"408 -12 OFFCURVE",
"564 84 OFFCURVE",
"564 238 CURVE SMOOTH",
"564 435 OFFCURVE",
"258 396 OFFCURVE",
"258 544 CURVE SMOOTH",
"258 604 OFFCURVE",
"308 658 OFFCURVE",
"398 658 CURVE SMOOTH",
"508 658 OFFCURVE",
"558 593 OFFCURVE",
"558 492 CURVE SMOOTH",
"558 452 LINE",
"600 452 LINE",
"658 682 LINE",
"610 682 LINE",
"603 666 OFFCURVE",
"593 646 OFFCURVE",
"574 646 CURVE SMOOTH",
"547 646 OFFCURVE",
"508 700 OFFCURVE",
"402 700 CURVE SMOOTH",
"240 700 OFFCURVE",
"114 588 OFFCURVE",
"114 477 CURVE SMOOTH",
"114 270 OFFCURVE",
"420 296 OFFCURVE",
"420 160 CURVE SMOOTH",
"420 104 OFFCURVE",
"348 30 OFFCURVE",
"250 30 CURVE SMOOTH",
"120 30 OFFCURVE",
"88 98 OFFCURVE",
"88 204 CURVE SMOOTH",
"88 260 LINE",
"46 260 LINE",
"-20 6 LINE"
);
},
{
closed = 1;
nodes = (
"475 717 LINE",
"637 891 LINE",
"585 891 LINE",
"447 795 LINE",
"355 891 LINE",
"305 891 LINE",
"393 717 LINE"
);
}
);
width = 667;
}
);
note = Scaron;
unicode = 0160;
},
{
glyphname = Uacute;
lastChange = "2017-06-09 11:40:29 +0000";
layers = (
{
layerId = "0E02FD82-E348-46EC-A7E4-43EEF3FEB87C";
paths = (
{
closed = 1;
nodes = (
"110 646 LINE",
"171 646 OFFCURVE",
"190 640 OFFCURVE",
"190 606 CURVE SMOOTH",
"190 580 OFFCURVE",
"78 244 OFFCURVE",
"78 166 CURVE SMOOTH",
"78 68 OFFCURVE",
"172 -12 OFFCURVE",
"334 -12 CURVE SMOOTH",
"496 -12 OFFCURVE",
"574 60 OFFCURVE",
"608 188 CURVE SMOOTH",
"708 568 LINE SMOOTH",
"724 628 OFFCURVE",
"750 644 OFFCURVE",
"826 646 CURVE",
"836 688 LINE",
"590 688 LINE",
"580 646 LINE",
"648 644 OFFCURVE",
"662 632 OFFCURVE",
"662 610 CURVE SMOOTH",
"662 592 OFFCURVE",
"650 545 OFFCURVE",
"642 514 CURVE SMOOTH",
"551 175 LINE SMOOTH",
"526 82 OFFCURVE",
"454 30 OFFCURVE",
"360 30 CURVE SMOOTH",
"296 30 OFFCURVE",
"228 58 OFFCURVE",
"228 132 CURVE SMOOTH",
"228 160 OFFCURVE",
"240 204 OFFCURVE",
"254 255 CURVE SMOOTH",
"336 558 LINE SMOOTH",
"357 636 OFFCURVE",
"378 644 OFFCURVE",
"454 646 CURVE",
"464 688 LINE",
"120 688 LINE"
);
},
{
closed = 1;
nodes = (
"619 802 LINE SMOOTH",
"650 820 OFFCURVE",
"659 828 OFFCURVE",
"659 853 CURVE SMOOTH",
"659 876 OFFCURVE",
"638 897 OFFCURVE",
"612 897 CURVE SMOOTH",
"592 897 OFFCURVE",
"575 884 OFFCURVE",
"525 830 CURVE SMOOTH",
"421 717 LINE",
"469 717 LINE"
);
}
);
width = 778;
}
);
note = Uacute;
unicode = 00DA;
},
